<?xml version="1.0" encoding="UTF-8" standalone="no"?>
<!DOCTYPE svg PUBLIC "-//W3C//DTD SVG 1.1//EN"
 "http://www.w3.org/Graphics/SVG/1.1/DTD/svg11.dtd">
<!-- Generated by graphviz version 2.43.0 (0)
 -->
<!-- Title: g Pages: 1 -->
<svg width="153pt" height="116pt"
 viewBox="0.00 0.00 153.00 116.00" xmlns="http://www.w3.org/2000/svg" xmlns:xlink="http://www.w3.org/1999/xlink">
<g id="graph0" class="graph" transform="scale(1 1) rotate(0) translate(4 112)">
<title>g</title>
<polygon fill="white" stroke="transparent" points="-4,4 -4,-112 149,-112 149,4 -4,4"/>
<!-- X1 -->
<g id="node1" class="node">
<title>X1</title>
<polygon fill="none" stroke="black" points="145,-108 91,-108 91,-72 145,-72 145,-108"/>
<text text-anchor="start" x="109" y="-87.3" font-family="Times,serif" font-style="italic" font-size="14.00">X</text>
<text text-anchor="start" x="119" y="-87.3" font-family="Times,serif" font-style="italic" baseline-shift="sub" font-size="14.00">1</text>
</g>
<!-- X2 -->
<g id="node2" class="node">
<title>X2</title>
<polygon fill="none" stroke="black" points="145,-36 91,-36 91,0 145,0 145,-36"/>
<text text-anchor="start" x="109" y="-15.3" font-family="Times,serif" font-style="italic" font-size="14.00">X</text>
<text text-anchor="start" x="119" y="-15.3" font-family="Times,serif" font-style="italic" baseline-shift="sub" font-size="14.00">2</text>
</g>
<!-- X1&#45;&gt;X2 -->
<g id="edge5" class="edge">
<title>X1&#45;&gt;X2</title>
<path fill="none" stroke="black" stroke-dasharray="5,2" d="M118,-61.31C118,-56.41 118,-51.32 118,-46.43"/>
<polygon fill="black" stroke="black" points="114.5,-61.59 118,-71.59 121.5,-61.59 114.5,-61.59"/>
<polygon fill="black" stroke="black" points="121.5,-46.17 118,-36.17 114.5,-46.17 121.5,-46.17"/>
<text text-anchor="middle" x="128.5" y="-50.3" font-family="Times,serif" font-size="14.00"> </text>
</g>
<!-- Y1 -->
<g id="node3" class="node">
<title>Y1</title>
<polygon fill="none" stroke="black" points="54,-104 0,-104 0,-68 54,-68 54,-104"/>
<text text-anchor="start" x="18" y="-83.3" font-family="Times,serif" font-style="italic" font-size="14.00">Y</text>
<text text-anchor="start" x="28" y="-83.3" font-family="Times,serif" font-style="italic" baseline-shift="sub" font-size="14.00">1</text>
</g>
<!-- X1&#45;&gt;Y1 -->
<g id="edge1" class="edge">
<title>X1&#45;&gt;Y1</title>
<path fill="none" stroke="black" d="M90.78,-88.82C82.45,-88.45 73.09,-88.03 64.18,-87.63"/>
<polygon fill="black" stroke="black" points="64.18,-84.12 54.03,-87.17 63.87,-91.12 64.18,-84.12"/>
</g>
<!-- Y2 -->
<g id="node4" class="node">
<title>Y2</title>
<polygon fill="none" stroke="black" points="54,-45 0,-45 0,-9 54,-9 54,-45"/>
<text text-anchor="start" x="18" y="-24.3" font-family="Times,serif" font-style="italic" font-size="14.00">Y</text>
<text text-anchor="start" x="28" y="-24.3" font-family="Times,serif" font-style="italic" baseline-shift="sub" font-size="14.00">2</text>
</g>
<!-- X1&#45;&gt;Y2 -->
<g id="edge3" class="edge">
<title>X1&#45;&gt;Y2</title>
<path fill="none" stroke="black" d="M91.26,-71.78C82.12,-65.31 71.7,-57.94 61.99,-51.06"/>
<polygon fill="black" stroke="black" points="63.87,-48.1 53.68,-45.18 59.82,-53.82 63.87,-48.1"/>
</g>
<!-- X2&#45;&gt;Y1 -->
<g id="edge2" class="edge">
<title>X2&#45;&gt;Y1</title>
<path fill="none" stroke="black" d="M93.15,-36.22C82.89,-44.06 70.75,-53.33 59.75,-61.74"/>
<polygon fill="black" stroke="black" points="57.43,-59.11 51.61,-67.96 61.68,-64.67 57.43,-59.11"/>
</g>
<!-- X2&#45;&gt;Y2 -->
<g id="edge4" class="edge">
<title>X2&#45;&gt;Y2</title>
<path fill="none" stroke="black" d="M90.78,-20.65C82.45,-21.49 73.09,-22.44 64.18,-23.34"/>
<polygon fill="black" stroke="black" points="63.63,-19.88 54.03,-24.37 64.34,-26.84 63.63,-19.88"/>
</g>
</g>
</svg>