<?xml version="1.0" encoding="UTF-8" standalone="no"?>
<!DOCTYPE svg PUBLIC "-//W3C//DTD SVG 1.1//EN"
 "http://www.w3.org/Graphics/SVG/1.1/DTD/svg11.dtd">
<!-- Generated by graphviz version 2.43.0 (0)
 -->
<!-- Title: %3 Pages: 1 -->
<svg width="458pt" height="233pt"
 viewBox="0.00 0.00 457.99 232.91" xmlns="http://www.w3.org/2000/svg" xmlns:xlink="http://www.w3.org/1999/xlink">
<g id="graph0" class="graph" transform="scale(1 1) rotate(0) translate(4 228.91)">
<title>%3</title>
<polygon fill="white" stroke="transparent" points="-4,4 -4,-228.91 453.99,-228.91 453.99,4 -4,4"/>
<g id="clust1" class="cluster">
<title>cluster100</title>
<path fill="none" stroke="black" d="M179.5,-8C179.5,-8 269.5,-8 269.5,-8 275.5,-8 281.5,-14 281.5,-20 281.5,-20 281.5,-109.95 281.5,-109.95 281.5,-115.95 275.5,-121.95 269.5,-121.95 269.5,-121.95 179.5,-121.95 179.5,-121.95 173.5,-121.95 167.5,-115.95 167.5,-109.95 167.5,-109.95 167.5,-20 167.5,-20 167.5,-14 173.5,-8 179.5,-8"/>
<text text-anchor="middle" x="259.5" y="-15.8" font-family="Times,serif" font-size="14.00">100</text>
</g>
<!-- beta0 -->
<g id="node1" class="node">
<title>beta0</title>
<ellipse fill="none" stroke="black" cx="49.5" cy="-187.43" rx="49.49" ry="37.45"/>
<text text-anchor="middle" x="49.5" y="-198.73" font-family="Times,serif" font-size="14.00">beta0</text>
<text text-anchor="middle" x="49.5" y="-183.73" font-family="Times,serif" font-size="14.00">~</text>
<text text-anchor="middle" x="49.5" y="-168.73" font-family="Times,serif" font-size="14.00">Normal</text>
</g>
<!-- y_obs -->
<g id="node5" class="node">
<title>y_obs</title>
<ellipse fill="lightgrey" stroke="black" cx="224.5" cy="-76.48" rx="49.49" ry="37.45"/>
<text text-anchor="middle" x="224.5" y="-87.78" font-family="Times,serif" font-size="14.00">y_obs</text>
<text text-anchor="middle" x="224.5" y="-72.78" font-family="Times,serif" font-size="14.00">~</text>
<text text-anchor="middle" x="224.5" y="-57.78" font-family="Times,serif" font-size="14.00">Normal</text>
</g>
<!-- beta0&#45;&gt;y_obs -->
<g id="edge1" class="edge">
<title>beta0&#45;&gt;y_obs</title>
<path fill="none" stroke="black" d="M87.47,-162.79C114.16,-146.17 150.02,-123.84 178.36,-106.2"/>
<polygon fill="black" stroke="black" points="180.26,-109.14 186.9,-100.88 176.56,-103.2 180.26,-109.14"/>
</g>
<!-- beta2 -->
<g id="node2" class="node">
<title>beta2</title>
<ellipse fill="none" stroke="black" cx="166.5" cy="-187.43" rx="49.49" ry="37.45"/>
<text text-anchor="middle" x="166.5" y="-198.73" font-family="Times,serif" font-size="14.00">beta2</text>
<text text-anchor="middle" x="166.5" y="-183.73" font-family="Times,serif" font-size="14.00">~</text>
<text text-anchor="middle" x="166.5" y="-168.73" font-family="Times,serif" font-size="14.00">Normal</text>
</g>
<!-- beta2&#45;&gt;y_obs -->
<g id="edge2" class="edge">
<title>beta2&#45;&gt;y_obs</title>
<path fill="none" stroke="black" d="M184.69,-152.26C190.03,-142.22 195.95,-131.1 201.55,-120.58"/>
<polygon fill="black" stroke="black" points="204.76,-122 206.37,-111.53 198.58,-118.71 204.76,-122"/>
</g>
<!-- epsilon -->
<g id="node3" class="node">
<title>epsilon</title>
<ellipse fill="none" stroke="black" cx="283.5" cy="-187.43" rx="49.49" ry="37.45"/>
<text text-anchor="middle" x="283.5" y="-198.73" font-family="Times,serif" font-size="14.00">epsilon</text>
<text text-anchor="middle" x="283.5" y="-183.73" font-family="Times,serif" font-size="14.00">~</text>
<text text-anchor="middle" x="283.5" y="-168.73" font-family="Times,serif" font-size="14.00">Normal</text>
</g>
<!-- epsilon&#45;&gt;y_obs -->
<g id="edge3" class="edge">
<title>epsilon&#45;&gt;y_obs</title>
<path fill="none" stroke="black" d="M265.15,-152.55C259.6,-142.31 253.44,-130.92 247.62,-120.17"/>
<polygon fill="black" stroke="black" points="250.67,-118.46 242.83,-111.33 244.51,-121.79 250.67,-118.46"/>
</g>
<!-- beta1 -->
<g id="node4" class="node">
<title>beta1</title>
<ellipse fill="none" stroke="black" cx="400.5" cy="-187.43" rx="49.49" ry="37.45"/>
<text text-anchor="middle" x="400.5" y="-198.73" font-family="Times,serif" font-size="14.00">beta1</text>
<text text-anchor="middle" x="400.5" y="-183.73" font-family="Times,serif" font-size="14.00">~</text>
<text text-anchor="middle" x="400.5" y="-168.73" font-family="Times,serif" font-size="14.00">Normal</text>
</g>
<!-- beta1&#45;&gt;y_obs -->
<g id="edge4" class="edge">
<title>beta1&#45;&gt;y_obs</title>
<path fill="none" stroke="black" d="M362.74,-163.06C335.83,-146.4 299.49,-123.9 270.82,-106.15"/>
<polygon fill="black" stroke="black" points="272.54,-103.1 262.19,-100.81 268.85,-109.05 272.54,-103.1"/>
</g>
</g>
</svg>