<?xml version="1.0" encoding="UTF-8" standalone="no"?>
<!DOCTYPE svg PUBLIC "-//W3C//DTD SVG 1.1//EN"
 "http://www.w3.org/Graphics/SVG/1.1/DTD/svg11.dtd">
<!-- Generated by graphviz version 2.42.4 (0)
 -->
<!-- Title: G Pages: 1 -->
<svg width="269pt" height="171pt"
 viewBox="0.00 0.00 269.00 171.00" xmlns="http://www.w3.org/2000/svg" xmlns:xlink="http://www.w3.org/1999/xlink">
<g id="graph0" class="graph" transform="scale(1 1) rotate(0) translate(4 167)">
<title>G</title>
<polygon fill="white" stroke="transparent" points="-4,4 -4,-167 265,-167 265,4 -4,4"/>
<g id="clust1" class="cluster">
<title>cluster_chain</title>
<polygon fill="none" stroke="black" stroke-dasharray="5,2" points="8,-8 8,-155 103,-155 103,-8 8,-8"/>
<text text-anchor="middle" x="55.5" y="-139.8" font-family="Times,serif" font-size="14.00">direct path</text>
</g>
<g id="clust2" class="cluster">
<title>cluster_fork</title>
<polygon fill="none" stroke="black" stroke-dasharray="5,2" points="111,-8 111,-155 253,-155 253,-8 111,-8"/>
<text text-anchor="middle" x="182" y="-139.8" font-family="Times,serif" font-size="14.00">backdoor path</text>
</g>
<!-- X1 -->
<g id="node1" class="node">
<title>X1</title>
<ellipse fill="none" stroke="black" cx="55" cy="-106" rx="27" ry="18"/>
<text text-anchor="middle" x="55" y="-102.3" font-family="Times,serif" font-size="14.00">X</text>
</g>
<!-- Y1 -->
<g id="node2" class="node">
<title>Y1</title>
<ellipse fill="none" stroke="black" cx="55" cy="-34" rx="27" ry="18"/>
<text text-anchor="middle" x="55" y="-30.3" font-family="Times,serif" font-size="14.00">Y</text>
</g>
<!-- X1&#45;&gt;Y1 -->
<g id="edge1" class="edge">
<title>X1&#45;&gt;Y1</title>
<path fill="none" stroke="black" d="M55,-87.7C55,-79.98 55,-70.71 55,-62.11"/>
<polygon fill="black" stroke="black" points="58.5,-62.1 55,-52.1 51.5,-62.1 58.5,-62.1"/>
</g>
<!-- U2 -->
<g id="node3" class="node">
<title>U2</title>
<ellipse fill="none" stroke="black" cx="182" cy="-106" rx="27" ry="18"/>
<text text-anchor="middle" x="182" y="-102.3" font-family="Times,serif" font-size="14.00">U</text>
</g>
<!-- X2 -->
<g id="node4" class="node">
<title>X2</title>
<ellipse fill="none" stroke="black" cx="146" cy="-34" rx="27" ry="18"/>
<text text-anchor="middle" x="146" y="-30.3" font-family="Times,serif" font-size="14.00">X</text>
</g>
<!-- U2&#45;&gt;X2 -->
<g id="edge2" class="edge">
<title>U2&#45;&gt;X2</title>
<path fill="none" stroke="black" d="M173.65,-88.76C169.29,-80.28 163.85,-69.71 158.96,-60.2"/>
<polygon fill="black" stroke="black" points="161.99,-58.44 154.3,-51.15 155.77,-61.64 161.99,-58.44"/>
</g>
<!-- Y2 -->
<g id="node5" class="node">
<title>Y2</title>
<ellipse fill="none" stroke="black" cx="218" cy="-34" rx="27" ry="18"/>
<text text-anchor="middle" x="218" y="-30.3" font-family="Times,serif" font-size="14.00">Y</text>
</g>
<!-- U2&#45;&gt;Y2 -->
<g id="edge3" class="edge">
<title>U2&#45;&gt;Y2</title>
<path fill="none" stroke="black" d="M190.35,-88.76C194.71,-80.28 200.15,-69.71 205.04,-60.2"/>
<polygon fill="black" stroke="black" points="208.23,-61.64 209.7,-51.15 202.01,-58.44 208.23,-61.64"/>
</g>
<!-- X2&#45;&gt;Y2 -->
<g id="edge4" class="edge">
<title>X2&#45;&gt;Y2</title>
<path fill="none" stroke="black" d="M173,-34C175.61,-34 178.23,-34 180.84,-34"/>
<polygon fill="black" stroke="black" points="180.93,-37.5 190.93,-34 180.93,-30.5 180.93,-37.5"/>
</g>
</g>
</svg>