<?xml version="1.0" encoding="UTF-8" standalone="no"?>
<!DOCTYPE svg PUBLIC "-//W3C//DTD SVG 1.1//EN"
 "http://www.w3.org/Graphics/SVG/1.1/DTD/svg11.dtd">
<!-- Generated by graphviz version 2.42.4 (0)
 -->
<!-- Title: g Pages: 1 -->
<svg width="152pt" height="98pt"
 viewBox="0.00 0.00 152.00 98.00" xmlns="http://www.w3.org/2000/svg" xmlns:xlink="http://www.w3.org/1999/xlink">
<g id="graph0" class="graph" transform="scale(1 1) rotate(0) translate(4 94)">
<title>g</title>
<polygon fill="white" stroke="transparent" points="-4,4 -4,-94 148,-94 148,4 -4,4"/>
<!-- X1 -->
<g id="node1" class="node">
<title>X1</title>
<polygon fill="none" stroke="black" points="144,-90 90,-90 90,-54 144,-54 144,-90"/>
<text text-anchor="start" x="108" y="-69.3" font-family="Times,serif" font-style="italic" font-size="14.00">X</text>
<text text-anchor="start" x="118" y="-69.3" font-family="Times,serif" font-style="italic" baseline-shift="sub" font-size="14.00">1</text>
</g>
<!-- Y1 -->
<g id="node3" class="node">
<title>Y1</title>
<polygon fill="none" stroke="black" points="54,-90 0,-90 0,-54 54,-54 54,-90"/>
<text text-anchor="start" x="18" y="-69.3" font-family="Times,serif" font-style="italic" font-size="14.00">Y</text>
<text text-anchor="start" x="28" y="-69.3" font-family="Times,serif" font-style="italic" baseline-shift="sub" font-size="14.00">1</text>
</g>
<!-- X1&#45;&gt;Y1 -->
<g id="edge1" class="edge">
<title>X1&#45;&gt;Y1</title>
<path fill="none" stroke="black" d="M89.6,-72C81.61,-72 72.69,-72 64.18,-72"/>
<polygon fill="black" stroke="black" points="64.08,-68.5 54.08,-72 64.08,-75.5 64.08,-68.5"/>
</g>
<!-- Y2 -->
<g id="node4" class="node">
<title>Y2</title>
<polygon fill="none" stroke="black" points="54,-36 0,-36 0,0 54,0 54,-36"/>
<text text-anchor="start" x="18" y="-15.3" font-family="Times,serif" font-style="italic" font-size="14.00">Y</text>
<text text-anchor="start" x="28" y="-15.3" font-family="Times,serif" font-style="italic" baseline-shift="sub" font-size="14.00">2</text>
</g>
<!-- X1&#45;&gt;Y2 -->
<g id="edge3" class="edge">
<title>X1&#45;&gt;Y2</title>
<path fill="none" stroke="black" d="M89.6,-55.8C81.17,-50.63 71.71,-44.82 62.78,-39.34"/>
<polygon fill="black" stroke="black" points="64.43,-36.25 54.08,-34 60.77,-42.22 64.43,-36.25"/>
</g>
<!-- X2 -->
<g id="node2" class="node">
<title>X2</title>
<polygon fill="none" stroke="black" points="144,-36 90,-36 90,0 144,0 144,-36"/>
<text text-anchor="start" x="108" y="-15.3" font-family="Times,serif" font-style="italic" font-size="14.00">X</text>
<text text-anchor="start" x="118" y="-15.3" font-family="Times,serif" font-style="italic" baseline-shift="sub" font-size="14.00">2</text>
</g>
<!-- X2&#45;&gt;Y1 -->
<g id="edge2" class="edge">
<title>X2&#45;&gt;Y1</title>
<path fill="none" stroke="black" d="M89.6,-34.2C81.17,-39.37 71.71,-45.18 62.78,-50.66"/>
<polygon fill="black" stroke="black" points="60.77,-47.78 54.08,-56 64.43,-53.75 60.77,-47.78"/>
</g>
<!-- X2&#45;&gt;Y2 -->
<g id="edge4" class="edge">
<title>X2&#45;&gt;Y2</title>
<path fill="none" stroke="black" d="M89.6,-18C81.61,-18 72.69,-18 64.18,-18"/>
<polygon fill="black" stroke="black" points="64.08,-14.5 54.08,-18 64.08,-21.5 64.08,-14.5"/>
</g>
</g>
</svg>