<?xml version="1.0" encoding="UTF-8" standalone="no"?>
<!DOCTYPE svg PUBLIC "-//W3C//DTD SVG 1.1//EN"
 "http://www.w3.org/Graphics/SVG/1.1/DTD/svg11.dtd">
<!-- Generated by graphviz version 2.43.0 (0)
 -->
<!-- Title: g Pages: 1 -->
<svg width="436pt" height="158pt"
 viewBox="0.00 0.00 436.00 157.99" xmlns="http://www.w3.org/2000/svg" xmlns:xlink="http://www.w3.org/1999/xlink">
<g id="graph0" class="graph" transform="scale(1 1) rotate(0) translate(4 153.99)">
<title>g</title>
<polygon fill="white" stroke="transparent" points="-4,4 -4,-153.99 432,-153.99 432,4 -4,4"/>
<text text-anchor="middle" x="214" y="-7.8" font-family="Times,serif" font-size="14.00">GES Step 2: Forward Phase（例：X1→X2, X2→X3 を追加）</text>
<!-- X1 -->
<g id="node1" class="node">
<title>X1</title>
<ellipse fill="none" stroke="black" cx="151" cy="-127.24" rx="23" ry="23"/>
<text text-anchor="middle" x="151" y="-123.54" font-family="Times,serif" font-size="14.00">X1</text>
</g>
<!-- X2 -->
<g id="node2" class="node">
<title>X2</title>
<ellipse fill="none" stroke="black" cx="214" cy="-127.24" rx="23" ry="23"/>
<text text-anchor="middle" x="214" y="-123.54" font-family="Times,serif" font-size="14.00">X2</text>
</g>
<!-- X1&#45;&gt;X2 -->
<g id="edge1" class="edge">
<title>X1&#45;&gt;X2</title>
<path fill="none" stroke="black" d="M174.13,-127.24C176.32,-127.24 178.51,-127.24 180.7,-127.24"/>
<polygon fill="black" stroke="black" points="180.95,-130.74 190.95,-127.24 180.95,-123.74 180.95,-130.74"/>
</g>
<!-- X3 -->
<g id="node3" class="node">
<title>X3</title>
<ellipse fill="none" stroke="black" cx="214" cy="-45.75" rx="23" ry="23"/>
<text text-anchor="middle" x="214" y="-42.05" font-family="Times,serif" font-size="14.00">X3</text>
</g>
<!-- X2&#45;&gt;X3 -->
<g id="edge2" class="edge">
<title>X2&#45;&gt;X3</title>
<path fill="none" stroke="black" d="M214,-104.1C214,-96.2 214,-87.13 214,-78.57"/>
<polygon fill="black" stroke="black" points="217.5,-78.5 214,-68.5 210.5,-78.5 217.5,-78.5"/>
</g>
<!-- X4 -->
<g id="node4" class="node">
<title>X4</title>
<ellipse fill="none" stroke="black" cx="277" cy="-45.75" rx="23" ry="23"/>
<text text-anchor="middle" x="277" y="-42.05" font-family="Times,serif" font-size="14.00">X4</text>
</g>
</g>
</svg>