<?xml version="1.0" encoding="UTF-8" standalone="no"?>
<!DOCTYPE svg PUBLIC "-//W3C//DTD SVG 1.1//EN"
 "http://www.w3.org/Graphics/SVG/1.1/DTD/svg11.dtd">
<!-- Generated by graphviz version 2.42.4 (0)
 -->
<!-- Title: g Pages: 1 -->
<svg width="422pt" height="120pt"
 viewBox="0.00 0.00 422.00 120.30" xmlns="http://www.w3.org/2000/svg" xmlns:xlink="http://www.w3.org/1999/xlink">
<g id="graph0" class="graph" transform="scale(1 1) rotate(0) translate(4 116.3)">
<title>g</title>
<polygon fill="white" stroke="transparent" points="-4,4 -4,-116.3 418,-116.3 418,4 -4,4"/>
<!-- x1 -->
<g id="node1" class="node">
<title>x1</title>
<polygon fill="none" stroke="black" points="54,-36 0,-36 0,0 54,0 54,-36"/>
<text text-anchor="middle" x="27" y="-14.3" font-family="Times,serif" font-size="14.00">x1</text>
</g>
<!-- x2 -->
<g id="node2" class="node">
<title>x2</title>
<polygon fill="none" stroke="black" points="126,-36 72,-36 72,0 126,0 126,-36"/>
<text text-anchor="middle" x="99" y="-14.3" font-family="Times,serif" font-size="14.00">x2</text>
</g>
<!-- x3 -->
<g id="node3" class="node">
<title>x3</title>
<polygon fill="none" stroke="black" points="198,-36 144,-36 144,0 198,0 198,-36"/>
<text text-anchor="middle" x="171" y="-14.3" font-family="Times,serif" font-size="14.00">x3</text>
</g>
<!-- x4 -->
<g id="node4" class="node">
<title>x4</title>
<polygon fill="none" stroke="black" points="270,-36 216,-36 216,0 270,0 270,-36"/>
<text text-anchor="middle" x="243" y="-14.3" font-family="Times,serif" font-size="14.00">x4</text>
</g>
<!-- x5 -->
<g id="node5" class="node">
<title>x5</title>
<polygon fill="none" stroke="black" points="342,-36 288,-36 288,0 342,0 342,-36"/>
<text text-anchor="middle" x="315" y="-14.3" font-family="Times,serif" font-size="14.00">x5</text>
</g>
<!-- x6 -->
<g id="node6" class="node">
<title>x6</title>
<polygon fill="none" stroke="black" points="414,-36 360,-36 360,0 414,0 414,-36"/>
<text text-anchor="middle" x="387" y="-14.3" font-family="Times,serif" font-size="14.00">x6</text>
</g>
<!-- f1 -->
<g id="node7" class="node">
<title>f1</title>
<ellipse fill="none" stroke="black" cx="135" cy="-92.15" rx="20.3" ry="20.3"/>
<text text-anchor="middle" x="135" y="-88.45" font-family="Times,serif" font-size="14.00">f1</text>
</g>
<!-- f1&#45;&gt;x1 -->
<g id="edge2" class="edge">
<title>f1&#45;&gt;x1</title>
<path fill="none" stroke="black" d="M118.6,-80.19C103.45,-70.07 80.47,-54.72 61.31,-41.92"/>
<polygon fill="black" stroke="black" points="63.09,-38.9 52.83,-36.25 59.2,-44.72 63.09,-38.9"/>
</g>
<!-- f1&#45;&gt;x2 -->
<g id="edge3" class="edge">
<title>f1&#45;&gt;x2</title>
<path fill="none" stroke="black" d="M126.29,-73.68C122.04,-65.18 116.85,-54.77 112.13,-45.32"/>
<polygon fill="black" stroke="black" points="115.23,-43.69 107.63,-36.3 108.97,-46.81 115.23,-43.69"/>
</g>
<!-- f1&#45;&gt;x3 -->
<g id="edge4" class="edge">
<title>f1&#45;&gt;x3</title>
<path fill="none" stroke="black" d="M143.71,-73.68C147.96,-65.18 153.15,-54.77 157.87,-45.32"/>
<polygon fill="black" stroke="black" points="161.03,-46.81 162.37,-36.3 154.77,-43.69 161.03,-46.81"/>
</g>
<!-- f2 -->
<g id="node8" class="node">
<title>f2</title>
<ellipse fill="none" stroke="black" cx="279" cy="-92.15" rx="20.3" ry="20.3"/>
<text text-anchor="middle" x="279" y="-88.45" font-family="Times,serif" font-size="14.00">f2</text>
</g>
<!-- f1&#45;&gt;f2 -->
<g id="edge1" class="edge">
<title>f1&#45;&gt;f2</title>
<path fill="none" stroke="black" d="M155.25,-92.15C186.36,-92.15 217.48,-92.15 248.59,-92.15"/>
<polygon fill="black" stroke="black" points="248.7,-95.65 258.7,-92.15 248.7,-88.65 248.7,-95.65"/>
</g>
<!-- f2&#45;&gt;x4 -->
<g id="edge5" class="edge">
<title>f2&#45;&gt;x4</title>
<path fill="none" stroke="black" d="M270.29,-73.68C266.04,-65.18 260.85,-54.77 256.13,-45.32"/>
<polygon fill="black" stroke="black" points="259.23,-43.69 251.63,-36.3 252.97,-46.81 259.23,-43.69"/>
</g>
<!-- f2&#45;&gt;x5 -->
<g id="edge6" class="edge">
<title>f2&#45;&gt;x5</title>
<path fill="none" stroke="black" d="M287.71,-73.68C291.96,-65.18 297.15,-54.77 301.87,-45.32"/>
<polygon fill="black" stroke="black" points="305.03,-46.81 306.37,-36.3 298.77,-43.69 305.03,-46.81"/>
</g>
<!-- f2&#45;&gt;x6 -->
<g id="edge7" class="edge">
<title>f2&#45;&gt;x6</title>
<path fill="none" stroke="black" d="M295.4,-80.19C310.55,-70.07 333.53,-54.72 352.69,-41.92"/>
<polygon fill="black" stroke="black" points="354.8,-44.72 361.17,-36.25 350.91,-38.9 354.8,-44.72"/>
</g>
</g>
</svg>