<?xml version="1.0" encoding="UTF-8" standalone="no"?>
<!DOCTYPE svg PUBLIC "-//W3C//DTD SVG 1.1//EN"
 "http://www.w3.org/Graphics/SVG/1.1/DTD/svg11.dtd">
<!-- Generated by graphviz version 2.43.0 (0)
 -->
<!-- Title: %3 Pages: 1 -->
<svg width="500pt" height="233pt"
 viewBox="0.00 0.00 500.21 232.91" xmlns="http://www.w3.org/2000/svg" xmlns:xlink="http://www.w3.org/1999/xlink">
<g id="graph0" class="graph" transform="scale(1 1) rotate(0) translate(4 228.91)">
<title>%3</title>
<polygon fill="white" stroke="transparent" points="-4,4 -4,-228.91 496.21,-228.91 496.21,4 -4,4"/>
<g id="clust1" class="cluster">
<title>cluster1000</title>
<path fill="none" stroke="black" d="M221.71,-8C221.71,-8 311.71,-8 311.71,-8 317.71,-8 323.71,-14 323.71,-20 323.71,-20 323.71,-109.95 323.71,-109.95 323.71,-115.95 317.71,-121.95 311.71,-121.95 311.71,-121.95 221.71,-121.95 221.71,-121.95 215.71,-121.95 209.71,-115.95 209.71,-109.95 209.71,-109.95 209.71,-20 209.71,-20 209.71,-14 215.71,-8 221.71,-8"/>
<text text-anchor="middle" x="297.21" y="-15.8" font-family="Times,serif" font-size="14.00">1000</text>
</g>
<!-- sigma -->
<g id="node1" class="node">
<title>sigma</title>
<ellipse fill="none" stroke="black" cx="70.71" cy="-187.43" rx="70.92" ry="37.45"/>
<text text-anchor="middle" x="70.71" y="-198.73" font-family="Times,serif" font-size="14.00">sigma</text>
<text text-anchor="middle" x="70.71" y="-183.73" font-family="Times,serif" font-size="14.00">~</text>
<text text-anchor="middle" x="70.71" y="-168.73" font-family="Times,serif" font-size="14.00">HalfNormal</text>
</g>
<!-- y_obs -->
<g id="node5" class="node">
<title>y_obs</title>
<ellipse fill="lightgrey" stroke="black" cx="266.71" cy="-76.48" rx="49.49" ry="37.45"/>
<text text-anchor="middle" x="266.71" y="-87.78" font-family="Times,serif" font-size="14.00">y_obs</text>
<text text-anchor="middle" x="266.71" y="-72.78" font-family="Times,serif" font-size="14.00">~</text>
<text text-anchor="middle" x="266.71" y="-57.78" font-family="Times,serif" font-size="14.00">Normal</text>
</g>
<!-- sigma&#45;&gt;y_obs -->
<g id="edge3" class="edge">
<title>sigma&#45;&gt;y_obs</title>
<path fill="none" stroke="black" d="M118.66,-159.78C148.85,-142.99 187.72,-121.39 218.05,-104.53"/>
<polygon fill="black" stroke="black" points="220.13,-107.38 227.17,-99.46 216.73,-101.26 220.13,-107.38"/>
</g>
<!-- beta2 -->
<g id="node2" class="node">
<title>beta2</title>
<ellipse fill="none" stroke="black" cx="208.71" cy="-187.43" rx="49.49" ry="37.45"/>
<text text-anchor="middle" x="208.71" y="-198.73" font-family="Times,serif" font-size="14.00">beta2</text>
<text text-anchor="middle" x="208.71" y="-183.73" font-family="Times,serif" font-size="14.00">~</text>
<text text-anchor="middle" x="208.71" y="-168.73" font-family="Times,serif" font-size="14.00">Normal</text>
</g>
<!-- beta2&#45;&gt;y_obs -->
<g id="edge4" class="edge">
<title>beta2&#45;&gt;y_obs</title>
<path fill="none" stroke="black" d="M226.9,-152.26C232.25,-142.22 238.16,-131.1 243.76,-120.58"/>
<polygon fill="black" stroke="black" points="246.97,-122 248.58,-111.53 240.79,-118.71 246.97,-122"/>
</g>
<!-- beta0 -->
<g id="node3" class="node">
<title>beta0</title>
<ellipse fill="none" stroke="black" cx="325.71" cy="-187.43" rx="49.49" ry="37.45"/>
<text text-anchor="middle" x="325.71" y="-198.73" font-family="Times,serif" font-size="14.00">beta0</text>
<text text-anchor="middle" x="325.71" y="-183.73" font-family="Times,serif" font-size="14.00">~</text>
<text text-anchor="middle" x="325.71" y="-168.73" font-family="Times,serif" font-size="14.00">Normal</text>
</g>
<!-- beta0&#45;&gt;y_obs -->
<g id="edge2" class="edge">
<title>beta0&#45;&gt;y_obs</title>
<path fill="none" stroke="black" d="M307.37,-152.55C301.82,-142.31 295.65,-130.92 289.83,-120.17"/>
<polygon fill="black" stroke="black" points="292.88,-118.46 285.04,-111.33 286.73,-121.79 292.88,-118.46"/>
</g>
<!-- beta1 -->
<g id="node4" class="node">
<title>beta1</title>
<ellipse fill="none" stroke="black" cx="442.71" cy="-187.43" rx="49.49" ry="37.45"/>
<text text-anchor="middle" x="442.71" y="-198.73" font-family="Times,serif" font-size="14.00">beta1</text>
<text text-anchor="middle" x="442.71" y="-183.73" font-family="Times,serif" font-size="14.00">~</text>
<text text-anchor="middle" x="442.71" y="-168.73" font-family="Times,serif" font-size="14.00">Normal</text>
</g>
<!-- beta1&#45;&gt;y_obs -->
<g id="edge1" class="edge">
<title>beta1&#45;&gt;y_obs</title>
<path fill="none" stroke="black" d="M404.95,-163.06C378.04,-146.4 341.7,-123.9 313.04,-106.15"/>
<polygon fill="black" stroke="black" points="314.75,-103.1 304.4,-100.81 311.07,-109.05 314.75,-103.1"/>
</g>
</g>
</svg>