<?xml version="1.0" encoding="UTF-8" standalone="no"?>
<!DOCTYPE svg PUBLIC "-//W3C//DTD SVG 1.1//EN"
 "http://www.w3.org/Graphics/SVG/1.1/DTD/svg11.dtd">
<!-- Generated by graphviz version 2.42.4 (0)
 -->
<!-- Title: g Pages: 1 -->
<svg width="98pt" height="116pt"
 viewBox="0.00 0.00 98.00 116.00" xmlns="http://www.w3.org/2000/svg" xmlns:xlink="http://www.w3.org/1999/xlink">
<g id="graph0" class="graph" transform="scale(1 1) rotate(0) translate(4 112)">
<title>g</title>
<polygon fill="white" stroke="transparent" points="-4,4 -4,-112 94,-112 94,4 -4,4"/>
<!-- X -->
<g id="node1" class="node">
<title>X</title>
<polygon fill="none" stroke="black" points="36,-36 0,-36 0,0 36,0 36,-36"/>
<text text-anchor="start" x="13" y="-15.3" font-family="Times,serif" font-style="italic" font-size="14.00">X</text>
</g>
<!-- Y -->
<g id="node2" class="node">
<title>Y</title>
<polygon fill="none" stroke="black" points="90,-36 54,-36 54,0 90,0 90,-36"/>
<text text-anchor="start" x="67" y="-15.3" font-family="Times,serif" font-style="italic" font-size="14.00">Y</text>
</g>
<!-- X&#45;&gt;Y -->
<g id="edge1" class="edge">
<title>X&#45;&gt;Y</title>
<path fill="none" stroke="black" d="M36.14,-18C38.62,-18 41.1,-18 43.59,-18"/>
<polygon fill="black" stroke="black" points="43.79,-21.5 53.79,-18 43.79,-14.5 43.79,-21.5"/>
</g>
<!-- Z -->
<g id="node3" class="node">
<title>Z</title>
<polygon fill="none" stroke="black" points="63,-108 27,-108 27,-72 63,-72 63,-108"/>
<text text-anchor="start" x="40" y="-87.3" font-family="Times,serif" font-style="italic" font-size="14.00">Z</text>
</g>
<!-- Z&#45;&gt;X -->
<g id="edge2" class="edge">
<title>Z&#45;&gt;X</title>
<path fill="none" stroke="black" d="M38.33,-71.7C35.29,-63.81 31.62,-54.3 28.24,-45.55"/>
<polygon fill="black" stroke="black" points="31.46,-44.17 24.6,-36.1 24.93,-46.69 31.46,-44.17"/>
</g>
<!-- Z&#45;&gt;Y -->
<g id="edge3" class="edge">
<title>Z&#45;&gt;Y</title>
<path fill="none" stroke="black" d="M51.67,-71.7C54.71,-63.81 58.38,-54.3 61.76,-45.55"/>
<polygon fill="black" stroke="black" points="65.07,-46.69 65.4,-36.1 58.54,-44.17 65.07,-46.69"/>
</g>
</g>
</svg>