<?xml version="1.0" encoding="UTF-8" standalone="no"?>
<!DOCTYPE svg PUBLIC "-//W3C//DTD SVG 1.1//EN"
 "http://www.w3.org/Graphics/SVG/1.1/DTD/svg11.dtd">
<!-- Generated by graphviz version 2.42.4 (0)
 -->
<!-- Title: g Pages: 1 -->
<svg width="228pt" height="152pt"
 viewBox="0.00 0.00 228.30 152.00" xmlns="http://www.w3.org/2000/svg" xmlns:xlink="http://www.w3.org/1999/xlink">
<g id="graph0" class="graph" transform="scale(1 1) rotate(0) translate(4 148)">
<title>g</title>
<polygon fill="white" stroke="transparent" points="-4,4 -4,-148 224.3,-148 224.3,4 -4,4"/>
<!-- x1 -->
<g id="node1" class="node">
<title>x1</title>
<polygon fill="none" stroke="black" points="54,-144 0,-144 0,-108 54,-108 54,-144"/>
<text text-anchor="middle" x="27" y="-122.3" font-family="Times,serif" font-size="14.00">x1</text>
</g>
<!-- f1 -->
<g id="node7" class="node">
<title>f1</title>
<ellipse fill="none" stroke="black" cx="110.15" cy="-72" rx="20.3" ry="20.3"/>
<text text-anchor="middle" x="110.15" y="-68.3" font-family="Times,serif" font-size="14.00">f1</text>
</g>
<!-- x1&#45;&gt;f1 -->
<g id="edge1" class="edge">
<title>x1&#45;&gt;f1</title>
<path fill="none" stroke="black" d="M54.12,-108.62C63.91,-102.1 75,-94.73 84.63,-88.31"/>
<polygon fill="black" stroke="black" points="86.62,-91.2 93,-82.74 82.74,-85.37 86.62,-91.2"/>
</g>
<!-- x2 -->
<g id="node2" class="node">
<title>x2</title>
<polygon fill="none" stroke="black" points="54,-90 0,-90 0,-54 54,-54 54,-90"/>
<text text-anchor="middle" x="27" y="-68.3" font-family="Times,serif" font-size="14.00">x2</text>
</g>
<!-- x2&#45;&gt;f1 -->
<g id="edge2" class="edge">
<title>x2&#45;&gt;f1</title>
<path fill="none" stroke="black" d="M54.12,-72C62.27,-72 71.3,-72 79.66,-72"/>
<polygon fill="black" stroke="black" points="79.77,-75.5 89.77,-72 79.77,-68.5 79.77,-75.5"/>
</g>
<!-- x3 -->
<g id="node3" class="node">
<title>x3</title>
<polygon fill="none" stroke="black" points="54,-36 0,-36 0,0 54,0 54,-36"/>
<text text-anchor="middle" x="27" y="-14.3" font-family="Times,serif" font-size="14.00">x3</text>
</g>
<!-- x3&#45;&gt;f1 -->
<g id="edge3" class="edge">
<title>x3&#45;&gt;f1</title>
<path fill="none" stroke="black" d="M54.12,-35.38C63.91,-41.9 75,-49.27 84.63,-55.69"/>
<polygon fill="black" stroke="black" points="82.74,-58.63 93,-61.26 86.62,-52.8 82.74,-58.63"/>
</g>
<!-- x4 -->
<g id="node4" class="node">
<title>x4</title>
<polygon fill="none" stroke="black" points="220.3,-144 166.3,-144 166.3,-108 220.3,-108 220.3,-144"/>
<text text-anchor="middle" x="193.3" y="-122.3" font-family="Times,serif" font-size="14.00">x4</text>
</g>
<!-- x5 -->
<g id="node5" class="node">
<title>x5</title>
<polygon fill="none" stroke="black" points="220.3,-90 166.3,-90 166.3,-54 220.3,-54 220.3,-90"/>
<text text-anchor="middle" x="193.3" y="-68.3" font-family="Times,serif" font-size="14.00">x5</text>
</g>
<!-- x6 -->
<g id="node6" class="node">
<title>x6</title>
<polygon fill="none" stroke="black" points="220.3,-36 166.3,-36 166.3,0 220.3,0 220.3,-36"/>
<text text-anchor="middle" x="193.3" y="-14.3" font-family="Times,serif" font-size="14.00">x6</text>
</g>
<!-- f1&#45;&gt;x4 -->
<g id="edge4" class="edge">
<title>f1&#45;&gt;x4</title>
<path fill="none" stroke="black" d="M127.57,-82.93C136.18,-88.66 147.07,-95.91 157.46,-102.82"/>
<polygon fill="black" stroke="black" points="155.73,-105.87 166,-108.5 159.61,-100.04 155.73,-105.87"/>
</g>
<!-- f1&#45;&gt;x5 -->
<g id="edge5" class="edge">
<title>f1&#45;&gt;x5</title>
<path fill="none" stroke="black" d="M130.38,-72C138.06,-72 147.17,-72 156,-72"/>
<polygon fill="black" stroke="black" points="156.14,-75.5 166.14,-72 156.14,-68.5 156.14,-75.5"/>
</g>
<!-- f1&#45;&gt;x6 -->
<g id="edge6" class="edge">
<title>f1&#45;&gt;x6</title>
<path fill="none" stroke="black" d="M127.57,-61.07C136.18,-55.34 147.07,-48.09 157.46,-41.18"/>
<polygon fill="black" stroke="black" points="159.61,-43.96 166,-35.5 155.73,-38.13 159.61,-43.96"/>
</g>
</g>
</svg>