<?xml version="1.0" encoding="UTF-8" standalone="no"?>
<!DOCTYPE svg PUBLIC "-//W3C//DTD SVG 1.1//EN"
 "http://www.w3.org/Graphics/SVG/1.1/DTD/svg11.dtd">
<!-- Generated by graphviz version 2.43.0 (0)
 -->
<!-- Title: %3 Pages: 1 -->
<svg width="493pt" height="549pt"
 viewBox="0.00 0.00 493.00 548.91" xmlns="http://www.w3.org/2000/svg" xmlns:xlink="http://www.w3.org/1999/xlink">
<g id="graph0" class="graph" transform="scale(1 1) rotate(0) translate(4 544.91)">
<title>%3</title>
<polygon fill="white" stroke="transparent" points="-4,4 -4,-544.91 489,-544.91 489,4 -4,4"/>
<g id="clust1" class="cluster">
<title>clusterobs_id (20000)</title>
<path fill="none" stroke="black" d="M212,-8C212,-8 342,-8 342,-8 348,-8 354,-14 354,-20 354,-20 354,-198.95 354,-198.95 354,-204.95 348,-210.95 342,-210.95 342,-210.95 212,-210.95 212,-210.95 206,-210.95 200,-204.95 200,-198.95 200,-198.95 200,-20 200,-20 200,-14 206,-8 212,-8"/>
<text text-anchor="middle" x="293" y="-15.8" font-family="Times,serif" font-size="14.00">obs_id (20000)</text>
</g>
<g id="clust2" class="cluster">
<title>clusteruser (1000)</title>
<path fill="none" stroke="black" d="M375,-418.95C375,-418.95 465,-418.95 465,-418.95 471,-418.95 477,-424.95 477,-430.95 477,-430.95 477,-520.91 477,-520.91 477,-526.91 471,-532.91 465,-532.91 465,-532.91 375,-532.91 375,-532.91 369,-532.91 363,-526.91 363,-520.91 363,-520.91 363,-430.95 363,-430.95 363,-424.95 369,-418.95 375,-418.95"/>
<text text-anchor="middle" x="427.5" y="-426.75" font-family="Times,serif" font-size="14.00">user (1000)</text>
</g>
<g id="clust3" class="cluster">
<title>clusteritem (20)</title>
<path fill="none" stroke="black" d="M219,-418.95C219,-418.95 343,-418.95 343,-418.95 349,-418.95 355,-424.95 355,-430.95 355,-430.95 355,-520.91 355,-520.91 355,-526.91 349,-532.91 343,-532.91 343,-532.91 219,-532.91 219,-532.91 213,-532.91 207,-526.91 207,-520.91 207,-520.91 207,-430.95 207,-430.95 207,-424.95 213,-418.95 219,-418.95"/>
<text text-anchor="middle" x="314" y="-426.75" font-family="Times,serif" font-size="14.00">item (20)</text>
</g>
<g id="clust4" class="cluster">
<title>clusteritem (20) x threshold (3)</title>
<path fill="none" stroke="black" d="M20,-418.95C20,-418.95 187,-418.95 187,-418.95 193,-418.95 199,-424.95 199,-430.95 199,-430.95 199,-520.91 199,-520.91 199,-526.91 193,-532.91 187,-532.91 187,-532.91 20,-532.91 20,-532.91 14,-532.91 8,-526.91 8,-520.91 8,-520.91 8,-430.95 8,-430.95 8,-424.95 14,-418.95 20,-418.95"/>
<text text-anchor="middle" x="103.5" y="-426.75" font-family="Times,serif" font-size="14.00">item (20) x threshold (3)</text>
</g>
<g id="clust5" class="cluster">
<title>cluster20 x 3</title>
<path fill="none" stroke="black" d="M155,-318.95C155,-318.95 261,-318.95 261,-318.95 267,-318.95 273,-324.95 273,-330.95 273,-330.95 273,-398.95 273,-398.95 273,-404.95 267,-410.95 261,-410.95 261,-410.95 155,-410.95 155,-410.95 149,-410.95 143,-404.95 143,-398.95 143,-398.95 143,-330.95 143,-330.95 143,-324.95 149,-318.95 155,-318.95"/>
<text text-anchor="middle" x="242.5" y="-326.75" font-family="Times,serif" font-size="14.00">20 x 3</text>
</g>
<g id="clust6" class="cluster">
<title>cluster20000</title>
<path fill="none" stroke="black" d="M293,-318.95C293,-318.95 399,-318.95 399,-318.95 405,-318.95 411,-324.95 411,-330.95 411,-330.95 411,-398.95 411,-398.95 411,-404.95 405,-410.95 399,-410.95 399,-410.95 293,-410.95 293,-410.95 287,-410.95 281,-404.95 281,-398.95 281,-398.95 281,-330.95 281,-330.95 281,-324.95 287,-318.95 293,-318.95"/>
<text text-anchor="middle" x="380" y="-326.75" font-family="Times,serif" font-size="14.00">20000</text>
</g>
<g id="clust7" class="cluster">
<title>cluster20000 x 4</title>
<path fill="none" stroke="black" d="M224,-218.95C224,-218.95 330,-218.95 330,-218.95 336,-218.95 342,-224.95 342,-230.95 342,-230.95 342,-298.95 342,-298.95 342,-304.95 336,-310.95 330,-310.95 330,-310.95 224,-310.95 224,-310.95 218,-310.95 212,-304.95 212,-298.95 212,-298.95 212,-230.95 212,-230.95 212,-224.95 218,-218.95 224,-218.95"/>
<text text-anchor="middle" x="298" y="-226.75" font-family="Times,serif" font-size="14.00">20000 x 4</text>
</g>
<!-- responses -->
<g id="node1" class="node">
<title>responses</title>
<path fill="lightgrey" stroke="black" d="M309.5,-92C309.5,-92 244.5,-92 244.5,-92 238.5,-92 232.5,-86 232.5,-80 232.5,-80 232.5,-51 232.5,-51 232.5,-45 238.5,-39 244.5,-39 244.5,-39 309.5,-39 309.5,-39 315.5,-39 321.5,-45 321.5,-51 321.5,-51 321.5,-80 321.5,-80 321.5,-86 315.5,-92 309.5,-92"/>
<text text-anchor="middle" x="277" y="-76.8" font-family="Times,serif" font-size="14.00">responses</text>
<text text-anchor="middle" x="277" y="-61.8" font-family="Times,serif" font-size="14.00">~</text>
<text text-anchor="middle" x="277" y="-46.8" font-family="Times,serif" font-size="14.00">Data</text>
</g>
<!-- obs -->
<g id="node2" class="node">
<title>obs</title>
<ellipse fill="lightgrey" stroke="black" cx="277" cy="-165.48" rx="69.09" ry="37.45"/>
<text text-anchor="middle" x="277" y="-176.78" font-family="Times,serif" font-size="14.00">obs</text>
<text text-anchor="middle" x="277" y="-161.78" font-family="Times,serif" font-size="14.00">~</text>
<text text-anchor="middle" x="277" y="-146.78" font-family="Times,serif" font-size="14.00">Categorical</text>
</g>
<!-- obs&#45;&gt;responses -->
<g id="edge1" class="edge">
<title>obs&#45;&gt;responses</title>
<path fill="none" stroke="black" d="M277,-127.99C277,-119.58 277,-110.63 277,-102.25"/>
<polygon fill="black" stroke="black" points="280.5,-102.01 277,-92.01 273.5,-102.01 280.5,-102.01"/>
</g>
<!-- theta -->
<g id="node3" class="node">
<title>theta</title>
<ellipse fill="none" stroke="black" cx="420" cy="-487.43" rx="49.49" ry="37.45"/>
<text text-anchor="middle" x="420" y="-498.73" font-family="Times,serif" font-size="14.00">theta</text>
<text text-anchor="middle" x="420" y="-483.73" font-family="Times,serif" font-size="14.00">~</text>
<text text-anchor="middle" x="420" y="-468.73" font-family="Times,serif" font-size="14.00">Normal</text>
</g>
<!-- eta -->
<g id="node7" class="node">
<title>eta</title>
<polygon fill="none" stroke="black" points="403,-402.95 289,-402.95 289,-349.95 403,-349.95 403,-402.95"/>
<text text-anchor="middle" x="346" y="-387.75" font-family="Times,serif" font-size="14.00">eta</text>
<text text-anchor="middle" x="346" y="-372.75" font-family="Times,serif" font-size="14.00">~</text>
<text text-anchor="middle" x="346" y="-357.75" font-family="Times,serif" font-size="14.00">Deterministic</text>
</g>
<!-- theta&#45;&gt;eta -->
<g id="edge5" class="edge">
<title>theta&#45;&gt;eta</title>
<path fill="none" stroke="black" d="M397.8,-453.73C388.79,-440.46 378.38,-425.13 369.26,-411.71"/>
<polygon fill="black" stroke="black" points="372,-409.51 363.49,-403.2 366.21,-413.44 372,-409.51"/>
</g>
<!-- a -->
<g id="node4" class="node">
<title>a</title>
<ellipse fill="none" stroke="black" cx="281" cy="-487.43" rx="65.52" ry="37.45"/>
<text text-anchor="middle" x="281" y="-498.73" font-family="Times,serif" font-size="14.00">a</text>
<text text-anchor="middle" x="281" y="-483.73" font-family="Times,serif" font-size="14.00">~</text>
<text text-anchor="middle" x="281" y="-468.73" font-family="Times,serif" font-size="14.00">Lognormal</text>
</g>
<!-- cutpoints -->
<g id="node6" class="node">
<title>cutpoints</title>
<polygon fill="none" stroke="black" points="265,-402.95 151,-402.95 151,-349.95 265,-349.95 265,-402.95"/>
<text text-anchor="middle" x="208" y="-387.75" font-family="Times,serif" font-size="14.00">cutpoints</text>
<text text-anchor="middle" x="208" y="-372.75" font-family="Times,serif" font-size="14.00">~</text>
<text text-anchor="middle" x="208" y="-357.75" font-family="Times,serif" font-size="14.00">Deterministic</text>
</g>
<!-- a&#45;&gt;cutpoints -->
<g id="edge2" class="edge">
<title>a&#45;&gt;cutpoints</title>
<path fill="none" stroke="black" d="M258.1,-452.25C249.47,-439.37 239.66,-424.72 231.02,-411.82"/>
<polygon fill="black" stroke="black" points="233.73,-409.57 225.25,-403.21 227.91,-413.47 233.73,-409.57"/>
</g>
<!-- a&#45;&gt;eta -->
<g id="edge4" class="edge">
<title>a&#45;&gt;eta</title>
<path fill="none" stroke="black" d="M301.75,-451.65C309.28,-439.02 317.79,-424.75 325.32,-412.13"/>
<polygon fill="black" stroke="black" points="328.48,-413.66 330.6,-403.28 322.47,-410.07 328.48,-413.66"/>
</g>
<!-- b -->
<g id="node5" class="node">
<title>b</title>
<ellipse fill="none" stroke="black" cx="142" cy="-487.43" rx="49.49" ry="37.45"/>
<text text-anchor="middle" x="142" y="-498.73" font-family="Times,serif" font-size="14.00">b</text>
<text text-anchor="middle" x="142" y="-483.73" font-family="Times,serif" font-size="14.00">~</text>
<text text-anchor="middle" x="142" y="-468.73" font-family="Times,serif" font-size="14.00">Normal</text>
</g>
<!-- b&#45;&gt;cutpoints -->
<g id="edge3" class="edge">
<title>b&#45;&gt;cutpoints</title>
<path fill="none" stroke="black" d="M162.16,-453.14C170.05,-440.12 179.09,-425.19 187.05,-412.05"/>
<polygon fill="black" stroke="black" points="190.17,-413.65 192.36,-403.28 184.18,-410.02 190.17,-413.65"/>
</g>
<!-- obs_probs -->
<g id="node8" class="node">
<title>obs_probs</title>
<polygon fill="none" stroke="black" points="334,-302.95 220,-302.95 220,-249.95 334,-249.95 334,-302.95"/>
<text text-anchor="middle" x="277" y="-287.75" font-family="Times,serif" font-size="14.00">obs_probs</text>
<text text-anchor="middle" x="277" y="-272.75" font-family="Times,serif" font-size="14.00">~</text>
<text text-anchor="middle" x="277" y="-257.75" font-family="Times,serif" font-size="14.00">Deterministic</text>
</g>
<!-- cutpoints&#45;&gt;obs_probs -->
<g id="edge7" class="edge">
<title>cutpoints&#45;&gt;obs_probs</title>
<path fill="none" stroke="black" d="M226.13,-349.7C234.37,-338 244.23,-323.99 253.07,-311.44"/>
<polygon fill="black" stroke="black" points="256.1,-313.22 258.99,-303.03 250.37,-309.19 256.1,-313.22"/>
</g>
<!-- eta&#45;&gt;obs_probs -->
<g id="edge6" class="edge">
<title>eta&#45;&gt;obs_probs</title>
<path fill="none" stroke="black" d="M327.87,-349.7C319.63,-338 309.77,-323.99 300.93,-311.44"/>
<polygon fill="black" stroke="black" points="303.63,-309.19 295.01,-303.03 297.9,-313.22 303.63,-309.19"/>
</g>
<!-- obs_probs&#45;&gt;obs -->
<g id="edge8" class="edge">
<title>obs_probs&#45;&gt;obs</title>
<path fill="none" stroke="black" d="M277,-249.9C277,-238.99 277,-225.9 277,-213.36"/>
<polygon fill="black" stroke="black" points="280.5,-213.01 277,-203.01 273.5,-213.01 280.5,-213.01"/>
</g>
</g>
</svg>