<?xml version="1.0" encoding="UTF-8" standalone="no"?>
<!DOCTYPE svg PUBLIC "-//W3C//DTD SVG 1.1//EN"
 "http://www.w3.org/Graphics/SVG/1.1/DTD/svg11.dtd">
<!-- Generated by graphviz version 2.43.0 (0)
 -->
<!-- Title: G Pages: 1 -->
<svg width="645pt" height="161pt"
 viewBox="0.00 0.00 645.00 161.00" xmlns="http://www.w3.org/2000/svg" xmlns:xlink="http://www.w3.org/1999/xlink">
<g id="graph0" class="graph" transform="scale(1 1) rotate(0) translate(4 157)">
<title>G</title>
<polygon fill="white" stroke="transparent" points="-4,4 -4,-157 641,-157 641,4 -4,4"/>
<!-- GraphicalModel -->
<g id="node1" class="node">
<title>GraphicalModel</title>
<polygon fill="none" stroke="black" points="145,-76.5 0,-76.5 0,-40.5 145,-40.5 145,-76.5"/>
<text text-anchor="middle" x="72.5" y="-54.8" font-family="Helvetica,sans-Serif" font-size="14.00">グラフィカルモデル</text>
</g>
<!-- Directed -->
<g id="node2" class="node">
<title>Directed</title>
<polygon fill="none" stroke="black" points="385,-109.5 212,-109.5 212,-71.5 385,-71.5 385,-109.5"/>
<text text-anchor="middle" x="298.5" y="-94.3" font-family="Helvetica,sans-Serif" font-size="14.00">方向あり</text>
<text text-anchor="middle" x="298.5" y="-79.3" font-family="Helvetica,sans-Serif" font-size="14.00">ベイジアンネットワーク</text>
</g>
<!-- GraphicalModel&#45;&gt;Directed -->
<g id="edge1" class="edge">
<title>GraphicalModel&#45;&gt;Directed</title>
<path fill="none" stroke="black" d="M145.3,-68.76C163.2,-71.31 182.67,-74.1 201.53,-76.79"/>
<polygon fill="black" stroke="black" points="201.23,-80.28 211.63,-78.23 202.22,-73.35 201.23,-80.28"/>
</g>
<!-- Undirected -->
<g id="node5" class="node">
<title>Undirected</title>
<polygon fill="none" stroke="black" points="416,-53 181,-53 181,0 416,0 416,-53"/>
<text text-anchor="middle" x="298.5" y="-37.8" font-family="Helvetica,sans-Serif" font-size="14.00">方向なし</text>
<text text-anchor="middle" x="298.5" y="-22.8" font-family="Helvetica,sans-Serif" font-size="14.00">ボルツマンマシン、</text>
<text text-anchor="middle" x="298.5" y="-7.8" font-family="Helvetica,sans-Serif" font-size="14.00">マルコフランダムフィールド など</text>
</g>
<!-- GraphicalModel&#45;&gt;Undirected -->
<g id="edge2" class="edge">
<title>GraphicalModel&#45;&gt;Undirected</title>
<path fill="none" stroke="black" d="M145.3,-48.24C153.49,-47.07 162,-45.86 170.64,-44.62"/>
<polygon fill="black" stroke="black" points="171.41,-48.05 180.82,-43.17 170.42,-41.12 171.41,-48.05"/>
</g>
<!-- Static -->
<g id="node3" class="node">
<title>Static</title>
<polygon fill="none" stroke="black" points="637,-153 452,-153 452,-100 637,-100 637,-153"/>
<text text-anchor="middle" x="544.5" y="-137.8" font-family="Helvetica,sans-Serif" font-size="14.00">静的（時系列なし）</text>
<text text-anchor="middle" x="544.5" y="-122.8" font-family="Helvetica,sans-Serif" font-size="14.00">PCアルゴリズム、</text>
<text text-anchor="middle" x="544.5" y="-107.8" font-family="Helvetica,sans-Serif" font-size="14.00">NOTEARS、LiNGAM など</text>
</g>
<!-- Directed&#45;&gt;Static -->
<g id="edge3" class="edge">
<title>Directed&#45;&gt;Static</title>
<path fill="none" stroke="black" d="M385.18,-103.14C403.46,-105.84 422.93,-108.71 441.74,-111.49"/>
<polygon fill="black" stroke="black" points="441.4,-114.97 451.8,-112.97 442.42,-108.05 441.4,-114.97"/>
</g>
<!-- Dynamic -->
<g id="node4" class="node">
<title>Dynamic</title>
<polygon fill="none" stroke="black" points="634,-82 455,-82 455,-29 634,-29 634,-82"/>
<text text-anchor="middle" x="544.5" y="-66.8" font-family="Helvetica,sans-Serif" font-size="14.00">動的（時系列あり）</text>
<text text-anchor="middle" x="544.5" y="-51.8" font-family="Helvetica,sans-Serif" font-size="14.00">PCMCI、DYN OTEARS、</text>
<text text-anchor="middle" x="544.5" y="-36.8" font-family="Helvetica,sans-Serif" font-size="14.00">VAR&#45;LiNGAM など</text>
</g>
<!-- Directed&#45;&gt;Dynamic -->
<g id="edge4" class="edge">
<title>Directed&#45;&gt;Dynamic</title>
<path fill="none" stroke="black" d="M385.18,-78.21C404.45,-75.45 425.04,-72.49 444.79,-69.66"/>
<polygon fill="black" stroke="black" points="445.32,-73.12 454.72,-68.24 444.32,-66.19 445.32,-73.12"/>
</g>
</g>
</svg>