<?xml version="1.0" encoding="UTF-8" standalone="no"?>
<!DOCTYPE svg PUBLIC "-//W3C//DTD SVG 1.1//EN"
 "http://www.w3.org/Graphics/SVG/1.1/DTD/svg11.dtd">
<!-- Generated by graphviz version 2.43.0 (0)
 -->
<!-- Title: g Pages: 1 -->
<svg width="244pt" height="116pt"
 viewBox="0.00 0.00 244.00 116.00" xmlns="http://www.w3.org/2000/svg" xmlns:xlink="http://www.w3.org/1999/xlink">
<g id="graph0" class="graph" transform="scale(1 1) rotate(0) translate(4 112)">
<title>g</title>
<polygon fill="white" stroke="transparent" points="-4,4 -4,-112 240,-112 240,4 -4,4"/>
<!-- v1 -->
<g id="node1" class="node">
<title>v1</title>
<polygon fill="none" stroke="black" points="54,-108 0,-108 0,-72 54,-72 54,-108"/>
<text text-anchor="middle" x="27" y="-86.3" font-family="Times,serif" font-size="14.00">v1</text>
</g>
<!-- v3 -->
<g id="node2" class="node">
<title>v3</title>
<polygon fill="none" stroke="black" points="145,-108 91,-108 91,-72 145,-72 145,-108"/>
<text text-anchor="middle" x="118" y="-86.3" font-family="Times,serif" font-size="14.00">v3</text>
</g>
<!-- v1&#45;&gt;v3 -->
<g id="edge1" class="edge">
<title>v1&#45;&gt;v3</title>
<path fill="none" stroke="black" d="M54.22,-90C62.55,-90 71.91,-90 80.82,-90"/>
<polygon fill="black" stroke="black" points="80.97,-93.5 90.97,-90 80.97,-86.5 80.97,-93.5"/>
</g>
<!-- v2 -->
<g id="node3" class="node">
<title>v2</title>
<polygon fill="none" stroke="black" points="54,-36 0,-36 0,0 54,0 54,-36"/>
<text text-anchor="middle" x="27" y="-14.3" font-family="Times,serif" font-size="14.00">v2</text>
</g>
<!-- v1&#45;&gt;v2 -->
<g id="edge5" class="edge">
<title>v1&#45;&gt;v2</title>
<path fill="none" stroke="black" stroke-dasharray="5,2" d="M27,-61.31C27,-56.41 27,-51.32 27,-46.43"/>
<polygon fill="black" stroke="black" points="23.5,-61.59 27,-71.59 30.5,-61.59 23.5,-61.59"/>
<polygon fill="black" stroke="black" points="30.5,-46.17 27,-36.17 23.5,-46.17 30.5,-46.17"/>
<text text-anchor="middle" x="16.5" y="-50.3" font-family="Times,serif" font-size="14.00"> </text>
</g>
<!-- v4 -->
<g id="node4" class="node">
<title>v4</title>
<polygon fill="none" stroke="black" points="145,-36 91,-36 91,0 145,0 145,-36"/>
<text text-anchor="middle" x="118" y="-14.3" font-family="Times,serif" font-size="14.00">v4</text>
</g>
<!-- v3&#45;&gt;v4 -->
<g id="edge3" class="edge">
<title>v3&#45;&gt;v4</title>
<path fill="none" stroke="black" d="M118,-71.95C118,-63.41 118,-54.86 118,-46.31"/>
<polygon fill="black" stroke="black" points="121.5,-46.28 118,-36.28 114.5,-46.28 121.5,-46.28"/>
</g>
<!-- v2&#45;&gt;v3 -->
<g id="edge2" class="edge">
<title>v2&#45;&gt;v3</title>
<path fill="none" stroke="black" d="M50.46,-36.17C61.42,-45.04 74.77,-55.84 86.63,-65.43"/>
<polygon fill="black" stroke="black" points="84.57,-68.27 94.55,-71.84 88.98,-62.83 84.57,-68.27"/>
</g>
<!-- v2&#45;&gt;v4 -->
<g id="edge4" class="edge">
<title>v2&#45;&gt;v4</title>
<path fill="none" stroke="black" d="M54.22,-18C62.55,-18 71.91,-18 80.82,-18"/>
<polygon fill="black" stroke="black" points="80.97,-21.5 90.97,-18 80.97,-14.5 80.97,-21.5"/>
</g>
<!-- e3 -->
<g id="node5" class="node">
<title>e3</title>
<ellipse fill="none" stroke="black" cx="209" cy="-90" rx="27" ry="18"/>
<text text-anchor="middle" x="209" y="-86.3" font-family="Times,serif" font-size="14.00">e3</text>
</g>
<!-- e3&#45;&gt;v3 -->
<g id="edge6" class="edge">
<title>e3&#45;&gt;v3</title>
<path fill="none" stroke="black" d="M181.97,-90C173.65,-90 164.29,-90 155.38,-90"/>
<polygon fill="black" stroke="black" points="155.22,-86.5 145.22,-90 155.22,-93.5 155.22,-86.5"/>
</g>
<!-- e4 -->
<g id="node6" class="node">
<title>e4</title>
<ellipse fill="none" stroke="black" cx="209" cy="-18" rx="27" ry="18"/>
<text text-anchor="middle" x="209" y="-14.3" font-family="Times,serif" font-size="14.00">e4</text>
</g>
<!-- e4&#45;&gt;v4 -->
<g id="edge7" class="edge">
<title>e4&#45;&gt;v4</title>
<path fill="none" stroke="black" d="M181.97,-18C173.65,-18 164.29,-18 155.38,-18"/>
<polygon fill="black" stroke="black" points="155.22,-14.5 145.22,-18 155.22,-21.5 155.22,-14.5"/>
</g>
</g>
</svg>