<?xml version="1.0" encoding="UTF-8" standalone="no"?>
<!DOCTYPE svg PUBLIC "-//W3C//DTD SVG 1.1//EN"
 "http://www.w3.org/Graphics/SVG/1.1/DTD/svg11.dtd">
<!-- Generated by graphviz version 2.43.0 (0)
 -->
<!-- Title: %3 Pages: 1 -->
<svg width="496pt" height="233pt"
 viewBox="0.00 0.00 496.09 232.91" xmlns="http://www.w3.org/2000/svg" xmlns:xlink="http://www.w3.org/1999/xlink">
<g id="graph0" class="graph" transform="scale(1 1) rotate(0) translate(4 228.91)">
<title>%3</title>
<polygon fill="white" stroke="transparent" points="-4,4 -4,-228.91 492.09,-228.91 492.09,4 -4,4"/>
<g id="clust1" class="cluster">
<title>cluster1000</title>
<path fill="none" stroke="black" d="M217.59,-8C217.59,-8 307.59,-8 307.59,-8 313.59,-8 319.59,-14 319.59,-20 319.59,-20 319.59,-109.95 319.59,-109.95 319.59,-115.95 313.59,-121.95 307.59,-121.95 307.59,-121.95 217.59,-121.95 217.59,-121.95 211.59,-121.95 205.59,-115.95 205.59,-109.95 205.59,-109.95 205.59,-20 205.59,-20 205.59,-14 211.59,-8 217.59,-8"/>
<text text-anchor="middle" x="293.09" y="-15.8" font-family="Times,serif" font-size="14.00">1000</text>
</g>
<!-- sigma -->
<g id="node1" class="node">
<title>sigma</title>
<ellipse fill="none" stroke="black" cx="68.59" cy="-187.43" rx="68.68" ry="37.45"/>
<text text-anchor="middle" x="68.59" y="-198.73" font-family="Times,serif" font-size="14.00">sigma</text>
<text text-anchor="middle" x="68.59" y="-183.73" font-family="Times,serif" font-size="14.00">~</text>
<text text-anchor="middle" x="68.59" y="-168.73" font-family="Times,serif" font-size="14.00">Halfnormal</text>
</g>
<!-- y_obs -->
<g id="node5" class="node">
<title>y_obs</title>
<ellipse fill="lightgrey" stroke="black" cx="262.59" cy="-76.48" rx="49.49" ry="37.45"/>
<text text-anchor="middle" x="262.59" y="-87.78" font-family="Times,serif" font-size="14.00">y_obs</text>
<text text-anchor="middle" x="262.59" y="-72.78" font-family="Times,serif" font-size="14.00">~</text>
<text text-anchor="middle" x="262.59" y="-57.78" font-family="Times,serif" font-size="14.00">Normal</text>
</g>
<!-- sigma&#45;&gt;y_obs -->
<g id="edge1" class="edge">
<title>sigma&#45;&gt;y_obs</title>
<path fill="none" stroke="black" d="M115.55,-160.06C145.43,-143.28 184.03,-121.6 214.18,-104.66"/>
<polygon fill="black" stroke="black" points="216.25,-107.52 223.25,-99.57 212.82,-101.42 216.25,-107.52"/>
</g>
<!-- beta2 -->
<g id="node2" class="node">
<title>beta2</title>
<ellipse fill="none" stroke="black" cx="204.59" cy="-187.43" rx="49.49" ry="37.45"/>
<text text-anchor="middle" x="204.59" y="-198.73" font-family="Times,serif" font-size="14.00">beta2</text>
<text text-anchor="middle" x="204.59" y="-183.73" font-family="Times,serif" font-size="14.00">~</text>
<text text-anchor="middle" x="204.59" y="-168.73" font-family="Times,serif" font-size="14.00">Normal</text>
</g>
<!-- beta2&#45;&gt;y_obs -->
<g id="edge2" class="edge">
<title>beta2&#45;&gt;y_obs</title>
<path fill="none" stroke="black" d="M222.78,-152.26C228.13,-142.22 234.04,-131.1 239.64,-120.58"/>
<polygon fill="black" stroke="black" points="242.85,-122 244.46,-111.53 236.67,-118.71 242.85,-122"/>
</g>
<!-- beta1 -->
<g id="node3" class="node">
<title>beta1</title>
<ellipse fill="none" stroke="black" cx="321.59" cy="-187.43" rx="49.49" ry="37.45"/>
<text text-anchor="middle" x="321.59" y="-198.73" font-family="Times,serif" font-size="14.00">beta1</text>
<text text-anchor="middle" x="321.59" y="-183.73" font-family="Times,serif" font-size="14.00">~</text>
<text text-anchor="middle" x="321.59" y="-168.73" font-family="Times,serif" font-size="14.00">Normal</text>
</g>
<!-- beta1&#45;&gt;y_obs -->
<g id="edge3" class="edge">
<title>beta1&#45;&gt;y_obs</title>
<path fill="none" stroke="black" d="M303.24,-152.55C297.7,-142.31 291.53,-130.92 285.71,-120.17"/>
<polygon fill="black" stroke="black" points="288.76,-118.46 280.92,-111.33 282.61,-121.79 288.76,-118.46"/>
</g>
<!-- beta0 -->
<g id="node4" class="node">
<title>beta0</title>
<ellipse fill="none" stroke="black" cx="438.59" cy="-187.43" rx="49.49" ry="37.45"/>
<text text-anchor="middle" x="438.59" y="-198.73" font-family="Times,serif" font-size="14.00">beta0</text>
<text text-anchor="middle" x="438.59" y="-183.73" font-family="Times,serif" font-size="14.00">~</text>
<text text-anchor="middle" x="438.59" y="-168.73" font-family="Times,serif" font-size="14.00">Normal</text>
</g>
<!-- beta0&#45;&gt;y_obs -->
<g id="edge4" class="edge">
<title>beta0&#45;&gt;y_obs</title>
<path fill="none" stroke="black" d="M400.83,-163.06C373.92,-146.4 337.58,-123.9 308.91,-106.15"/>
<polygon fill="black" stroke="black" points="310.63,-103.1 300.28,-100.81 306.94,-109.05 310.63,-103.1"/>
</g>
</g>
</svg>