<?xml version="1.0" encoding="UTF-8" standalone="no"?>
<!DOCTYPE svg PUBLIC "-//W3C//DTD SVG 1.1//EN"
 "http://www.w3.org/Graphics/SVG/1.1/DTD/svg11.dtd">
<!-- Generated by graphviz version 2.43.0 (0)
 -->
<!-- Title: %3 Pages: 1 -->
<svg width="500pt" height="233pt"
 viewBox="0.00 0.00 499.99 232.91" xmlns="http://www.w3.org/2000/svg" xmlns:xlink="http://www.w3.org/1999/xlink">
<g id="graph0" class="graph" transform="scale(1 1) rotate(0) translate(4 228.91)">
<title>%3</title>
<polygon fill="white" stroke="transparent" points="-4,4 -4,-228.91 495.99,-228.91 495.99,4 -4,4"/>
<g id="clust1" class="cluster">
<title>cluster1000</title>
<path fill="none" stroke="black" d="M190.5,-8C190.5,-8 280.5,-8 280.5,-8 286.5,-8 292.5,-14 292.5,-20 292.5,-20 292.5,-109.95 292.5,-109.95 292.5,-115.95 286.5,-121.95 280.5,-121.95 280.5,-121.95 190.5,-121.95 190.5,-121.95 184.5,-121.95 178.5,-115.95 178.5,-109.95 178.5,-109.95 178.5,-20 178.5,-20 178.5,-14 184.5,-8 190.5,-8"/>
<text text-anchor="middle" x="266" y="-15.8" font-family="Times,serif" font-size="14.00">1000</text>
</g>
<!-- beta2 -->
<g id="node1" class="node">
<title>beta2</title>
<ellipse fill="none" stroke="black" cx="49.5" cy="-187.43" rx="49.49" ry="37.45"/>
<text text-anchor="middle" x="49.5" y="-198.73" font-family="Times,serif" font-size="14.00">beta2</text>
<text text-anchor="middle" x="49.5" y="-183.73" font-family="Times,serif" font-size="14.00">~</text>
<text text-anchor="middle" x="49.5" y="-168.73" font-family="Times,serif" font-size="14.00">Normal</text>
</g>
<!-- y_obs -->
<g id="node5" class="node">
<title>y_obs</title>
<ellipse fill="lightgrey" stroke="black" cx="235.5" cy="-76.48" rx="49.49" ry="37.45"/>
<text text-anchor="middle" x="235.5" y="-87.78" font-family="Times,serif" font-size="14.00">y_obs</text>
<text text-anchor="middle" x="235.5" y="-72.78" font-family="Times,serif" font-size="14.00">~</text>
<text text-anchor="middle" x="235.5" y="-57.78" font-family="Times,serif" font-size="14.00">Normal</text>
</g>
<!-- beta2&#45;&gt;y_obs -->
<g id="edge1" class="edge">
<title>beta2&#45;&gt;y_obs</title>
<path fill="none" stroke="black" d="M87.15,-162.88C94.21,-158.54 101.56,-154.08 108.5,-149.95 134.33,-134.6 163.43,-117.95 187.25,-104.48"/>
<polygon fill="black" stroke="black" points="189.11,-107.45 196.1,-99.49 185.67,-101.35 189.11,-107.45"/>
</g>
<!-- beta1 -->
<g id="node2" class="node">
<title>beta1</title>
<ellipse fill="none" stroke="black" cx="166.5" cy="-187.43" rx="49.49" ry="37.45"/>
<text text-anchor="middle" x="166.5" y="-198.73" font-family="Times,serif" font-size="14.00">beta1</text>
<text text-anchor="middle" x="166.5" y="-183.73" font-family="Times,serif" font-size="14.00">~</text>
<text text-anchor="middle" x="166.5" y="-168.73" font-family="Times,serif" font-size="14.00">Normal</text>
</g>
<!-- beta1&#45;&gt;y_obs -->
<g id="edge3" class="edge">
<title>beta1&#45;&gt;y_obs</title>
<path fill="none" stroke="black" d="M187.39,-153.44C194.21,-142.66 201.89,-130.55 209.07,-119.21"/>
<polygon fill="black" stroke="black" points="212.05,-121.05 214.44,-110.73 206.13,-117.3 212.05,-121.05"/>
</g>
<!-- sigma -->
<g id="node3" class="node">
<title>sigma</title>
<ellipse fill="none" stroke="black" cx="304.5" cy="-187.43" rx="70.92" ry="37.45"/>
<text text-anchor="middle" x="304.5" y="-198.73" font-family="Times,serif" font-size="14.00">sigma</text>
<text text-anchor="middle" x="304.5" y="-183.73" font-family="Times,serif" font-size="14.00">~</text>
<text text-anchor="middle" x="304.5" y="-168.73" font-family="Times,serif" font-size="14.00">HalfNormal</text>
</g>
<!-- sigma&#45;&gt;y_obs -->
<g id="edge2" class="edge">
<title>sigma&#45;&gt;y_obs</title>
<path fill="none" stroke="black" d="M282.48,-151.66C276.01,-141.44 268.86,-130.15 262.13,-119.53"/>
<polygon fill="black" stroke="black" points="264.91,-117.38 256.6,-110.81 259,-121.13 264.91,-117.38"/>
</g>
<!-- beta0 -->
<g id="node4" class="node">
<title>beta0</title>
<ellipse fill="none" stroke="black" cx="442.5" cy="-187.43" rx="49.49" ry="37.45"/>
<text text-anchor="middle" x="442.5" y="-198.73" font-family="Times,serif" font-size="14.00">beta0</text>
<text text-anchor="middle" x="442.5" y="-183.73" font-family="Times,serif" font-size="14.00">~</text>
<text text-anchor="middle" x="442.5" y="-168.73" font-family="Times,serif" font-size="14.00">Normal</text>
</g>
<!-- beta0&#45;&gt;y_obs -->
<g id="edge4" class="edge">
<title>beta0&#45;&gt;y_obs</title>
<path fill="none" stroke="black" d="M405.42,-162.28C398.54,-158.04 391.36,-153.77 384.5,-149.95 352.62,-132.24 315.77,-114.3 286.69,-100.7"/>
<polygon fill="black" stroke="black" points="288.09,-97.48 277.54,-96.44 285.13,-103.83 288.09,-97.48"/>
</g>
</g>
</svg>