<?xml version="1.0" encoding="UTF-8" standalone="no"?>
<!DOCTYPE svg PUBLIC "-//W3C//DTD SVG 1.1//EN"
 "http://www.w3.org/Graphics/SVG/1.1/DTD/svg11.dtd">
<!-- Generated by graphviz version 2.43.0 (0)
 -->
<!-- Title: step2 Pages: 1 -->
<svg width="394pt" height="173pt"
 viewBox="0.00 0.00 394.00 172.99" xmlns="http://www.w3.org/2000/svg" xmlns:xlink="http://www.w3.org/1999/xlink">
<g id="graph0" class="graph" transform="scale(1 1) rotate(0) translate(4 168.99)">
<title>step2</title>
<polygon fill="white" stroke="transparent" points="-4,4 -4,-168.99 390,-168.99 390,4 -4,4"/>
<text text-anchor="middle" x="193" y="-149.79" font-family="Times,serif" font-size="14.00">Step 2: CI に基づくエッジ削除（Skeleton Discovery）</text>
<text text-anchor="middle" x="193" y="-134.79" font-family="Times,serif" font-size="14.00">例: X1 ⟂ X3 | {X2}</text>
<!-- X1 -->
<g id="node1" class="node">
<title>X1</title>
<ellipse fill="none" stroke="black" cx="161.5" cy="-104.24" rx="23" ry="23"/>
<text text-anchor="middle" x="161.5" y="-100.54" font-family="Times,serif" font-size="14.00">X1</text>
</g>
<!-- X2 -->
<g id="node2" class="node">
<title>X2</title>
<ellipse fill="none" stroke="black" cx="224.5" cy="-104.24" rx="23" ry="23"/>
<text text-anchor="middle" x="224.5" y="-100.54" font-family="Times,serif" font-size="14.00">X2</text>
</g>
<!-- X1&#45;&#45;X2 -->
<g id="edge1" class="edge">
<title>X1&#45;&#45;X2</title>
<path fill="none" stroke="black" d="M184.63,-104.24C190.24,-104.24 195.85,-104.24 201.45,-104.24"/>
</g>
<!-- X4 -->
<g id="node3" class="node">
<title>X4</title>
<ellipse fill="none" stroke="black" cx="224.5" cy="-22.75" rx="23" ry="23"/>
<text text-anchor="middle" x="224.5" y="-19.05" font-family="Times,serif" font-size="14.00">X4</text>
</g>
<!-- X1&#45;&#45;X4 -->
<g id="edge2" class="edge">
<title>X1&#45;&#45;X4</title>
<path fill="none" stroke="black" d="M175.17,-85.99C185.74,-72.66 200.3,-54.29 210.86,-40.96"/>
</g>
<!-- X2&#45;&#45;X4 -->
<g id="edge4" class="edge">
<title>X2&#45;&#45;X4</title>
<path fill="none" stroke="black" d="M224.5,-81.1C224.5,-69.98 224.5,-56.56 224.5,-45.5"/>
</g>
<!-- X3 -->
<g id="node4" class="node">
<title>X3</title>
<ellipse fill="none" stroke="black" cx="161.5" cy="-22.75" rx="23" ry="23"/>
<text text-anchor="middle" x="161.5" y="-19.05" font-family="Times,serif" font-size="14.00">X3</text>
</g>
<!-- X2&#45;&#45;X3 -->
<g id="edge3" class="edge">
<title>X2&#45;&#45;X3</title>
<path fill="none" stroke="black" d="M210.83,-85.99C200.26,-72.66 185.7,-54.29 175.14,-40.96"/>
</g>
<!-- X3&#45;&#45;X4 -->
<g id="edge5" class="edge">
<title>X3&#45;&#45;X4</title>
<path fill="none" stroke="black" d="M184.63,-22.75C190.24,-22.75 195.85,-22.75 201.45,-22.75"/>
</g>
</g>
</svg>