<?xml version="1.0" encoding="UTF-8" standalone="no"?>
<!DOCTYPE svg PUBLIC "-//W3C//DTD SVG 1.1//EN"
 "http://www.w3.org/Graphics/SVG/1.1/DTD/svg11.dtd">
<!-- Generated by graphviz version 2.42.4 (0)
 -->
<!-- Title: g Pages: 1 -->
<svg width="234pt" height="124pt"
 viewBox="0.00 0.00 234.20 124.20" xmlns="http://www.w3.org/2000/svg" xmlns:xlink="http://www.w3.org/1999/xlink">
<g id="graph0" class="graph" transform="scale(1 1) rotate(0) translate(4 120.2)">
<title>g</title>
<polygon fill="white" stroke="transparent" points="-4,4 -4,-120.2 230.2,-120.2 230.2,4 -4,4"/>
<!-- v1 -->
<g id="node1" class="node">
<title>v1</title>
<polygon fill="none" stroke="black" points="54,-112.1 0,-112.1 0,-76.1 54,-76.1 54,-112.1"/>
<text text-anchor="middle" x="27" y="-90.4" font-family="Times,serif" font-size="14.00">v1</text>
</g>
<!-- v3 -->
<g id="node2" class="node">
<title>v3</title>
<polygon fill="none" stroke="black" points="145,-112.1 91,-112.1 91,-76.1 145,-76.1 145,-112.1"/>
<text text-anchor="middle" x="118" y="-90.4" font-family="Times,serif" font-size="14.00">v3</text>
</g>
<!-- v1&#45;&gt;v3 -->
<g id="edge1" class="edge">
<title>v1&#45;&gt;v3</title>
<path fill="none" stroke="black" d="M54.22,-94.1C62.55,-94.1 71.91,-94.1 80.82,-94.1"/>
<polygon fill="black" stroke="black" points="80.97,-97.6 90.97,-94.1 80.97,-90.6 80.97,-97.6"/>
</g>
<!-- v2 -->
<g id="node3" class="node">
<title>v2</title>
<polygon fill="none" stroke="black" points="54,-40.1 0,-40.1 0,-4.1 54,-4.1 54,-40.1"/>
<text text-anchor="middle" x="27" y="-18.4" font-family="Times,serif" font-size="14.00">v2</text>
</g>
<!-- v1&#45;&gt;v2 -->
<g id="edge5" class="edge">
<title>v1&#45;&gt;v2</title>
<path fill="none" stroke="black" stroke-dasharray="5,2" d="M27,-65.41C27,-60.51 27,-55.42 27,-50.53"/>
<polygon fill="black" stroke="black" points="23.5,-65.68 27,-75.68 30.5,-65.68 23.5,-65.68"/>
<polygon fill="black" stroke="black" points="30.5,-50.27 27,-40.27 23.5,-50.27 30.5,-50.27"/>
<text text-anchor="middle" x="16.5" y="-54.4" font-family="Times,serif" font-size="14.00"> </text>
</g>
<!-- v4 -->
<g id="node4" class="node">
<title>v4</title>
<polygon fill="none" stroke="black" points="145,-40.1 91,-40.1 91,-4.1 145,-4.1 145,-40.1"/>
<text text-anchor="middle" x="118" y="-18.4" font-family="Times,serif" font-size="14.00">v4</text>
</g>
<!-- v3&#45;&gt;v4 -->
<g id="edge3" class="edge">
<title>v3&#45;&gt;v4</title>
<path fill="none" stroke="black" d="M118,-76.05C118,-67.51 118,-58.96 118,-50.41"/>
<polygon fill="black" stroke="black" points="121.5,-50.38 118,-40.38 114.5,-50.38 121.5,-50.38"/>
</g>
<!-- v2&#45;&gt;v3 -->
<g id="edge2" class="edge">
<title>v2&#45;&gt;v3</title>
<path fill="none" stroke="black" d="M50.46,-40.27C61.42,-49.13 74.77,-59.93 86.63,-69.53"/>
<polygon fill="black" stroke="black" points="84.57,-72.37 94.55,-75.94 88.98,-66.92 84.57,-72.37"/>
</g>
<!-- v2&#45;&gt;v4 -->
<g id="edge4" class="edge">
<title>v2&#45;&gt;v4</title>
<path fill="none" stroke="black" d="M54.22,-22.1C62.55,-22.1 71.91,-22.1 80.82,-22.1"/>
<polygon fill="black" stroke="black" points="80.97,-25.6 90.97,-22.1 80.97,-18.6 80.97,-25.6"/>
</g>
<!-- e3 -->
<g id="node5" class="node">
<title>e3</title>
<ellipse fill="none" stroke="black" cx="204.1" cy="-94.1" rx="22.2" ry="22.2"/>
<text text-anchor="middle" x="204.1" y="-90.4" font-family="Times,serif" font-size="14.00">e3</text>
</g>
<!-- e3&#45;&gt;v3 -->
<g id="edge6" class="edge">
<title>e3&#45;&gt;v3</title>
<path fill="none" stroke="black" d="M181.76,-94.1C173.76,-94.1 164.42,-94.1 155.44,-94.1"/>
<polygon fill="black" stroke="black" points="155.15,-90.6 145.15,-94.1 155.15,-97.6 155.15,-90.6"/>
</g>
<!-- e4 -->
<g id="node6" class="node">
<title>e4</title>
<ellipse fill="none" stroke="black" cx="204.1" cy="-22.1" rx="22.2" ry="22.2"/>
<text text-anchor="middle" x="204.1" y="-18.4" font-family="Times,serif" font-size="14.00">e4</text>
</g>
<!-- e4&#45;&gt;v4 -->
<g id="edge7" class="edge">
<title>e4&#45;&gt;v4</title>
<path fill="none" stroke="black" d="M181.76,-22.1C173.76,-22.1 164.42,-22.1 155.44,-22.1"/>
<polygon fill="black" stroke="black" points="155.15,-18.6 145.15,-22.1 155.15,-25.6 155.15,-18.6"/>
</g>
</g>
</svg>