<?xml version="1.0" encoding="UTF-8" standalone="no"?>
<!DOCTYPE svg PUBLIC "-//W3C//DTD SVG 1.1//EN"
 "http://www.w3.org/Graphics/SVG/1.1/DTD/svg11.dtd">
<!-- Generated by graphviz version 2.43.0 (0)
 -->
<!-- Title: %3 Pages: 1 -->
<svg width="596pt" height="344pt"
 viewBox="0.00 0.00 595.99 343.86" xmlns="http://www.w3.org/2000/svg" xmlns:xlink="http://www.w3.org/1999/xlink">
<g id="graph0" class="graph" transform="scale(1 1) rotate(0) translate(4 339.86)">
<title>%3</title>
<polygon fill="white" stroke="transparent" points="-4,4 -4,-339.86 591.99,-339.86 591.99,4 -4,4"/>
<g id="clust1" class="cluster">
<title>cluster1000</title>
<path fill="none" stroke="black" d="M99.5,-8C99.5,-8 233.5,-8 233.5,-8 239.5,-8 245.5,-14 245.5,-20 245.5,-20 245.5,-220.91 245.5,-220.91 245.5,-226.91 239.5,-232.91 233.5,-232.91 233.5,-232.91 99.5,-232.91 99.5,-232.91 93.5,-232.91 87.5,-226.91 87.5,-220.91 87.5,-220.91 87.5,-20 87.5,-20 87.5,-14 93.5,-8 99.5,-8"/>
<text text-anchor="middle" x="219" y="-15.8" font-family="Times,serif" font-size="14.00">1000</text>
</g>
<!-- w2 -->
<g id="node1" class="node">
<title>w2</title>
<ellipse fill="none" stroke="black" cx="49.5" cy="-298.38" rx="49.49" ry="37.45"/>
<text text-anchor="middle" x="49.5" y="-309.68" font-family="Times,serif" font-size="14.00">w2</text>
<text text-anchor="middle" x="49.5" y="-294.68" font-family="Times,serif" font-size="14.00">~</text>
<text text-anchor="middle" x="49.5" y="-279.68" font-family="Times,serif" font-size="14.00">Normal</text>
</g>
<!-- sigma -->
<g id="node7" class="node">
<title>sigma</title>
<ellipse fill="none" stroke="black" cx="166.5" cy="-187.43" rx="70.92" ry="37.45"/>
<text text-anchor="middle" x="166.5" y="-198.73" font-family="Times,serif" font-size="14.00">sigma</text>
<text text-anchor="middle" x="166.5" y="-183.73" font-family="Times,serif" font-size="14.00">~</text>
<text text-anchor="middle" x="166.5" y="-168.73" font-family="Times,serif" font-size="14.00">HalfNormal</text>
</g>
<!-- w2&#45;&gt;sigma -->
<g id="edge2" class="edge">
<title>w2&#45;&gt;sigma</title>
<path fill="none" stroke="black" d="M80.24,-268.76C93.84,-256.09 110.06,-240.99 124.74,-227.32"/>
<polygon fill="black" stroke="black" points="127.32,-229.7 132.25,-220.32 122.55,-224.57 127.32,-229.7"/>
</g>
<!-- w1 -->
<g id="node2" class="node">
<title>w1</title>
<ellipse fill="none" stroke="black" cx="166.5" cy="-298.38" rx="49.49" ry="37.45"/>
<text text-anchor="middle" x="166.5" y="-309.68" font-family="Times,serif" font-size="14.00">w1</text>
<text text-anchor="middle" x="166.5" y="-294.68" font-family="Times,serif" font-size="14.00">~</text>
<text text-anchor="middle" x="166.5" y="-279.68" font-family="Times,serif" font-size="14.00">Normal</text>
</g>
<!-- w1&#45;&gt;sigma -->
<g id="edge3" class="edge">
<title>w1&#45;&gt;sigma</title>
<path fill="none" stroke="black" d="M166.5,-260.8C166.5,-252.63 166.5,-243.85 166.5,-235.32"/>
<polygon fill="black" stroke="black" points="170,-235.1 166.5,-225.1 163,-235.1 170,-235.1"/>
</g>
<!-- beta1 -->
<g id="node3" class="node">
<title>beta1</title>
<ellipse fill="none" stroke="black" cx="304.5" cy="-187.43" rx="49.49" ry="37.45"/>
<text text-anchor="middle" x="304.5" y="-198.73" font-family="Times,serif" font-size="14.00">beta1</text>
<text text-anchor="middle" x="304.5" y="-183.73" font-family="Times,serif" font-size="14.00">~</text>
<text text-anchor="middle" x="304.5" y="-168.73" font-family="Times,serif" font-size="14.00">Normal</text>
</g>
<!-- y_obs -->
<g id="node8" class="node">
<title>y_obs</title>
<ellipse fill="lightgrey" stroke="black" cx="188.5" cy="-76.48" rx="49.49" ry="37.45"/>
<text text-anchor="middle" x="188.5" y="-87.78" font-family="Times,serif" font-size="14.00">y_obs</text>
<text text-anchor="middle" x="188.5" y="-72.78" font-family="Times,serif" font-size="14.00">~</text>
<text text-anchor="middle" x="188.5" y="-57.78" font-family="Times,serif" font-size="14.00">Normal</text>
</g>
<!-- beta1&#45;&gt;y_obs -->
<g id="edge4" class="edge">
<title>beta1&#45;&gt;y_obs</title>
<path fill="none" stroke="black" d="M274.02,-157.8C259.48,-144.15 241.94,-127.68 226.54,-113.21"/>
<polygon fill="black" stroke="black" points="228.86,-110.59 219.17,-106.29 224.07,-115.69 228.86,-110.59"/>
</g>
<!-- beta0 -->
<g id="node4" class="node">
<title>beta0</title>
<ellipse fill="none" stroke="black" cx="421.5" cy="-187.43" rx="49.49" ry="37.45"/>
<text text-anchor="middle" x="421.5" y="-198.73" font-family="Times,serif" font-size="14.00">beta0</text>
<text text-anchor="middle" x="421.5" y="-183.73" font-family="Times,serif" font-size="14.00">~</text>
<text text-anchor="middle" x="421.5" y="-168.73" font-family="Times,serif" font-size="14.00">Normal</text>
</g>
<!-- beta0&#45;&gt;y_obs -->
<g id="edge6" class="edge">
<title>beta0&#45;&gt;y_obs</title>
<path fill="none" stroke="black" d="M384.56,-162.36C377.36,-158.02 369.78,-153.69 362.5,-149.95 323.25,-129.81 277.08,-110.78 242.16,-97.28"/>
<polygon fill="black" stroke="black" points="243.22,-93.93 232.63,-93.62 240.71,-100.47 243.22,-93.93"/>
</g>
<!-- w0 -->
<g id="node5" class="node">
<title>w0</title>
<ellipse fill="none" stroke="black" cx="283.5" cy="-298.38" rx="49.49" ry="37.45"/>
<text text-anchor="middle" x="283.5" y="-309.68" font-family="Times,serif" font-size="14.00">w0</text>
<text text-anchor="middle" x="283.5" y="-294.68" font-family="Times,serif" font-size="14.00">~</text>
<text text-anchor="middle" x="283.5" y="-279.68" font-family="Times,serif" font-size="14.00">Normal</text>
</g>
<!-- w0&#45;&gt;sigma -->
<g id="edge1" class="edge">
<title>w0&#45;&gt;sigma</title>
<path fill="none" stroke="black" d="M252.76,-268.76C239.15,-256.09 222.94,-240.99 208.26,-227.32"/>
<polygon fill="black" stroke="black" points="210.45,-224.57 200.74,-220.32 205.67,-229.7 210.45,-224.57"/>
</g>
<!-- beta2 -->
<g id="node6" class="node">
<title>beta2</title>
<ellipse fill="none" stroke="black" cx="538.5" cy="-187.43" rx="49.49" ry="37.45"/>
<text text-anchor="middle" x="538.5" y="-198.73" font-family="Times,serif" font-size="14.00">beta2</text>
<text text-anchor="middle" x="538.5" y="-183.73" font-family="Times,serif" font-size="14.00">~</text>
<text text-anchor="middle" x="538.5" y="-168.73" font-family="Times,serif" font-size="14.00">Normal</text>
</g>
<!-- beta2&#45;&gt;y_obs -->
<g id="edge7" class="edge">
<title>beta2&#45;&gt;y_obs</title>
<path fill="none" stroke="black" d="M502.3,-161.64C494.97,-157.32 487.15,-153.18 479.5,-149.95 402.17,-117.36 306.86,-97.08 246.87,-86.53"/>
<polygon fill="black" stroke="black" points="247.27,-83.04 236.82,-84.79 246.08,-89.94 247.27,-83.04"/>
</g>
<!-- sigma&#45;&gt;y_obs -->
<g id="edge5" class="edge">
<title>sigma&#45;&gt;y_obs</title>
<path fill="none" stroke="black" d="M173.82,-150.15C175.55,-141.6 177.41,-132.38 179.21,-123.47"/>
<polygon fill="black" stroke="black" points="182.66,-124.09 181.2,-113.6 175.79,-122.71 182.66,-124.09"/>
</g>
</g>
</svg>