<?xml version="1.0" encoding="UTF-8" standalone="no"?>
<!DOCTYPE svg PUBLIC "-//W3C//DTD SVG 1.1//EN"
 "http://www.w3.org/Graphics/SVG/1.1/DTD/svg11.dtd">
<!-- Generated by graphviz version 2.43.0 (0)
 -->
<!-- Title: G Pages: 1 -->
<svg width="244pt" height="243pt"
 viewBox="0.00 0.00 244.00 243.00" xmlns="http://www.w3.org/2000/svg" xmlns:xlink="http://www.w3.org/1999/xlink">
<g id="graph0" class="graph" transform="scale(1 1) rotate(0) translate(4 239)">
<title>G</title>
<polygon fill="white" stroke="transparent" points="-4,4 -4,-239 240,-239 240,4 -4,4"/>
<g id="clust1" class="cluster">
<title>cluster_chain</title>
<polygon fill="none" stroke="black" points="8,-8 8,-227 78,-227 78,-8 8,-8"/>
<text text-anchor="middle" x="43" y="-211.8" font-family="Times,serif" font-size="14.00">DAG1</text>
</g>
<g id="clust2" class="cluster">
<title>cluster_fork</title>
<polygon fill="none" stroke="black" points="86,-80 86,-227 228,-227 228,-80 86,-80"/>
<text text-anchor="middle" x="157" y="-211.8" font-family="Times,serif" font-size="14.00">DAG2</text>
</g>
<!-- X1 -->
<g id="node1" class="node">
<title>X1</title>
<ellipse fill="none" stroke="black" cx="43" cy="-178" rx="27" ry="18"/>
<text text-anchor="middle" x="43" y="-174.3" font-family="Times,serif" font-size="14.00">X</text>
</g>
<!-- Y1 -->
<g id="node2" class="node">
<title>Y1</title>
<ellipse fill="none" stroke="black" cx="43" cy="-106" rx="27" ry="18"/>
<text text-anchor="middle" x="43" y="-102.3" font-family="Times,serif" font-size="14.00">Y</text>
</g>
<!-- X1&#45;&gt;Y1 -->
<g id="edge1" class="edge">
<title>X1&#45;&gt;Y1</title>
<path fill="none" stroke="black" d="M43,-159.7C43,-151.98 43,-142.71 43,-134.11"/>
<polygon fill="black" stroke="black" points="46.5,-134.1 43,-124.1 39.5,-134.1 46.5,-134.1"/>
</g>
<!-- Z1 -->
<g id="node3" class="node">
<title>Z1</title>
<ellipse fill="none" stroke="black" cx="43" cy="-34" rx="27" ry="18"/>
<text text-anchor="middle" x="43" y="-30.3" font-family="Times,serif" font-size="14.00">Z</text>
</g>
<!-- Y1&#45;&gt;Z1 -->
<g id="edge2" class="edge">
<title>Y1&#45;&gt;Z1</title>
<path fill="none" stroke="black" d="M43,-87.7C43,-79.98 43,-70.71 43,-62.11"/>
<polygon fill="black" stroke="black" points="46.5,-62.1 43,-52.1 39.5,-62.1 46.5,-62.1"/>
</g>
<!-- X2 -->
<g id="node4" class="node">
<title>X2</title>
<ellipse fill="none" stroke="black" cx="121" cy="-106" rx="27" ry="18"/>
<text text-anchor="middle" x="121" y="-102.3" font-family="Times,serif" font-size="14.00">X</text>
</g>
<!-- Y2 -->
<g id="node5" class="node">
<title>Y2</title>
<ellipse fill="none" stroke="black" cx="157" cy="-178" rx="27" ry="18"/>
<text text-anchor="middle" x="157" y="-174.3" font-family="Times,serif" font-size="14.00">Y</text>
</g>
<!-- Y2&#45;&gt;X2 -->
<g id="edge3" class="edge">
<title>Y2&#45;&gt;X2</title>
<path fill="none" stroke="black" d="M148.65,-160.76C144.29,-152.28 138.85,-141.71 133.96,-132.2"/>
<polygon fill="black" stroke="black" points="136.99,-130.44 129.3,-123.15 130.77,-133.64 136.99,-130.44"/>
</g>
<!-- Z2 -->
<g id="node6" class="node">
<title>Z2</title>
<ellipse fill="none" stroke="black" cx="193" cy="-106" rx="27" ry="18"/>
<text text-anchor="middle" x="193" y="-102.3" font-family="Times,serif" font-size="14.00">Z</text>
</g>
<!-- Y2&#45;&gt;Z2 -->
<g id="edge4" class="edge">
<title>Y2&#45;&gt;Z2</title>
<path fill="none" stroke="black" d="M165.35,-160.76C169.71,-152.28 175.15,-141.71 180.04,-132.2"/>
<polygon fill="black" stroke="black" points="183.23,-133.64 184.7,-123.15 177.01,-130.44 183.23,-133.64"/>
</g>
</g>
</svg>