<?xml version="1.0" encoding="UTF-8" standalone="no"?>
<!DOCTYPE svg PUBLIC "-//W3C//DTD SVG 1.1//EN"
 "http://www.w3.org/Graphics/SVG/1.1/DTD/svg11.dtd">
<!-- Generated by graphviz version 2.43.0 (0)
 -->
<!-- Title: %3 Pages: 1 -->
<svg width="1306pt" height="360pt"
 viewBox="0.00 0.00 1306.00 359.91" xmlns="http://www.w3.org/2000/svg" xmlns:xlink="http://www.w3.org/1999/xlink">
<g id="graph0" class="graph" transform="scale(1 1) rotate(0) translate(4 355.91)">
<title>%3</title>
<polygon fill="white" stroke="transparent" points="-4,4 -4,-355.91 1302,-355.91 1302,4 -4,4"/>
<g id="clust1" class="cluster">
<title>cluster100</title>
<path fill="none" stroke="black" d="M754,-229.95C754,-229.95 844,-229.95 844,-229.95 850,-229.95 856,-235.95 856,-241.95 856,-241.95 856,-331.91 856,-331.91 856,-337.91 850,-343.91 844,-343.91 844,-343.91 754,-343.91 754,-343.91 748,-343.91 742,-337.91 742,-331.91 742,-331.91 742,-241.95 742,-241.95 742,-235.95 748,-229.95 754,-229.95"/>
<text text-anchor="middle" x="834" y="-237.75" font-family="Times,serif" font-size="14.00">100</text>
</g>
<g id="clust2" class="cluster">
<title>cluster20</title>
<path fill="none" stroke="black" d="M520,-229.95C520,-229.95 644,-229.95 644,-229.95 650,-229.95 656,-235.95 656,-241.95 656,-241.95 656,-331.91 656,-331.91 656,-337.91 650,-343.91 644,-343.91 644,-343.91 520,-343.91 520,-343.91 514,-343.91 508,-337.91 508,-331.91 508,-331.91 508,-241.95 508,-241.95 508,-235.95 514,-229.95 520,-229.95"/>
<text text-anchor="middle" x="638.5" y="-237.75" font-family="Times,serif" font-size="14.00">20</text>
</g>
<g id="clust3" class="cluster">
<title>cluster7 x 2</title>
<path fill="none" stroke="black" d="M1172,-118.98C1172,-118.98 1278,-118.98 1278,-118.98 1284,-118.98 1290,-124.98 1290,-130.98 1290,-130.98 1290,-331.91 1290,-331.91 1290,-337.91 1284,-343.91 1278,-343.91 1278,-343.91 1172,-343.91 1172,-343.91 1166,-343.91 1160,-337.91 1160,-331.91 1160,-331.91 1160,-130.98 1160,-130.98 1160,-124.98 1166,-118.98 1172,-118.98"/>
<text text-anchor="middle" x="1264" y="-126.78" font-family="Times,serif" font-size="14.00">7 x 2</text>
</g>
<g id="clust4" class="cluster">
<title>cluster100 x 7</title>
<path fill="none" stroke="black" d="M590,-108C590,-108 1140,-108 1140,-108 1146,-108 1152,-114 1152,-120 1152,-120 1152,-209.95 1152,-209.95 1152,-215.95 1146,-221.95 1140,-221.95 1140,-221.95 590,-221.95 590,-221.95 584,-221.95 578,-215.95 578,-209.95 578,-209.95 578,-120 578,-120 578,-114 584,-108 590,-108"/>
<text text-anchor="middle" x="1117" y="-115.8" font-family="Times,serif" font-size="14.00">100 x 7</text>
</g>
<g id="clust5" class="cluster">
<title>cluster100 x 7 x 3</title>
<path fill="none" stroke="black" d="M1034,-8C1034,-8 1140,-8 1140,-8 1146,-8 1152,-14 1152,-20 1152,-20 1152,-88 1152,-88 1152,-94 1146,-100 1140,-100 1140,-100 1034,-100 1034,-100 1028,-100 1022,-94 1022,-88 1022,-88 1022,-20 1022,-20 1022,-14 1028,-8 1034,-8"/>
<text text-anchor="middle" x="1104" y="-15.8" font-family="Times,serif" font-size="14.00">100 x 7 x 3</text>
</g>
<g id="clust6" class="cluster">
<title>cluster7 x 3</title>
<path fill="none" stroke="black" d="M158,-118.98C158,-118.98 264,-118.98 264,-118.98 270,-118.98 276,-124.98 276,-130.98 276,-130.98 276,-331.91 276,-331.91 276,-337.91 270,-343.91 264,-343.91 264,-343.91 158,-343.91 158,-343.91 152,-343.91 146,-337.91 146,-331.91 146,-331.91 146,-130.98 146,-130.98 146,-124.98 152,-118.98 158,-118.98"/>
<text text-anchor="middle" x="250" y="-126.78" font-family="Times,serif" font-size="14.00">7 x 3</text>
</g>
<g id="clust7" class="cluster">
<title>cluster100 x 7 x 4</title>
<path fill="none" stroke="black" d="M602,-8C602,-8 708,-8 708,-8 714,-8 720,-14 720,-20 720,-20 720,-88 720,-88 720,-94 714,-100 708,-100 708,-100 602,-100 602,-100 596,-100 590,-94 590,-88 590,-88 590,-20 590,-20 590,-14 596,-8 602,-8"/>
<text text-anchor="middle" x="672" y="-15.8" font-family="Times,serif" font-size="14.00">100 x 7 x 4</text>
</g>
<g id="clust8" class="cluster">
<title>cluster6 x 4</title>
<path fill="none" stroke="black" d="M20,-118.98C20,-118.98 126,-118.98 126,-118.98 132,-118.98 138,-124.98 138,-130.98 138,-130.98 138,-331.91 138,-331.91 138,-337.91 132,-343.91 126,-343.91 126,-343.91 20,-343.91 20,-343.91 14,-343.91 8,-337.91 8,-331.91 8,-331.91 8,-130.98 8,-130.98 8,-124.98 14,-118.98 20,-118.98"/>
<text text-anchor="middle" x="112" y="-126.78" font-family="Times,serif" font-size="14.00">6 x 4</text>
</g>
<g id="clust9" class="cluster">
<title>cluster100 x 6</title>
<path fill="none" stroke="black" d="M296,-108C296,-108 558,-108 558,-108 564,-108 570,-114 570,-120 570,-120 570,-209.95 570,-209.95 570,-215.95 564,-221.95 558,-221.95 558,-221.95 296,-221.95 296,-221.95 290,-221.95 284,-215.95 284,-209.95 284,-209.95 284,-120 284,-120 284,-114 290,-108 296,-108"/>
<text text-anchor="middle" x="535" y="-115.8" font-family="Times,serif" font-size="14.00">100 x 6</text>
</g>
<g id="clust10" class="cluster">
<title>cluster100 x 6 x 5</title>
<path fill="none" stroke="black" d="M308,-8C308,-8 414,-8 414,-8 420,-8 426,-14 426,-20 426,-20 426,-88 426,-88 426,-94 420,-100 414,-100 414,-100 308,-100 308,-100 302,-100 296,-94 296,-88 296,-88 296,-20 296,-20 296,-14 302,-8 308,-8"/>
<text text-anchor="middle" x="378" y="-15.8" font-family="Times,serif" font-size="14.00">100 x 6 x 5</text>
</g>
<!-- theta -->
<g id="node1" class="node">
<title>theta</title>
<ellipse fill="none" stroke="black" cx="799" cy="-298.43" rx="49.49" ry="37.45"/>
<text text-anchor="middle" x="799" y="-309.73" font-family="Times,serif" font-size="14.00">theta</text>
<text text-anchor="middle" x="799" y="-294.73" font-family="Times,serif" font-size="14.00">~</text>
<text text-anchor="middle" x="799" y="-279.73" font-family="Times,serif" font-size="14.00">Normal</text>
</g>
<!-- eta_4 -->
<g id="node5" class="node">
<title>eta_4</title>
<polygon fill="none" stroke="black" points="856,-202.98 742,-202.98 742,-149.98 856,-149.98 856,-202.98"/>
<text text-anchor="middle" x="799" y="-187.78" font-family="Times,serif" font-size="14.00">eta_4</text>
<text text-anchor="middle" x="799" y="-172.78" font-family="Times,serif" font-size="14.00">~</text>
<text text-anchor="middle" x="799" y="-157.78" font-family="Times,serif" font-size="14.00">Deterministic</text>
</g>
<!-- theta&#45;&gt;eta_4 -->
<g id="edge8" class="edge">
<title>theta&#45;&gt;eta_4</title>
<path fill="none" stroke="black" d="M799,-260.79C799,-245.82 799,-228.55 799,-213.63"/>
<polygon fill="black" stroke="black" points="802.5,-213.25 799,-203.25 795.5,-213.25 802.5,-213.25"/>
</g>
<!-- eta_3 -->
<g id="node7" class="node">
<title>eta_3</title>
<polygon fill="none" stroke="black" points="1144,-202.98 1030,-202.98 1030,-149.98 1144,-149.98 1144,-202.98"/>
<text text-anchor="middle" x="1087" y="-187.78" font-family="Times,serif" font-size="14.00">eta_3</text>
<text text-anchor="middle" x="1087" y="-172.78" font-family="Times,serif" font-size="14.00">~</text>
<text text-anchor="middle" x="1087" y="-157.78" font-family="Times,serif" font-size="14.00">Deterministic</text>
</g>
<!-- theta&#45;&gt;eta_3 -->
<g id="edge1" class="edge">
<title>theta&#45;&gt;eta_3</title>
<path fill="none" stroke="black" d="M845.49,-285.52C891.42,-272.86 963.01,-250.71 1021,-221.95 1028.74,-218.11 1036.64,-213.5 1044.15,-208.71"/>
<polygon fill="black" stroke="black" points="1046.33,-211.47 1052.77,-203.05 1042.49,-205.62 1046.33,-211.47"/>
</g>
<!-- eta_5 -->
<g id="node15" class="node">
<title>eta_5</title>
<polygon fill="none" stroke="black" points="562,-202.98 448,-202.98 448,-149.98 562,-149.98 562,-202.98"/>
<text text-anchor="middle" x="505" y="-187.78" font-family="Times,serif" font-size="14.00">eta_5</text>
<text text-anchor="middle" x="505" y="-172.78" font-family="Times,serif" font-size="14.00">~</text>
<text text-anchor="middle" x="505" y="-157.78" font-family="Times,serif" font-size="14.00">Deterministic</text>
</g>
<!-- theta&#45;&gt;eta_5 -->
<g id="edge15" class="edge">
<title>theta&#45;&gt;eta_5</title>
<path fill="none" stroke="black" d="M760.94,-274.32C733.81,-259.01 695.91,-239.98 660,-229.95 623.03,-219.63 610.28,-234.49 574,-221.95 564.5,-218.67 555,-213.83 546.22,-208.52"/>
<polygon fill="black" stroke="black" points="548.03,-205.52 537.71,-203.11 544.27,-211.43 548.03,-205.52"/>
</g>
<!-- a -->
<g id="node2" class="node">
<title>a</title>
<ellipse fill="none" stroke="black" cx="582" cy="-298.43" rx="65.52" ry="37.45"/>
<text text-anchor="middle" x="582" y="-309.73" font-family="Times,serif" font-size="14.00">a</text>
<text text-anchor="middle" x="582" y="-294.73" font-family="Times,serif" font-size="14.00">~</text>
<text text-anchor="middle" x="582" y="-279.73" font-family="Times,serif" font-size="14.00">Lognormal</text>
</g>
<!-- cutpoints_3 -->
<g id="node4" class="node">
<title>cutpoints_3</title>
<polygon fill="none" stroke="black" points="1282,-202.98 1168,-202.98 1168,-149.98 1282,-149.98 1282,-202.98"/>
<text text-anchor="middle" x="1225" y="-187.78" font-family="Times,serif" font-size="14.00">cutpoints_3</text>
<text text-anchor="middle" x="1225" y="-172.78" font-family="Times,serif" font-size="14.00">~</text>
<text text-anchor="middle" x="1225" y="-157.78" font-family="Times,serif" font-size="14.00">Deterministic</text>
</g>
<!-- a&#45;&gt;cutpoints_3 -->
<g id="edge4" class="edge">
<title>a&#45;&gt;cutpoints_3</title>
<path fill="none" stroke="black" d="M628.53,-271.6C658.73,-256.3 699.5,-238.31 738,-229.95 783.4,-220.1 1111.57,-235.5 1156,-221.95 1165.82,-218.96 1175.57,-214.13 1184.52,-208.74"/>
<polygon fill="black" stroke="black" points="1186.63,-211.54 1193.17,-203.21 1182.86,-205.65 1186.63,-211.54"/>
</g>
<!-- a&#45;&gt;eta_4 -->
<g id="edge9" class="edge">
<title>a&#45;&gt;eta_4</title>
<path fill="none" stroke="black" d="M632.51,-274.2C662.26,-260.03 700.35,-241.01 733,-221.95 739.96,-217.89 747.18,-213.37 754.18,-208.81"/>
<polygon fill="black" stroke="black" points="756.48,-211.48 762.88,-203.04 752.62,-205.64 756.48,-211.48"/>
</g>
<!-- a&#45;&gt;eta_3 -->
<g id="edge2" class="edge">
<title>a&#45;&gt;eta_3</title>
<path fill="none" stroke="black" d="M628.56,-271.72C658.77,-256.47 699.54,-238.48 738,-229.95 799.42,-216.33 961.1,-241.18 1021,-221.95 1030.37,-218.94 1039.64,-214.16 1048.14,-208.83"/>
<polygon fill="black" stroke="black" points="1050.31,-211.59 1056.68,-203.13 1046.42,-205.77 1050.31,-211.59"/>
</g>
<!-- cutpoints_4 -->
<g id="node11" class="node">
<title>cutpoints_4</title>
<polygon fill="none" stroke="black" points="268,-202.98 154,-202.98 154,-149.98 268,-149.98 268,-202.98"/>
<text text-anchor="middle" x="211" y="-187.78" font-family="Times,serif" font-size="14.00">cutpoints_4</text>
<text text-anchor="middle" x="211" y="-172.78" font-family="Times,serif" font-size="14.00">~</text>
<text text-anchor="middle" x="211" y="-157.78" font-family="Times,serif" font-size="14.00">Deterministic</text>
</g>
<!-- a&#45;&gt;cutpoints_4 -->
<g id="edge11" class="edge">
<title>a&#45;&gt;cutpoints_4</title>
<path fill="none" stroke="black" d="M518.74,-287.84C456.25,-276.95 358.85,-256.11 280,-221.95 271.45,-218.25 262.77,-213.54 254.58,-208.58"/>
<polygon fill="black" stroke="black" points="256.25,-205.49 245.92,-203.13 252.52,-211.41 256.25,-205.49"/>
</g>
<!-- cutpoints_5 -->
<g id="node13" class="node">
<title>cutpoints_5</title>
<polygon fill="none" stroke="black" points="130,-202.98 16,-202.98 16,-149.98 130,-149.98 130,-202.98"/>
<text text-anchor="middle" x="73" y="-187.78" font-family="Times,serif" font-size="14.00">cutpoints_5</text>
<text text-anchor="middle" x="73" y="-172.78" font-family="Times,serif" font-size="14.00">~</text>
<text text-anchor="middle" x="73" y="-157.78" font-family="Times,serif" font-size="14.00">Deterministic</text>
</g>
<!-- a&#45;&gt;cutpoints_5 -->
<g id="edge18" class="edge">
<title>a&#45;&gt;cutpoints_5</title>
<path fill="none" stroke="black" d="M523.21,-281.32C462.72,-265.45 365.53,-241.91 280,-229.95 249.58,-225.7 171.2,-231.48 142,-221.95 132.35,-218.8 122.72,-213.96 113.86,-208.62"/>
<polygon fill="black" stroke="black" points="115.59,-205.57 105.27,-203.14 111.82,-211.47 115.59,-205.57"/>
</g>
<!-- a&#45;&gt;eta_5 -->
<g id="edge16" class="edge">
<title>a&#45;&gt;eta_5</title>
<path fill="none" stroke="black" d="M559.93,-263.06C549.59,-246.93 537.29,-227.77 526.95,-211.67"/>
<polygon fill="black" stroke="black" points="529.78,-209.61 521.44,-203.08 523.89,-213.39 529.78,-209.61"/>
</g>
<!-- b_3 -->
<g id="node3" class="node">
<title>b_3</title>
<ellipse fill="none" stroke="black" cx="1225" cy="-298.43" rx="49.49" ry="37.45"/>
<text text-anchor="middle" x="1225" y="-309.73" font-family="Times,serif" font-size="14.00">b_3</text>
<text text-anchor="middle" x="1225" y="-294.73" font-family="Times,serif" font-size="14.00">~</text>
<text text-anchor="middle" x="1225" y="-279.73" font-family="Times,serif" font-size="14.00">Normal</text>
</g>
<!-- b_3&#45;&gt;cutpoints_3 -->
<g id="edge3" class="edge">
<title>b_3&#45;&gt;cutpoints_3</title>
<path fill="none" stroke="black" d="M1225,-260.79C1225,-245.82 1225,-228.55 1225,-213.63"/>
<polygon fill="black" stroke="black" points="1228.5,-213.25 1225,-203.25 1221.5,-213.25 1228.5,-213.25"/>
</g>
<!-- y_3_probs -->
<g id="node9" class="node">
<title>y_3_probs</title>
<polygon fill="none" stroke="black" points="1144,-92 1030,-92 1030,-39 1144,-39 1144,-92"/>
<text text-anchor="middle" x="1087" y="-76.8" font-family="Times,serif" font-size="14.00">y_3_probs</text>
<text text-anchor="middle" x="1087" y="-61.8" font-family="Times,serif" font-size="14.00">~</text>
<text text-anchor="middle" x="1087" y="-46.8" font-family="Times,serif" font-size="14.00">Deterministic</text>
</g>
<!-- cutpoints_3&#45;&gt;y_3_probs -->
<g id="edge5" class="edge">
<title>cutpoints_3&#45;&gt;y_3_probs</title>
<path fill="none" stroke="black" d="M1201.68,-149.97C1188.87,-136.67 1172.31,-120.6 1156,-108 1151.39,-104.44 1146.46,-100.94 1141.43,-97.58"/>
<polygon fill="black" stroke="black" points="1143.2,-94.56 1132.91,-92.05 1139.4,-100.43 1143.2,-94.56"/>
</g>
<!-- y_4_probs -->
<g id="node12" class="node">
<title>y_4_probs</title>
<polygon fill="none" stroke="black" points="712,-92 598,-92 598,-39 712,-39 712,-92"/>
<text text-anchor="middle" x="655" y="-76.8" font-family="Times,serif" font-size="14.00">y_4_probs</text>
<text text-anchor="middle" x="655" y="-61.8" font-family="Times,serif" font-size="14.00">~</text>
<text text-anchor="middle" x="655" y="-46.8" font-family="Times,serif" font-size="14.00">Deterministic</text>
</g>
<!-- eta_4&#45;&gt;y_4_probs -->
<g id="edge12" class="edge">
<title>eta_4&#45;&gt;y_4_probs</title>
<path fill="none" stroke="black" d="M777.43,-149.87C765.26,-136.39 749.27,-120.18 733,-108 728,-104.26 722.63,-100.66 717.11,-97.25"/>
<polygon fill="black" stroke="black" points="718.76,-94.16 708.38,-92.06 715.18,-100.17 718.76,-94.16"/>
</g>
<!-- y_4 -->
<g id="node6" class="node">
<title>y_4</title>
<ellipse fill="lightgrey" stroke="black" cx="655" cy="-176.48" rx="69.09" ry="37.45"/>
<text text-anchor="middle" x="655" y="-187.78" font-family="Times,serif" font-size="14.00">y_4</text>
<text text-anchor="middle" x="655" y="-172.78" font-family="Times,serif" font-size="14.00">~</text>
<text text-anchor="middle" x="655" y="-157.78" font-family="Times,serif" font-size="14.00">Categorical</text>
</g>
<!-- eta_3&#45;&gt;y_3_probs -->
<g id="edge6" class="edge">
<title>eta_3&#45;&gt;y_3_probs</title>
<path fill="none" stroke="black" d="M1087,-149.93C1087,-135.82 1087,-118.07 1087,-102.57"/>
<polygon fill="black" stroke="black" points="1090.5,-102.27 1087,-92.27 1083.5,-102.27 1090.5,-102.27"/>
</g>
<!-- y_3 -->
<g id="node8" class="node">
<title>y_3</title>
<ellipse fill="lightgrey" stroke="black" cx="943" cy="-176.48" rx="69.09" ry="37.45"/>
<text text-anchor="middle" x="943" y="-187.78" font-family="Times,serif" font-size="14.00">y_3</text>
<text text-anchor="middle" x="943" y="-172.78" font-family="Times,serif" font-size="14.00">~</text>
<text text-anchor="middle" x="943" y="-157.78" font-family="Times,serif" font-size="14.00">Categorical</text>
</g>
<!-- y_3_probs&#45;&gt;y_3 -->
<g id="edge7" class="edge">
<title>y_3_probs&#45;&gt;y_3</title>
<path fill="none" stroke="black" d="M1044.11,-92.14C1036.28,-97.19 1028.29,-102.6 1021,-108 1008.96,-116.92 996.45,-127.21 985.07,-137.04"/>
<polygon fill="black" stroke="black" points="982.63,-134.53 977.4,-143.74 987.23,-139.8 982.63,-134.53"/>
</g>
<!-- b_4 -->
<g id="node10" class="node">
<title>b_4</title>
<ellipse fill="none" stroke="black" cx="211" cy="-298.43" rx="49.49" ry="37.45"/>
<text text-anchor="middle" x="211" y="-309.73" font-family="Times,serif" font-size="14.00">b_4</text>
<text text-anchor="middle" x="211" y="-294.73" font-family="Times,serif" font-size="14.00">~</text>
<text text-anchor="middle" x="211" y="-279.73" font-family="Times,serif" font-size="14.00">Normal</text>
</g>
<!-- b_4&#45;&gt;cutpoints_4 -->
<g id="edge10" class="edge">
<title>b_4&#45;&gt;cutpoints_4</title>
<path fill="none" stroke="black" d="M211,-260.79C211,-245.82 211,-228.55 211,-213.63"/>
<polygon fill="black" stroke="black" points="214.5,-213.25 211,-203.25 207.5,-213.25 214.5,-213.25"/>
</g>
<!-- cutpoints_4&#45;&gt;y_4_probs -->
<g id="edge13" class="edge">
<title>cutpoints_4&#45;&gt;y_4_probs</title>
<path fill="none" stroke="black" d="M229.35,-149.92C241.77,-134.82 259.6,-116.96 280,-108 310.56,-94.58 396.79,-103.35 430,-100 483.22,-94.63 543.11,-85.57 587.72,-78.22"/>
<polygon fill="black" stroke="black" points="588.56,-81.63 597.85,-76.53 587.41,-74.72 588.56,-81.63"/>
</g>
<!-- y_4_probs&#45;&gt;y_4 -->
<g id="edge14" class="edge">
<title>y_4_probs&#45;&gt;y_4</title>
<path fill="none" stroke="black" d="M655,-92.16C655,-103.04 655,-116.08 655,-128.58"/>
<polygon fill="black" stroke="black" points="651.5,-128.89 655,-138.89 658.5,-128.89 651.5,-128.89"/>
</g>
<!-- y_5_probs -->
<g id="node17" class="node">
<title>y_5_probs</title>
<polygon fill="none" stroke="black" points="418,-92 304,-92 304,-39 418,-39 418,-92"/>
<text text-anchor="middle" x="361" y="-76.8" font-family="Times,serif" font-size="14.00">y_5_probs</text>
<text text-anchor="middle" x="361" y="-61.8" font-family="Times,serif" font-size="14.00">~</text>
<text text-anchor="middle" x="361" y="-46.8" font-family="Times,serif" font-size="14.00">Deterministic</text>
</g>
<!-- cutpoints_5&#45;&gt;y_5_probs -->
<g id="edge20" class="edge">
<title>cutpoints_5&#45;&gt;y_5_probs</title>
<path fill="none" stroke="black" d="M92.66,-149.85C105.2,-135.32 122.69,-118.07 142,-108 189.05,-83.46 248.53,-73.3 293.63,-69.16"/>
<polygon fill="black" stroke="black" points="293.93,-72.65 303.6,-68.32 293.34,-65.67 293.93,-72.65"/>
</g>
<!-- b_5 -->
<g id="node14" class="node">
<title>b_5</title>
<ellipse fill="none" stroke="black" cx="73" cy="-298.43" rx="49.49" ry="37.45"/>
<text text-anchor="middle" x="73" y="-309.73" font-family="Times,serif" font-size="14.00">b_5</text>
<text text-anchor="middle" x="73" y="-294.73" font-family="Times,serif" font-size="14.00">~</text>
<text text-anchor="middle" x="73" y="-279.73" font-family="Times,serif" font-size="14.00">Normal</text>
</g>
<!-- b_5&#45;&gt;cutpoints_5 -->
<g id="edge17" class="edge">
<title>b_5&#45;&gt;cutpoints_5</title>
<path fill="none" stroke="black" d="M73,-260.79C73,-245.82 73,-228.55 73,-213.63"/>
<polygon fill="black" stroke="black" points="76.5,-213.25 73,-203.25 69.5,-213.25 76.5,-213.25"/>
</g>
<!-- eta_5&#45;&gt;y_5_probs -->
<g id="edge19" class="edge">
<title>eta_5&#45;&gt;y_5_probs</title>
<path fill="none" stroke="black" d="M483.43,-149.87C471.26,-136.39 455.27,-120.18 439,-108 434,-104.26 428.63,-100.66 423.11,-97.25"/>
<polygon fill="black" stroke="black" points="424.76,-94.16 414.38,-92.06 421.18,-100.17 424.76,-94.16"/>
</g>
<!-- y_5 -->
<g id="node16" class="node">
<title>y_5</title>
<ellipse fill="lightgrey" stroke="black" cx="361" cy="-176.48" rx="69.09" ry="37.45"/>
<text text-anchor="middle" x="361" y="-187.78" font-family="Times,serif" font-size="14.00">y_5</text>
<text text-anchor="middle" x="361" y="-172.78" font-family="Times,serif" font-size="14.00">~</text>
<text text-anchor="middle" x="361" y="-157.78" font-family="Times,serif" font-size="14.00">Categorical</text>
</g>
<!-- y_5_probs&#45;&gt;y_5 -->
<g id="edge21" class="edge">
<title>y_5_probs&#45;&gt;y_5</title>
<path fill="none" stroke="black" d="M361,-92.16C361,-103.04 361,-116.08 361,-128.58"/>
<polygon fill="black" stroke="black" points="357.5,-128.89 361,-138.89 364.5,-128.89 357.5,-128.89"/>
</g>
</g>
</svg>