<?xml version="1.0" encoding="UTF-8" standalone="no"?>
<!DOCTYPE svg PUBLIC "-//W3C//DTD SVG 1.1//EN"
 "http://www.w3.org/Graphics/SVG/1.1/DTD/svg11.dtd">
<!-- Generated by graphviz version 2.43.0 (0)
 -->
<!-- Title: %3 Pages: 1 -->
<svg width="410pt" height="349pt"
 viewBox="0.00 0.00 410.00 348.91" xmlns="http://www.w3.org/2000/svg" xmlns:xlink="http://www.w3.org/1999/xlink">
<g id="graph0" class="graph" transform="scale(1 1) rotate(0) translate(4 344.91)">
<title>%3</title>
<polygon fill="white" stroke="transparent" points="-4,4 -4,-344.91 406,-344.91 406,4 -4,4"/>
<g id="clust1" class="cluster">
<title>cluster20000</title>
<path fill="none" stroke="black" d="M144,-8C144,-8 252,-8 252,-8 258,-8 264,-14 264,-20 264,-20 264,-198.95 264,-198.95 264,-204.95 258,-210.95 252,-210.95 252,-210.95 144,-210.95 144,-210.95 138,-210.95 132,-204.95 132,-198.95 132,-198.95 132,-20 132,-20 132,-14 138,-8 144,-8"/>
<text text-anchor="middle" x="233" y="-15.8" font-family="Times,serif" font-size="14.00">20000</text>
</g>
<g id="clust2" class="cluster">
<title>clusteritem (20)</title>
<path fill="none" stroke="black" d="M20,-218.95C20,-218.95 260,-218.95 260,-218.95 266,-218.95 272,-224.95 272,-230.95 272,-230.95 272,-320.91 272,-320.91 272,-326.91 266,-332.91 260,-332.91 260,-332.91 20,-332.91 20,-332.91 14,-332.91 8,-326.91 8,-320.91 8,-320.91 8,-230.95 8,-230.95 8,-224.95 14,-218.95 20,-218.95"/>
<text text-anchor="middle" x="231" y="-226.75" font-family="Times,serif" font-size="14.00">item (20)</text>
</g>
<g id="clust3" class="cluster">
<title>clusteruser (1000)</title>
<path fill="none" stroke="black" d="M292,-218.95C292,-218.95 382,-218.95 382,-218.95 388,-218.95 394,-224.95 394,-230.95 394,-230.95 394,-320.91 394,-320.91 394,-326.91 388,-332.91 382,-332.91 382,-332.91 292,-332.91 292,-332.91 286,-332.91 280,-326.91 280,-320.91 280,-320.91 280,-230.95 280,-230.95 280,-224.95 286,-218.95 292,-218.95"/>
<text text-anchor="middle" x="344.5" y="-226.75" font-family="Times,serif" font-size="14.00">user (1000)</text>
</g>
<!-- obs -->
<g id="node1" class="node">
<title>obs</title>
<ellipse fill="lightgrey" stroke="black" cx="198" cy="-165.48" rx="57.97" ry="37.45"/>
<text text-anchor="middle" x="198" y="-176.78" font-family="Times,serif" font-size="14.00">obs</text>
<text text-anchor="middle" x="198" y="-161.78" font-family="Times,serif" font-size="14.00">~</text>
<text text-anchor="middle" x="198" y="-146.78" font-family="Times,serif" font-size="14.00">Bernoulli</text>
</g>
<!-- responses -->
<g id="node2" class="node">
<title>responses</title>
<path fill="lightgrey" stroke="black" d="M230.5,-92C230.5,-92 165.5,-92 165.5,-92 159.5,-92 153.5,-86 153.5,-80 153.5,-80 153.5,-51 153.5,-51 153.5,-45 159.5,-39 165.5,-39 165.5,-39 230.5,-39 230.5,-39 236.5,-39 242.5,-45 242.5,-51 242.5,-51 242.5,-80 242.5,-80 242.5,-86 236.5,-92 230.5,-92"/>
<text text-anchor="middle" x="198" y="-76.8" font-family="Times,serif" font-size="14.00">responses</text>
<text text-anchor="middle" x="198" y="-61.8" font-family="Times,serif" font-size="14.00">~</text>
<text text-anchor="middle" x="198" y="-46.8" font-family="Times,serif" font-size="14.00">Data</text>
</g>
<!-- obs&#45;&gt;responses -->
<g id="edge1" class="edge">
<title>obs&#45;&gt;responses</title>
<path fill="none" stroke="black" d="M198,-127.99C198,-119.58 198,-110.63 198,-102.25"/>
<polygon fill="black" stroke="black" points="201.5,-102.01 198,-92.01 194.5,-102.01 201.5,-102.01"/>
</g>
<!-- a -->
<g id="node3" class="node">
<title>a</title>
<ellipse fill="none" stroke="black" cx="198" cy="-287.43" rx="65.52" ry="37.45"/>
<text text-anchor="middle" x="198" y="-298.73" font-family="Times,serif" font-size="14.00">a</text>
<text text-anchor="middle" x="198" y="-283.73" font-family="Times,serif" font-size="14.00">~</text>
<text text-anchor="middle" x="198" y="-268.73" font-family="Times,serif" font-size="14.00">Lognormal</text>
</g>
<!-- a&#45;&gt;obs -->
<g id="edge3" class="edge">
<title>a&#45;&gt;obs</title>
<path fill="none" stroke="black" d="M198,-249.79C198,-238.38 198,-225.65 198,-213.63"/>
<polygon fill="black" stroke="black" points="201.5,-213.31 198,-203.31 194.5,-213.31 201.5,-213.31"/>
</g>
<!-- b -->
<g id="node4" class="node">
<title>b</title>
<ellipse fill="none" stroke="black" cx="65" cy="-287.43" rx="49.49" ry="37.45"/>
<text text-anchor="middle" x="65" y="-298.73" font-family="Times,serif" font-size="14.00">b</text>
<text text-anchor="middle" x="65" y="-283.73" font-family="Times,serif" font-size="14.00">~</text>
<text text-anchor="middle" x="65" y="-268.73" font-family="Times,serif" font-size="14.00">Normal</text>
</g>
<!-- b&#45;&gt;obs -->
<g id="edge4" class="edge">
<title>b&#45;&gt;obs</title>
<path fill="none" stroke="black" d="M89.46,-254.72C99.28,-242.89 111.09,-229.73 123,-218.95 131.03,-211.69 140.1,-204.57 149.08,-198.04"/>
<polygon fill="black" stroke="black" points="151.15,-200.86 157.28,-192.22 147.1,-195.15 151.15,-200.86"/>
</g>
<!-- theta -->
<g id="node5" class="node">
<title>theta</title>
<ellipse fill="none" stroke="black" cx="337" cy="-287.43" rx="49.49" ry="37.45"/>
<text text-anchor="middle" x="337" y="-298.73" font-family="Times,serif" font-size="14.00">theta</text>
<text text-anchor="middle" x="337" y="-283.73" font-family="Times,serif" font-size="14.00">~</text>
<text text-anchor="middle" x="337" y="-268.73" font-family="Times,serif" font-size="14.00">Normal</text>
</g>
<!-- theta&#45;&gt;obs -->
<g id="edge2" class="edge">
<title>theta&#45;&gt;obs</title>
<path fill="none" stroke="black" d="M311.45,-255.03C301.05,-243.11 288.53,-229.81 276,-218.95 267.41,-211.51 257.73,-204.24 248.18,-197.59"/>
<polygon fill="black" stroke="black" points="250.09,-194.66 239.85,-191.92 246.15,-200.44 250.09,-194.66"/>
</g>
</g>
</svg>