<?xml version="1.0" encoding="UTF-8" standalone="no"?>
<!DOCTYPE svg PUBLIC "-//W3C//DTD SVG 1.1//EN"
 "http://www.w3.org/Graphics/SVG/1.1/DTD/svg11.dtd">
<!-- Generated by graphviz version 2.43.0 (0)
 -->
<!-- Title: %3 Pages: 1 -->
<svg width="420pt" height="438pt"
 viewBox="0.00 0.00 420.00 437.91" xmlns="http://www.w3.org/2000/svg" xmlns:xlink="http://www.w3.org/1999/xlink">
<g id="graph0" class="graph" transform="scale(1 1) rotate(0) translate(4 433.91)">
<title>%3</title>
<polygon fill="white" stroke="transparent" points="-4,4 -4,-433.91 416,-433.91 416,4 -4,4"/>
<g id="clust1" class="cluster">
<title>cluster10000</title>
<path fill="none" stroke="black" d="M155,-8C155,-8 263,-8 263,-8 269,-8 275,-14 275,-20 275,-20 275,-287.95 275,-287.95 275,-293.95 269,-299.95 263,-299.95 263,-299.95 155,-299.95 155,-299.95 149,-299.95 143,-293.95 143,-287.95 143,-287.95 143,-20 143,-20 143,-14 149,-8 155,-8"/>
<text text-anchor="middle" x="244" y="-15.8" font-family="Times,serif" font-size="14.00">10000</text>
</g>
<g id="clust2" class="cluster">
<title>clusteruser (1000)</title>
<path fill="none" stroke="black" d="M20,-307.95C20,-307.95 110,-307.95 110,-307.95 116,-307.95 122,-313.95 122,-319.95 122,-319.95 122,-409.91 122,-409.91 122,-415.91 116,-421.91 110,-421.91 110,-421.91 20,-421.91 20,-421.91 14,-421.91 8,-415.91 8,-409.91 8,-409.91 8,-319.95 8,-319.95 8,-313.95 14,-307.95 20,-307.95"/>
<text text-anchor="middle" x="72.5" y="-315.75" font-family="Times,serif" font-size="14.00">user (1000)</text>
</g>
<g id="clust3" class="cluster">
<title>clusteritem (10)</title>
<path fill="none" stroke="black" d="M142,-307.95C142,-307.95 392,-307.95 392,-307.95 398,-307.95 404,-313.95 404,-319.95 404,-319.95 404,-409.91 404,-409.91 404,-415.91 398,-421.91 392,-421.91 392,-421.91 142,-421.91 142,-421.91 136,-421.91 130,-415.91 130,-409.91 130,-409.91 130,-319.95 130,-319.95 130,-313.95 136,-307.95 142,-307.95"/>
<text text-anchor="middle" x="363" y="-315.75" font-family="Times,serif" font-size="14.00">item (10)</text>
</g>
<!-- responses -->
<g id="node1" class="node">
<title>responses</title>
<path fill="lightgrey" stroke="black" d="M241.5,-92C241.5,-92 176.5,-92 176.5,-92 170.5,-92 164.5,-86 164.5,-80 164.5,-80 164.5,-51 164.5,-51 164.5,-45 170.5,-39 176.5,-39 176.5,-39 241.5,-39 241.5,-39 247.5,-39 253.5,-45 253.5,-51 253.5,-51 253.5,-80 253.5,-80 253.5,-86 247.5,-92 241.5,-92"/>
<text text-anchor="middle" x="209" y="-76.8" font-family="Times,serif" font-size="14.00">responses</text>
<text text-anchor="middle" x="209" y="-61.8" font-family="Times,serif" font-size="14.00">~</text>
<text text-anchor="middle" x="209" y="-46.8" font-family="Times,serif" font-size="14.00">Data</text>
</g>
<!-- logit_p -->
<g id="node2" class="node">
<title>logit_p</title>
<polygon fill="none" stroke="black" points="266,-291.95 152,-291.95 152,-238.95 266,-238.95 266,-291.95"/>
<text text-anchor="middle" x="209" y="-276.75" font-family="Times,serif" font-size="14.00">logit_p</text>
<text text-anchor="middle" x="209" y="-261.75" font-family="Times,serif" font-size="14.00">~</text>
<text text-anchor="middle" x="209" y="-246.75" font-family="Times,serif" font-size="14.00">Deterministic</text>
</g>
<!-- obs -->
<g id="node3" class="node">
<title>obs</title>
<ellipse fill="lightgrey" stroke="black" cx="209" cy="-165.48" rx="57.97" ry="37.45"/>
<text text-anchor="middle" x="209" y="-176.78" font-family="Times,serif" font-size="14.00">obs</text>
<text text-anchor="middle" x="209" y="-161.78" font-family="Times,serif" font-size="14.00">~</text>
<text text-anchor="middle" x="209" y="-146.78" font-family="Times,serif" font-size="14.00">Bernoulli</text>
</g>
<!-- logit_p&#45;&gt;obs -->
<g id="edge5" class="edge">
<title>logit_p&#45;&gt;obs</title>
<path fill="none" stroke="black" d="M209,-238.71C209,-230.89 209,-222.03 209,-213.27"/>
<polygon fill="black" stroke="black" points="212.5,-213.1 209,-203.1 205.5,-213.1 212.5,-213.1"/>
</g>
<!-- obs&#45;&gt;responses -->
<g id="edge1" class="edge">
<title>obs&#45;&gt;responses</title>
<path fill="none" stroke="black" d="M209,-127.99C209,-119.58 209,-110.63 209,-102.25"/>
<polygon fill="black" stroke="black" points="212.5,-102.01 209,-92.01 205.5,-102.01 212.5,-102.01"/>
</g>
<!-- theta -->
<g id="node4" class="node">
<title>theta</title>
<ellipse fill="none" stroke="black" cx="65" cy="-376.43" rx="49.49" ry="37.45"/>
<text text-anchor="middle" x="65" y="-387.73" font-family="Times,serif" font-size="14.00">theta</text>
<text text-anchor="middle" x="65" y="-372.73" font-family="Times,serif" font-size="14.00">~</text>
<text text-anchor="middle" x="65" y="-357.73" font-family="Times,serif" font-size="14.00">Normal</text>
</g>
<!-- theta&#45;&gt;logit_p -->
<g id="edge4" class="edge">
<title>theta&#45;&gt;logit_p</title>
<path fill="none" stroke="black" d="M89.56,-343.51C99.92,-331.39 112.67,-318.08 126,-307.95 131.34,-303.89 137.15,-300.06 143.12,-296.48"/>
<polygon fill="black" stroke="black" points="145.01,-299.43 151.95,-291.42 141.53,-293.35 145.01,-299.43"/>
</g>
<!-- beta -->
<g id="node5" class="node">
<title>beta</title>
<ellipse fill="none" stroke="black" cx="347" cy="-376.43" rx="49.49" ry="37.45"/>
<text text-anchor="middle" x="347" y="-387.73" font-family="Times,serif" font-size="14.00">beta</text>
<text text-anchor="middle" x="347" y="-372.73" font-family="Times,serif" font-size="14.00">~</text>
<text text-anchor="middle" x="347" y="-357.73" font-family="Times,serif" font-size="14.00">Normal</text>
</g>
<!-- beta&#45;&gt;logit_p -->
<g id="edge2" class="edge">
<title>beta&#45;&gt;logit_p</title>
<path fill="none" stroke="black" d="M323.54,-343.2C313.76,-331.18 301.72,-318.02 289,-307.95 284.36,-304.28 279.35,-300.79 274.18,-297.51"/>
<polygon fill="black" stroke="black" points="275.72,-294.35 265.35,-292.18 272.1,-300.34 275.72,-294.35"/>
</g>
<!-- a -->
<g id="node6" class="node">
<title>a</title>
<ellipse fill="none" stroke="black" cx="209" cy="-376.43" rx="70.92" ry="37.45"/>
<text text-anchor="middle" x="209" y="-387.73" font-family="Times,serif" font-size="14.00">a</text>
<text text-anchor="middle" x="209" y="-372.73" font-family="Times,serif" font-size="14.00">~</text>
<text text-anchor="middle" x="209" y="-357.73" font-family="Times,serif" font-size="14.00">HalfNormal</text>
</g>
<!-- a&#45;&gt;logit_p -->
<g id="edge3" class="edge">
<title>a&#45;&gt;logit_p</title>
<path fill="none" stroke="black" d="M209,-338.84C209,-327.1 209,-314.11 209,-302.42"/>
<polygon fill="black" stroke="black" points="212.5,-302.11 209,-292.11 205.5,-302.11 212.5,-302.11"/>
</g>
</g>
</svg>