<?xml version="1.0" encoding="UTF-8" standalone="no"?>
<!DOCTYPE svg PUBLIC "-//W3C//DTD SVG 1.1//EN"
 "http://www.w3.org/Graphics/SVG/1.1/DTD/svg11.dtd">
<!-- Generated by graphviz version 2.42.4 (0)
 -->
<!-- Title: g Pages: 1 -->
<svg width="188pt" height="119pt"
 viewBox="0.00 0.00 188.00 118.70" xmlns="http://www.w3.org/2000/svg" xmlns:xlink="http://www.w3.org/1999/xlink">
<g id="graph0" class="graph" transform="scale(1 1) rotate(0) translate(4 114.7)">
<title>g</title>
<polygon fill="white" stroke="transparent" points="-4,4 -4,-114.7 184,-114.7 184,4 -4,4"/>
<!-- X -->
<g id="node1" class="node">
<title>X</title>
<ellipse fill="none" stroke="black" cx="90" cy="-92.7" rx="18" ry="18"/>
<text text-anchor="start" x="85" y="-90" font-family="Times,serif" font-style="italic" font-size="14.00">X</text>
</g>
<!-- Y -->
<g id="node2" class="node">
<title>Y</title>
<ellipse fill="none" stroke="black" cx="162" cy="-92.7" rx="18" ry="18"/>
<text text-anchor="start" x="157" y="-90" font-family="Times,serif" font-style="italic" font-size="14.00">Y</text>
</g>
<!-- X&#45;&gt;Y -->
<g id="edge2" class="edge">
<title>X&#45;&gt;Y</title>
<path fill="none" stroke="black" d="M108.17,-92.7C115.87,-92.7 125.03,-92.7 133.58,-92.7"/>
<polygon fill="black" stroke="black" points="133.59,-96.2 143.59,-92.7 133.59,-89.2 133.59,-96.2"/>
<text text-anchor="start" x="121.5" y="-100.5" font-family="Times,serif" font-style="italic" font-size="14.00">β</text>
</g>
<!-- Z -->
<g id="node3" class="node">
<title>Z</title>
<ellipse fill="none" stroke="black" cx="18" cy="-92.7" rx="18" ry="18"/>
<text text-anchor="start" x="13" y="-90" font-family="Times,serif" font-style="italic" font-size="14.00">Z</text>
</g>
<!-- Z&#45;&gt;X -->
<g id="edge1" class="edge">
<title>Z&#45;&gt;X</title>
<path fill="none" stroke="black" d="M36.17,-92.7C43.87,-92.7 53.03,-92.7 61.58,-92.7"/>
<polygon fill="black" stroke="black" points="61.59,-96.2 71.59,-92.7 61.59,-89.2 61.59,-96.2"/>
<text text-anchor="start" x="49.5" y="-100.5" font-family="Times,serif" font-style="italic" font-size="14.00">γ</text>
</g>
<!-- U -->
<g id="node4" class="node">
<title>U</title>
<ellipse fill="none" stroke="black" cx="125" cy="-18.85" rx="18.7" ry="18.7"/>
<text text-anchor="start" x="118.5" y="-16.15" font-family="Times,serif" font-weight="bold" font-style="italic" font-size="14.00">U</text>
</g>
<!-- U&#45;&gt;X -->
<g id="edge3" class="edge">
<title>U&#45;&gt;X</title>
<path fill="none" stroke="black" d="M117.06,-36.16C112.63,-45.23 107.04,-56.72 102.09,-66.88"/>
<polygon fill="black" stroke="black" points="98.83,-65.58 97.59,-76.11 105.12,-68.65 98.83,-65.58"/>
</g>
<!-- U&#45;&gt;Y -->
<g id="edge4" class="edge">
<title>U&#45;&gt;Y</title>
<path fill="none" stroke="black" d="M133.35,-36.06C138.12,-45.33 144.2,-57.13 149.53,-67.48"/>
<polygon fill="black" stroke="black" points="146.46,-69.17 154.15,-76.46 152.69,-65.97 146.46,-69.17"/>
</g>
</g>
</svg>