<?xml version="1.0" encoding="UTF-8" standalone="no"?>
<!DOCTYPE svg PUBLIC "-//W3C//DTD SVG 1.1//EN"
 "http://www.w3.org/Graphics/SVG/1.1/DTD/svg11.dtd">
<!-- Generated by graphviz version 2.43.0 (0)
 -->
<!-- Title: step1 Pages: 1 -->
<svg width="265pt" height="158pt"
 viewBox="0.00 0.00 265.00 157.99" xmlns="http://www.w3.org/2000/svg" xmlns:xlink="http://www.w3.org/1999/xlink">
<g id="graph0" class="graph" transform="scale(1 1) rotate(0) translate(4 153.99)">
<title>step1</title>
<polygon fill="white" stroke="transparent" points="-4,4 -4,-153.99 261,-153.99 261,4 -4,4"/>
<text text-anchor="middle" x="128.5" y="-134.79" font-family="Times,serif" font-size="14.00">Step 1: 初期状態（完全無向グラフ）</text>
<!-- X1 -->
<g id="node1" class="node">
<title>X1</title>
<ellipse fill="none" stroke="black" cx="97" cy="-104.24" rx="23" ry="23"/>
<text text-anchor="middle" x="97" y="-100.54" font-family="Times,serif" font-size="14.00">X1</text>
</g>
<!-- X2 -->
<g id="node2" class="node">
<title>X2</title>
<ellipse fill="none" stroke="black" cx="160" cy="-104.24" rx="23" ry="23"/>
<text text-anchor="middle" x="160" y="-100.54" font-family="Times,serif" font-size="14.00">X2</text>
</g>
<!-- X1&#45;&#45;X2 -->
<g id="edge1" class="edge">
<title>X1&#45;&#45;X2</title>
<path fill="none" stroke="black" d="M120.13,-104.24C125.74,-104.24 131.35,-104.24 136.95,-104.24"/>
</g>
<!-- X3 -->
<g id="node3" class="node">
<title>X3</title>
<ellipse fill="none" stroke="black" cx="97" cy="-22.75" rx="23" ry="23"/>
<text text-anchor="middle" x="97" y="-19.05" font-family="Times,serif" font-size="14.00">X3</text>
</g>
<!-- X1&#45;&#45;X3 -->
<g id="edge2" class="edge">
<title>X1&#45;&#45;X3</title>
<path fill="none" stroke="black" d="M97,-81.1C97,-69.98 97,-56.56 97,-45.5"/>
</g>
<!-- X4 -->
<g id="node4" class="node">
<title>X4</title>
<ellipse fill="none" stroke="black" cx="160" cy="-22.75" rx="23" ry="23"/>
<text text-anchor="middle" x="160" y="-19.05" font-family="Times,serif" font-size="14.00">X4</text>
</g>
<!-- X1&#45;&#45;X4 -->
<g id="edge3" class="edge">
<title>X1&#45;&#45;X4</title>
<path fill="none" stroke="black" d="M110.67,-85.99C121.24,-72.66 135.8,-54.29 146.36,-40.96"/>
</g>
<!-- X2&#45;&#45;X3 -->
<g id="edge4" class="edge">
<title>X2&#45;&#45;X3</title>
<path fill="none" stroke="black" d="M146.33,-85.99C135.76,-72.66 121.2,-54.29 110.64,-40.96"/>
</g>
<!-- X2&#45;&#45;X4 -->
<g id="edge5" class="edge">
<title>X2&#45;&#45;X4</title>
<path fill="none" stroke="black" d="M160,-81.1C160,-69.98 160,-56.56 160,-45.5"/>
</g>
<!-- X3&#45;&#45;X4 -->
<g id="edge6" class="edge">
<title>X3&#45;&#45;X4</title>
<path fill="none" stroke="black" d="M120.13,-22.75C125.74,-22.75 131.35,-22.75 136.95,-22.75"/>
</g>
</g>
</svg>