<?xml version="1.0" encoding="UTF-8" standalone="no"?>
<!DOCTYPE svg PUBLIC "-//W3C//DTD SVG 1.1//EN"
 "http://www.w3.org/Graphics/SVG/1.1/DTD/svg11.dtd">
<!-- Generated by graphviz version 2.43.0 (0)
 -->
<!-- Title: G Pages: 1 -->
<svg width="141pt" height="140pt"
 viewBox="0.00 0.00 140.80 140.19" xmlns="http://www.w3.org/2000/svg" xmlns:xlink="http://www.w3.org/1999/xlink">
<g id="graph0" class="graph" transform="scale(1 1) rotate(0) translate(4 136.19)">
<title>G</title>
<polygon fill="white" stroke="transparent" points="-4,4 -4,-136.19 136.8,-136.19 136.8,4 -4,4"/>
<!-- X1 -->
<g id="node1" class="node">
<title>X1</title>
<ellipse fill="none" stroke="black" cx="58.8" cy="-111.39" rx="20.6" ry="20.6"/>
<text text-anchor="middle" x="58.8" y="-107.69" font-family="Times,serif" font-size="14.00">X₁</text>
</g>
<!-- X2 -->
<g id="node2" class="node">
<title>X2</title>
<ellipse fill="none" stroke="black" cx="20.8" cy="-20.8" rx="20.6" ry="20.6"/>
<text text-anchor="middle" x="20.8" y="-17.1" font-family="Times,serif" font-size="14.00">X₂</text>
</g>
<!-- X1&#45;&gt;X2 -->
<g id="edge1" class="edge">
<title>X1&#45;&gt;X2</title>
<path fill="none" stroke="black" d="M50.92,-92.04C45.68,-79.8 38.68,-63.49 32.75,-49.66"/>
<polygon fill="black" stroke="black" points="35.82,-47.94 28.66,-40.13 29.39,-50.7 35.82,-47.94"/>
<text text-anchor="middle" x="47.3" y="-63" font-family="Times,serif" font-size="12.00">α</text>
</g>
<!-- X3 -->
<g id="node3" class="node">
<title>X3</title>
<ellipse fill="none" stroke="black" cx="97.8" cy="-20.8" rx="20.6" ry="20.6"/>
<text text-anchor="middle" x="97.8" y="-17.1" font-family="Times,serif" font-size="14.00">X₃</text>
</g>
<!-- X1&#45;&gt;X3 -->
<g id="edge3" class="edge">
<title>X1&#45;&gt;X3</title>
<path fill="none" stroke="black" d="M66.88,-92.04C72.27,-79.8 79.45,-63.49 85.53,-49.66"/>
<polygon fill="black" stroke="black" points="88.9,-50.69 89.73,-40.13 82.5,-47.87 88.9,-50.69"/>
<text text-anchor="middle" x="106.3" y="-63" font-family="Times,serif" font-size="12.00">β (= &#45;αγ)</text>
</g>
<!-- X2&#45;&gt;X3 -->
<g id="edge2" class="edge">
<title>X2&#45;&gt;X3</title>
<path fill="none" stroke="black" d="M41.84,-20.8C49.48,-20.8 58.28,-20.8 66.61,-20.8"/>
<polygon fill="black" stroke="black" points="66.78,-24.3 76.78,-20.8 66.78,-17.3 66.78,-24.3"/>
<text text-anchor="middle" x="59.3" y="-27.2" font-family="Times,serif" font-size="12.00">γ</text>
</g>
</g>
</svg>