<?xml version="1.0" encoding="UTF-8" standalone="no"?>
<!DOCTYPE svg PUBLIC "-//W3C//DTD SVG 1.1//EN"
 "http://www.w3.org/Graphics/SVG/1.1/DTD/svg11.dtd">
<!-- Generated by graphviz version 2.42.4 (0)
 -->
<!-- Pages: 1 -->
<svg width="156pt" height="233pt"
 viewBox="0.00 0.00 156.00 232.91" xmlns="http://www.w3.org/2000/svg" xmlns:xlink="http://www.w3.org/1999/xlink">
<g id="graph0" class="graph" transform="scale(1 1) rotate(0) translate(4 228.91)">
<polygon fill="white" stroke="transparent" points="-4,4 -4,-228.91 152,-228.91 152,4 -4,4"/>
<g id="clust1" class="cluster">
<title>cluster5</title>
<path fill="none" stroke="black" d="M20,-8C20,-8 128,-8 128,-8 134,-8 140,-14 140,-20 140,-20 140,-109.95 140,-109.95 140,-115.95 134,-121.95 128,-121.95 128,-121.95 20,-121.95 20,-121.95 14,-121.95 8,-115.95 8,-109.95 8,-109.95 8,-20 8,-20 8,-14 14,-8 20,-8"/>
<text text-anchor="middle" x="127" y="-15.8" font-family="Times,serif" font-size="14.00">5</text>
</g>
<!-- p -->
<g id="node1" class="node">
<title>p</title>
<ellipse fill="none" stroke="black" cx="74" cy="-187.43" rx="53.98" ry="37.45"/>
<text text-anchor="middle" x="74" y="-198.73" font-family="Times,serif" font-size="14.00">p</text>
<text text-anchor="middle" x="74" y="-183.73" font-family="Times,serif" font-size="14.00">~</text>
<text text-anchor="middle" x="74" y="-168.73" font-family="Times,serif" font-size="14.00">Uniform</text>
</g>
<!-- X_obs -->
<g id="node2" class="node">
<title>X_obs</title>
<ellipse fill="lightgrey" stroke="black" cx="74" cy="-76.48" rx="57.97" ry="37.45"/>
<text text-anchor="middle" x="74" y="-87.78" font-family="Times,serif" font-size="14.00">X_obs</text>
<text text-anchor="middle" x="74" y="-72.78" font-family="Times,serif" font-size="14.00">~</text>
<text text-anchor="middle" x="74" y="-57.78" font-family="Times,serif" font-size="14.00">Bernoulli</text>
</g>
<!-- p&#45;&gt;X_obs -->
<g id="edge1" class="edge">
<title>p&#45;&gt;X_obs</title>
<path fill="none" stroke="black" d="M74,-149.85C74,-141.67 74,-132.89 74,-124.37"/>
<polygon fill="black" stroke="black" points="77.5,-124.15 74,-114.15 70.5,-124.15 77.5,-124.15"/>
</g>
</g>
</svg>