<?xml version="1.0" encoding="UTF-8" standalone="no"?>
<!DOCTYPE svg PUBLIC "-//W3C//DTD SVG 1.1//EN"
 "http://www.w3.org/Graphics/SVG/1.1/DTD/svg11.dtd">
<!-- Generated by graphviz version 2.43.0 (0)
 -->
<!-- Title: %3 Pages: 1 -->
<svg width="410pt" height="349pt"
 viewBox="0.00 0.00 410.00 348.91" xmlns="http://www.w3.org/2000/svg" xmlns:xlink="http://www.w3.org/1999/xlink">
<g id="graph0" class="graph" transform="scale(1 1) rotate(0) translate(4 344.91)">
<title>%3</title>
<polygon fill="white" stroke="transparent" points="-4,4 -4,-344.91 406,-344.91 406,4 -4,4"/>
<g id="clust1" class="cluster">
<title>cluster15000</title>
<path fill="none" stroke="black" d="M161,-8C161,-8 269,-8 269,-8 275,-8 281,-14 281,-20 281,-20 281,-198.95 281,-198.95 281,-204.95 275,-210.95 269,-210.95 269,-210.95 161,-210.95 161,-210.95 155,-210.95 149,-204.95 149,-198.95 149,-198.95 149,-20 149,-20 149,-14 155,-8 161,-8"/>
<text text-anchor="middle" x="250" y="-15.8" font-family="Times,serif" font-size="14.00">15000</text>
</g>
<g id="clust2" class="cluster">
<title>clusteritem (15)</title>
<path fill="none" stroke="black" d="M20,-218.95C20,-218.95 260,-218.95 260,-218.95 266,-218.95 272,-224.95 272,-230.95 272,-230.95 272,-320.91 272,-320.91 272,-326.91 266,-332.91 260,-332.91 260,-332.91 20,-332.91 20,-332.91 14,-332.91 8,-326.91 8,-320.91 8,-320.91 8,-230.95 8,-230.95 8,-224.95 14,-218.95 20,-218.95"/>
<text text-anchor="middle" x="231" y="-226.75" font-family="Times,serif" font-size="14.00">item (15)</text>
</g>
<g id="clust3" class="cluster">
<title>clusteruser (1000)</title>
<path fill="none" stroke="black" d="M292,-218.95C292,-218.95 382,-218.95 382,-218.95 388,-218.95 394,-224.95 394,-230.95 394,-230.95 394,-320.91 394,-320.91 394,-326.91 388,-332.91 382,-332.91 382,-332.91 292,-332.91 292,-332.91 286,-332.91 280,-326.91 280,-320.91 280,-320.91 280,-230.95 280,-230.95 280,-224.95 286,-218.95 292,-218.95"/>
<text text-anchor="middle" x="344.5" y="-226.75" font-family="Times,serif" font-size="14.00">user (1000)</text>
</g>
<!-- responses -->
<g id="node1" class="node">
<title>responses</title>
<path fill="lightgrey" stroke="black" d="M247.5,-92C247.5,-92 182.5,-92 182.5,-92 176.5,-92 170.5,-86 170.5,-80 170.5,-80 170.5,-51 170.5,-51 170.5,-45 176.5,-39 182.5,-39 182.5,-39 247.5,-39 247.5,-39 253.5,-39 259.5,-45 259.5,-51 259.5,-51 259.5,-80 259.5,-80 259.5,-86 253.5,-92 247.5,-92"/>
<text text-anchor="middle" x="215" y="-76.8" font-family="Times,serif" font-size="14.00">responses</text>
<text text-anchor="middle" x="215" y="-61.8" font-family="Times,serif" font-size="14.00">~</text>
<text text-anchor="middle" x="215" y="-46.8" font-family="Times,serif" font-size="14.00">Data</text>
</g>
<!-- obs -->
<g id="node2" class="node">
<title>obs</title>
<ellipse fill="lightgrey" stroke="black" cx="215" cy="-165.48" rx="57.97" ry="37.45"/>
<text text-anchor="middle" x="215" y="-176.78" font-family="Times,serif" font-size="14.00">obs</text>
<text text-anchor="middle" x="215" y="-161.78" font-family="Times,serif" font-size="14.00">~</text>
<text text-anchor="middle" x="215" y="-146.78" font-family="Times,serif" font-size="14.00">Bernoulli</text>
</g>
<!-- obs&#45;&gt;responses -->
<g id="edge1" class="edge">
<title>obs&#45;&gt;responses</title>
<path fill="none" stroke="black" d="M215,-127.99C215,-119.58 215,-110.63 215,-102.25"/>
<polygon fill="black" stroke="black" points="218.5,-102.01 215,-92.01 211.5,-102.01 218.5,-102.01"/>
</g>
<!-- b -->
<g id="node3" class="node">
<title>b</title>
<ellipse fill="none" stroke="black" cx="215" cy="-287.43" rx="49.49" ry="37.45"/>
<text text-anchor="middle" x="215" y="-298.73" font-family="Times,serif" font-size="14.00">b</text>
<text text-anchor="middle" x="215" y="-283.73" font-family="Times,serif" font-size="14.00">~</text>
<text text-anchor="middle" x="215" y="-268.73" font-family="Times,serif" font-size="14.00">Normal</text>
</g>
<!-- b&#45;&gt;obs -->
<g id="edge3" class="edge">
<title>b&#45;&gt;obs</title>
<path fill="none" stroke="black" d="M215,-249.79C215,-238.38 215,-225.65 215,-213.63"/>
<polygon fill="black" stroke="black" points="218.5,-213.31 215,-203.31 211.5,-213.31 218.5,-213.31"/>
</g>
<!-- a -->
<g id="node4" class="node">
<title>a</title>
<ellipse fill="none" stroke="black" cx="82" cy="-287.43" rx="65.52" ry="37.45"/>
<text text-anchor="middle" x="82" y="-298.73" font-family="Times,serif" font-size="14.00">a</text>
<text text-anchor="middle" x="82" y="-283.73" font-family="Times,serif" font-size="14.00">~</text>
<text text-anchor="middle" x="82" y="-268.73" font-family="Times,serif" font-size="14.00">Lognormal</text>
</g>
<!-- a&#45;&gt;obs -->
<g id="edge4" class="edge">
<title>a&#45;&gt;obs</title>
<path fill="none" stroke="black" d="M116.6,-255.23C134.24,-239.31 155.81,-219.86 174.26,-203.22"/>
<polygon fill="black" stroke="black" points="176.87,-205.58 181.95,-196.28 172.18,-200.38 176.87,-205.58"/>
</g>
<!-- theta -->
<g id="node5" class="node">
<title>theta</title>
<ellipse fill="none" stroke="black" cx="337" cy="-287.43" rx="49.49" ry="37.45"/>
<text text-anchor="middle" x="337" y="-298.73" font-family="Times,serif" font-size="14.00">theta</text>
<text text-anchor="middle" x="337" y="-283.73" font-family="Times,serif" font-size="14.00">~</text>
<text text-anchor="middle" x="337" y="-268.73" font-family="Times,serif" font-size="14.00">Normal</text>
</g>
<!-- theta&#45;&gt;obs -->
<g id="edge2" class="edge">
<title>theta&#45;&gt;obs</title>
<path fill="none" stroke="black" d="M310.45,-255.44C300.03,-243.71 287.76,-230.42 276,-218.95 270.31,-213.4 264.13,-207.72 257.96,-202.24"/>
<polygon fill="black" stroke="black" points="260.02,-199.39 250.19,-195.44 255.41,-204.66 260.02,-199.39"/>
</g>
</g>
</svg>