<?xml version="1.0" encoding="UTF-8" standalone="no"?>
<!DOCTYPE svg PUBLIC "-//W3C//DTD SVG 1.1//EN"
 "http://www.w3.org/Graphics/SVG/1.1/DTD/svg11.dtd">
<!-- Generated by graphviz version 2.42.4 (0)
 -->
<!-- Pages: 1 -->
<svg width="496pt" height="233pt"
 viewBox="0.00 0.00 495.99 232.91" xmlns="http://www.w3.org/2000/svg" xmlns:xlink="http://www.w3.org/1999/xlink">
<g id="graph0" class="graph" transform="scale(1 1) rotate(0) translate(4 228.91)">
<polygon fill="white" stroke="transparent" points="-4,4 -4,-228.91 491.99,-228.91 491.99,4 -4,4"/>
<g id="clust1" class="cluster">
<title>cluster1000</title>
<path fill="none" stroke="black" d="M208.5,-8C208.5,-8 298.5,-8 298.5,-8 304.5,-8 310.5,-14 310.5,-20 310.5,-20 310.5,-109.95 310.5,-109.95 310.5,-115.95 304.5,-121.95 298.5,-121.95 298.5,-121.95 208.5,-121.95 208.5,-121.95 202.5,-121.95 196.5,-115.95 196.5,-109.95 196.5,-109.95 196.5,-20 196.5,-20 196.5,-14 202.5,-8 208.5,-8"/>
<text text-anchor="middle" x="284" y="-15.8" font-family="Times,serif" font-size="14.00">1000</text>
</g>
<!-- beta0 -->
<g id="node1" class="node">
<title>beta0</title>
<ellipse fill="none" stroke="black" cx="49.5" cy="-187.43" rx="49.49" ry="37.45"/>
<text text-anchor="middle" x="49.5" y="-198.73" font-family="Times,serif" font-size="14.00">beta0</text>
<text text-anchor="middle" x="49.5" y="-183.73" font-family="Times,serif" font-size="14.00">~</text>
<text text-anchor="middle" x="49.5" y="-168.73" font-family="Times,serif" font-size="14.00">Normal</text>
</g>
<!-- y_obs -->
<g id="node5" class="node">
<title>y_obs</title>
<ellipse fill="lightgrey" stroke="black" cx="253.5" cy="-76.48" rx="49.49" ry="37.45"/>
<text text-anchor="middle" x="253.5" y="-87.78" font-family="Times,serif" font-size="14.00">y_obs</text>
<text text-anchor="middle" x="253.5" y="-72.78" font-family="Times,serif" font-size="14.00">~</text>
<text text-anchor="middle" x="253.5" y="-57.78" font-family="Times,serif" font-size="14.00">Normal</text>
</g>
<!-- beta0&#45;&gt;y_obs -->
<g id="edge1" class="edge">
<title>beta0&#45;&gt;y_obs</title>
<path fill="none" stroke="black" d="M86.6,-162.32C93.48,-158.08 100.65,-153.79 107.5,-149.95 138.43,-132.61 174.07,-114.87 202.39,-101.29"/>
<polygon fill="black" stroke="black" points="204.18,-104.31 211.7,-96.85 201.17,-98 204.18,-104.31"/>
</g>
<!-- sigma -->
<g id="node2" class="node">
<title>sigma</title>
<ellipse fill="none" stroke="black" cx="185.5" cy="-187.43" rx="68.68" ry="37.45"/>
<text text-anchor="middle" x="185.5" y="-198.73" font-family="Times,serif" font-size="14.00">sigma</text>
<text text-anchor="middle" x="185.5" y="-183.73" font-family="Times,serif" font-size="14.00">~</text>
<text text-anchor="middle" x="185.5" y="-168.73" font-family="Times,serif" font-size="14.00">Halfnormal</text>
</g>
<!-- sigma&#45;&gt;y_obs -->
<g id="edge2" class="edge">
<title>sigma&#45;&gt;y_obs</title>
<path fill="none" stroke="black" d="M207.2,-151.66C213.58,-141.44 220.62,-130.15 227.25,-119.53"/>
<polygon fill="black" stroke="black" points="230.37,-121.14 232.7,-110.81 224.43,-117.44 230.37,-121.14"/>
</g>
<!-- beta2 -->
<g id="node3" class="node">
<title>beta2</title>
<ellipse fill="none" stroke="black" cx="321.5" cy="-187.43" rx="49.49" ry="37.45"/>
<text text-anchor="middle" x="321.5" y="-198.73" font-family="Times,serif" font-size="14.00">beta2</text>
<text text-anchor="middle" x="321.5" y="-183.73" font-family="Times,serif" font-size="14.00">~</text>
<text text-anchor="middle" x="321.5" y="-168.73" font-family="Times,serif" font-size="14.00">Normal</text>
</g>
<!-- beta2&#45;&gt;y_obs -->
<g id="edge3" class="edge">
<title>beta2&#45;&gt;y_obs</title>
<path fill="none" stroke="black" d="M300.73,-153.15C294.07,-142.48 286.61,-130.53 279.62,-119.33"/>
<polygon fill="black" stroke="black" points="282.41,-117.18 274.14,-110.55 276.47,-120.89 282.41,-117.18"/>
</g>
<!-- beta1 -->
<g id="node4" class="node">
<title>beta1</title>
<ellipse fill="none" stroke="black" cx="438.5" cy="-187.43" rx="49.49" ry="37.45"/>
<text text-anchor="middle" x="438.5" y="-198.73" font-family="Times,serif" font-size="14.00">beta1</text>
<text text-anchor="middle" x="438.5" y="-183.73" font-family="Times,serif" font-size="14.00">~</text>
<text text-anchor="middle" x="438.5" y="-168.73" font-family="Times,serif" font-size="14.00">Normal</text>
</g>
<!-- beta1&#45;&gt;y_obs -->
<g id="edge4" class="edge">
<title>beta1&#45;&gt;y_obs</title>
<path fill="none" stroke="black" d="M400.84,-162.9C393.77,-158.56 386.43,-154.09 379.5,-149.95 353.84,-134.65 324.97,-118 301.35,-104.53"/>
<polygon fill="black" stroke="black" points="302.99,-101.43 292.56,-99.52 299.52,-107.51 302.99,-101.43"/>
</g>
</g>
</svg>