<?xml version="1.0" encoding="UTF-8" standalone="no"?>
<!DOCTYPE svg PUBLIC "-//W3C//DTD SVG 1.1//EN"
 "http://www.w3.org/Graphics/SVG/1.1/DTD/svg11.dtd">
<!-- Generated by graphviz version 2.43.0 (0)
 -->
<!-- Title: %3 Pages: 1 -->
<svg width="500pt" height="344pt"
 viewBox="0.00 0.00 499.99 343.86" xmlns="http://www.w3.org/2000/svg" xmlns:xlink="http://www.w3.org/1999/xlink">
<g id="graph0" class="graph" transform="scale(1 1) rotate(0) translate(4 339.86)">
<title>%3</title>
<polygon fill="white" stroke="transparent" points="-4,4 -4,-339.86 495.99,-339.86 495.99,4 -4,4"/>
<g id="clust1" class="cluster">
<title>cluster1000</title>
<path fill="none" stroke="black" d="M120.5,-8C120.5,-8 254.5,-8 254.5,-8 260.5,-8 266.5,-14 266.5,-20 266.5,-20 266.5,-220.91 266.5,-220.91 266.5,-226.91 260.5,-232.91 254.5,-232.91 254.5,-232.91 120.5,-232.91 120.5,-232.91 114.5,-232.91 108.5,-226.91 108.5,-220.91 108.5,-220.91 108.5,-20 108.5,-20 108.5,-14 114.5,-8 120.5,-8"/>
<text text-anchor="middle" x="240" y="-15.8" font-family="Times,serif" font-size="14.00">1000</text>
</g>
<!-- beta2 -->
<g id="node1" class="node">
<title>beta2</title>
<ellipse fill="none" stroke="black" cx="49.5" cy="-187.43" rx="49.49" ry="37.45"/>
<text text-anchor="middle" x="49.5" y="-198.73" font-family="Times,serif" font-size="14.00">beta2</text>
<text text-anchor="middle" x="49.5" y="-183.73" font-family="Times,serif" font-size="14.00">~</text>
<text text-anchor="middle" x="49.5" y="-168.73" font-family="Times,serif" font-size="14.00">Normal</text>
</g>
<!-- y_obs -->
<g id="node8" class="node">
<title>y_obs</title>
<ellipse fill="lightgrey" stroke="black" cx="198.5" cy="-76.48" rx="49.49" ry="37.45"/>
<text text-anchor="middle" x="198.5" y="-87.78" font-family="Times,serif" font-size="14.00">y_obs</text>
<text text-anchor="middle" x="198.5" y="-72.78" font-family="Times,serif" font-size="14.00">~</text>
<text text-anchor="middle" x="198.5" y="-57.78" font-family="Times,serif" font-size="14.00">Normal</text>
</g>
<!-- beta2&#45;&gt;y_obs -->
<g id="edge7" class="edge">
<title>beta2&#45;&gt;y_obs</title>
<path fill="none" stroke="black" d="M84.81,-160.61C105.87,-145.21 132.77,-125.54 155.12,-109.2"/>
<polygon fill="black" stroke="black" points="157.43,-111.84 163.44,-103.11 153.3,-106.19 157.43,-111.84"/>
</g>
<!-- beta1 -->
<g id="node2" class="node">
<title>beta1</title>
<ellipse fill="none" stroke="black" cx="325.5" cy="-187.43" rx="49.49" ry="37.45"/>
<text text-anchor="middle" x="325.5" y="-198.73" font-family="Times,serif" font-size="14.00">beta1</text>
<text text-anchor="middle" x="325.5" y="-183.73" font-family="Times,serif" font-size="14.00">~</text>
<text text-anchor="middle" x="325.5" y="-168.73" font-family="Times,serif" font-size="14.00">Normal</text>
</g>
<!-- beta1&#45;&gt;y_obs -->
<g id="edge6" class="edge">
<title>beta1&#45;&gt;y_obs</title>
<path fill="none" stroke="black" d="M293.12,-158.65C276.55,-144.44 256.23,-127 238.66,-111.94"/>
<polygon fill="black" stroke="black" points="240.68,-109.06 230.81,-105.2 236.13,-114.37 240.68,-109.06"/>
</g>
<!-- beta0 -->
<g id="node3" class="node">
<title>beta0</title>
<ellipse fill="none" stroke="black" cx="442.5" cy="-187.43" rx="49.49" ry="37.45"/>
<text text-anchor="middle" x="442.5" y="-198.73" font-family="Times,serif" font-size="14.00">beta0</text>
<text text-anchor="middle" x="442.5" y="-183.73" font-family="Times,serif" font-size="14.00">~</text>
<text text-anchor="middle" x="442.5" y="-168.73" font-family="Times,serif" font-size="14.00">Normal</text>
</g>
<!-- beta0&#45;&gt;y_obs -->
<g id="edge4" class="edge">
<title>beta0&#45;&gt;y_obs</title>
<path fill="none" stroke="black" d="M405.63,-162.23C398.42,-157.9 390.82,-153.61 383.5,-149.95 341.01,-128.72 290.71,-109.36 253.29,-96"/>
<polygon fill="black" stroke="black" points="254.17,-92.6 243.58,-92.56 251.84,-99.2 254.17,-92.6"/>
</g>
<!-- w1 -->
<g id="node4" class="node">
<title>w1</title>
<ellipse fill="none" stroke="black" cx="70.5" cy="-298.38" rx="49.49" ry="37.45"/>
<text text-anchor="middle" x="70.5" y="-309.68" font-family="Times,serif" font-size="14.00">w1</text>
<text text-anchor="middle" x="70.5" y="-294.68" font-family="Times,serif" font-size="14.00">~</text>
<text text-anchor="middle" x="70.5" y="-279.68" font-family="Times,serif" font-size="14.00">Normal</text>
</g>
<!-- sigma -->
<g id="node7" class="node">
<title>sigma</title>
<ellipse fill="none" stroke="black" cx="187.5" cy="-187.43" rx="70.92" ry="37.45"/>
<text text-anchor="middle" x="187.5" y="-198.73" font-family="Times,serif" font-size="14.00">sigma</text>
<text text-anchor="middle" x="187.5" y="-183.73" font-family="Times,serif" font-size="14.00">~</text>
<text text-anchor="middle" x="187.5" y="-168.73" font-family="Times,serif" font-size="14.00">HalfNormal</text>
</g>
<!-- w1&#45;&gt;sigma -->
<g id="edge1" class="edge">
<title>w1&#45;&gt;sigma</title>
<path fill="none" stroke="black" d="M101.24,-268.76C114.84,-256.09 131.06,-240.99 145.74,-227.32"/>
<polygon fill="black" stroke="black" points="148.32,-229.7 153.25,-220.32 143.55,-224.57 148.32,-229.7"/>
</g>
<!-- w2 -->
<g id="node5" class="node">
<title>w2</title>
<ellipse fill="none" stroke="black" cx="187.5" cy="-298.38" rx="49.49" ry="37.45"/>
<text text-anchor="middle" x="187.5" y="-309.68" font-family="Times,serif" font-size="14.00">w2</text>
<text text-anchor="middle" x="187.5" y="-294.68" font-family="Times,serif" font-size="14.00">~</text>
<text text-anchor="middle" x="187.5" y="-279.68" font-family="Times,serif" font-size="14.00">Normal</text>
</g>
<!-- w2&#45;&gt;sigma -->
<g id="edge2" class="edge">
<title>w2&#45;&gt;sigma</title>
<path fill="none" stroke="black" d="M187.5,-260.8C187.5,-252.63 187.5,-243.85 187.5,-235.32"/>
<polygon fill="black" stroke="black" points="191,-235.1 187.5,-225.1 184,-235.1 191,-235.1"/>
</g>
<!-- w0 -->
<g id="node6" class="node">
<title>w0</title>
<ellipse fill="none" stroke="black" cx="304.5" cy="-298.38" rx="49.49" ry="37.45"/>
<text text-anchor="middle" x="304.5" y="-309.68" font-family="Times,serif" font-size="14.00">w0</text>
<text text-anchor="middle" x="304.5" y="-294.68" font-family="Times,serif" font-size="14.00">~</text>
<text text-anchor="middle" x="304.5" y="-279.68" font-family="Times,serif" font-size="14.00">Normal</text>
</g>
<!-- w0&#45;&gt;sigma -->
<g id="edge3" class="edge">
<title>w0&#45;&gt;sigma</title>
<path fill="none" stroke="black" d="M273.76,-268.76C260.15,-256.09 243.94,-240.99 229.26,-227.32"/>
<polygon fill="black" stroke="black" points="231.45,-224.57 221.74,-220.32 226.67,-229.7 231.45,-224.57"/>
</g>
<!-- sigma&#45;&gt;y_obs -->
<g id="edge5" class="edge">
<title>sigma&#45;&gt;y_obs</title>
<path fill="none" stroke="black" d="M191.19,-149.85C192.02,-141.67 192.9,-132.89 193.76,-124.37"/>
<polygon fill="black" stroke="black" points="197.27,-124.45 194.8,-114.15 190.31,-123.75 197.27,-124.45"/>
</g>
</g>
</svg>