<?xml version="1.0" encoding="UTF-8" standalone="no"?>
<!DOCTYPE svg PUBLIC "-//W3C//DTD SVG 1.1//EN"
 "http://www.w3.org/Graphics/SVG/1.1/DTD/svg11.dtd">
<!-- Generated by graphviz version 2.43.0 (0)
 -->
<!-- Title: G Pages: 1 -->
<svg width="237pt" height="166pt"
 viewBox="0.00 0.00 236.80 165.80" xmlns="http://www.w3.org/2000/svg" xmlns:xlink="http://www.w3.org/1999/xlink">
<g id="graph0" class="graph" transform="scale(1 1) rotate(0) translate(14.4 151.4)">
<title>G</title>
<polygon fill="white" stroke="transparent" points="-14.4,14.4 -14.4,-151.4 222.4,-151.4 222.4,14.4 -14.4,14.4"/>
<!-- v4 -->
<g id="node1" class="node">
<title>v4</title>
<polygon fill="none" stroke="black" points="54,-36 0,-36 0,0 54,0 54,-36"/>
<text text-anchor="middle" x="27" y="-14.3" font-family="Times,serif" font-size="14.00">v4</text>
</g>
<!-- v1 -->
<g id="node2" class="node">
<title>v1</title>
<polygon fill="none" stroke="black" points="208,-134 154,-134 154,-98 208,-98 208,-134"/>
<text text-anchor="middle" x="181" y="-112.3" font-family="Times,serif" font-size="14.00">v1</text>
</g>
<!-- v3 -->
<g id="node4" class="node">
<title>v3</title>
<polygon fill="none" stroke="black" points="54,-116 0,-116 0,-80 54,-80 54,-116"/>
<text text-anchor="middle" x="27" y="-94.3" font-family="Times,serif" font-size="14.00">v3</text>
</g>
<!-- v1&#45;&gt;v3 -->
<g id="edge1" class="edge">
<title>v1&#45;&gt;v3</title>
<path fill="none" stroke="black" d="M153.87,-112.91C129.11,-109.97 91.7,-105.54 64.1,-102.27"/>
<polygon fill="black" stroke="black" points="64.38,-98.78 54.04,-101.08 63.56,-105.74 64.38,-98.78"/>
<text text-anchor="middle" x="104" y="-127.4" font-family="Times,serif" font-size="12.00">2.926</text>
<text text-anchor="middle" x="104" y="-114.4" font-family="Times,serif" font-size="12.00">p&#45;val: 0.00</text>
</g>
<!-- v2 -->
<g id="node3" class="node">
<title>v2</title>
<polygon fill="none" stroke="black" points="208,-58 154,-58 154,-22 208,-22 208,-58"/>
<text text-anchor="middle" x="181" y="-36.3" font-family="Times,serif" font-size="14.00">v2</text>
</g>
<!-- v2&#45;&gt;v4 -->
<g id="edge3" class="edge">
<title>v2&#45;&gt;v4</title>
<path fill="none" stroke="black" d="M153.69,-25.18C148.02,-22.64 141.94,-20.37 136,-19 112.56,-13.58 85.48,-13.34 64.3,-14.45"/>
<polygon fill="black" stroke="black" points="63.87,-10.97 54.12,-15.11 64.33,-17.96 63.87,-10.97"/>
<text text-anchor="middle" x="104" y="-35.4" font-family="Times,serif" font-size="12.00">5.077</text>
<text text-anchor="middle" x="104" y="-22.4" font-family="Times,serif" font-size="12.00">p&#45;val: 0.00</text>
</g>
<!-- v2&#45;&gt;v3 -->
<g id="edge2" class="edge">
<title>v2&#45;&gt;v3</title>
<path fill="none" stroke="black" d="M153.74,-46.72C131.55,-52.77 99.13,-62.46 72,-74 69.13,-75.22 66.2,-76.57 63.29,-77.99"/>
<polygon fill="black" stroke="black" points="61.42,-75.01 54.11,-82.68 64.61,-81.24 61.42,-75.01"/>
<text text-anchor="middle" x="104" y="-90.4" font-family="Times,serif" font-size="12.00">1.869</text>
<text text-anchor="middle" x="104" y="-77.4" font-family="Times,serif" font-size="12.00">p&#45;val: 0.00</text>
</g>
<!-- v3&#45;&gt;v4 -->
<g id="edge4" class="edge">
<title>v3&#45;&gt;v4</title>
<path fill="none" stroke="black" d="M27,-79.92C27,-70.01 27,-57.5 27,-46.33"/>
<polygon fill="black" stroke="black" points="30.5,-46.15 27,-36.15 23.5,-46.15 30.5,-46.15"/>
<text text-anchor="middle" x="43" y="-61.4" font-family="Times,serif" font-size="12.00">4.004</text>
<text text-anchor="middle" x="43" y="-48.4" font-family="Times,serif" font-size="12.00">p&#45;val: 0.00</text>
</g>
</g>
</svg>