<?xml version="1.0" encoding="UTF-8" standalone="no"?>
<!DOCTYPE svg PUBLIC "-//W3C//DTD SVG 1.1//EN"
 "http://www.w3.org/Graphics/SVG/1.1/DTD/svg11.dtd">
<!-- Generated by graphviz version 2.43.0 (0)
 -->
<!-- Title: markov_chain Pages: 1 -->
<svg width="288pt" height="125pt"
 viewBox="0.00 0.00 288.00 124.98" xmlns="http://www.w3.org/2000/svg" xmlns:xlink="http://www.w3.org/1999/xlink">
<g id="graph0" class="graph" transform="scale(1 1) rotate(0) translate(4 120.98)">
<title>markov_chain</title>
<polygon fill="white" stroke="transparent" points="-4,4 -4,-120.98 284,-120.98 284,4 -4,4"/>
<!-- A -->
<g id="node1" class="node">
<title>A</title>
<ellipse fill="none" stroke="black" cx="27" cy="-20.98" rx="27" ry="18"/>
<text text-anchor="middle" x="27" y="-17.28" font-family="Times,serif" font-size="14.00">A</text>
</g>
<!-- A&#45;&gt;A -->
<g id="edge1" class="edge">
<title>A&#45;&gt;A</title>
<path fill="none" stroke="black" d="M17.08,-38.01C15.05,-47.83 18.36,-56.98 27,-56.98 32.4,-56.98 35.72,-53.4 36.95,-48.33"/>
<polygon fill="black" stroke="black" points="40.45,-48 36.92,-38.01 33.45,-48.02 40.45,-48"/>
<text text-anchor="middle" x="27" y="-60.78" font-family="Times,serif" font-size="14.00">0.1</text>
</g>
<!-- B -->
<g id="node2" class="node">
<title>B</title>
<ellipse fill="none" stroke="black" cx="140" cy="-65.98" rx="27" ry="18"/>
<text text-anchor="middle" x="140" y="-62.28" font-family="Times,serif" font-size="14.00">B</text>
</g>
<!-- A&#45;&gt;B -->
<g id="edge2" class="edge">
<title>A&#45;&gt;B</title>
<path fill="none" stroke="black" d="M43.57,-35.49C51.51,-42.12 61.67,-49.48 72,-53.98 81.67,-58.18 92.74,-60.92 103.06,-62.69"/>
<polygon fill="black" stroke="black" points="102.65,-66.17 113.05,-64.16 103.67,-59.24 102.65,-66.17"/>
<text text-anchor="middle" x="83.5" y="-63.78" font-family="Times,serif" font-size="14.00">0.6</text>
</g>
<!-- C -->
<g id="node3" class="node">
<title>C</title>
<ellipse fill="none" stroke="black" cx="253" cy="-20.98" rx="27" ry="18"/>
<text text-anchor="middle" x="253" y="-17.28" font-family="Times,serif" font-size="14.00">C</text>
</g>
<!-- A&#45;&gt;C -->
<g id="edge3" class="edge">
<title>A&#45;&gt;C</title>
<path fill="none" stroke="black" d="M54.13,-20.98C93.99,-20.98 170.09,-20.98 215.41,-20.98"/>
<polygon fill="black" stroke="black" points="215.69,-24.48 225.69,-20.98 215.69,-17.48 215.69,-24.48"/>
<text text-anchor="middle" x="140" y="-24.78" font-family="Times,serif" font-size="14.00">0.3</text>
</g>
<!-- B&#45;&gt;A -->
<g id="edge4" class="edge">
<title>B&#45;&gt;A</title>
<path fill="none" stroke="black" d="M122.42,-51.86C114.56,-45.83 104.77,-39.22 95,-34.98 85.27,-30.75 74.18,-27.77 63.87,-25.68"/>
<polygon fill="black" stroke="black" points="64.35,-22.21 53.88,-23.87 63.1,-29.1 64.35,-22.21"/>
<text text-anchor="middle" x="83.5" y="-38.78" font-family="Times,serif" font-size="14.00">0.4</text>
</g>
<!-- B&#45;&gt;B -->
<g id="edge5" class="edge">
<title>B&#45;&gt;B</title>
<path fill="none" stroke="black" d="M130.08,-83.01C128.05,-92.83 131.36,-101.98 140,-101.98 145.4,-101.98 148.72,-98.4 149.95,-93.33"/>
<polygon fill="black" stroke="black" points="153.45,-93 149.92,-83.01 146.45,-93.02 153.45,-93"/>
<text text-anchor="middle" x="140" y="-105.78" font-family="Times,serif" font-size="14.00">0.5</text>
</g>
<!-- B&#45;&gt;C -->
<g id="edge6" class="edge">
<title>B&#45;&gt;C</title>
<path fill="none" stroke="black" d="M166.95,-64.16C179.72,-62.57 195.11,-59.59 208,-53.98 215.1,-50.88 222.12,-46.44 228.4,-41.81"/>
<polygon fill="black" stroke="black" points="230.74,-44.42 236.43,-35.49 226.41,-38.92 230.74,-44.42"/>
<text text-anchor="middle" x="196.5" y="-63.78" font-family="Times,serif" font-size="14.00">0.1</text>
</g>
<!-- C&#45;&gt;A -->
<g id="edge7" class="edge">
<title>C&#45;&gt;A</title>
<path fill="none" stroke="black" d="M227.69,-14.05C210.82,-9.61 187.74,-4.27 167,-1.98 143.14,0.66 136.86,0.66 113,-1.98 96.15,-3.84 77.75,-7.71 62.4,-11.48"/>
<polygon fill="black" stroke="black" points="61.14,-8.19 52.31,-14.05 62.86,-14.97 61.14,-8.19"/>
<text text-anchor="middle" x="140" y="-5.78" font-family="Times,serif" font-size="14.00">0.2</text>
</g>
<!-- C&#45;&gt;B -->
<g id="edge8" class="edge">
<title>C&#45;&gt;B</title>
<path fill="none" stroke="black" d="M226.12,-23.87C213.36,-25.92 197.97,-29.34 185,-34.98 178.44,-37.83 171.86,-41.75 165.87,-45.84"/>
<polygon fill="black" stroke="black" points="163.61,-43.15 157.58,-51.86 167.73,-48.82 163.61,-43.15"/>
<text text-anchor="middle" x="196.5" y="-38.78" font-family="Times,serif" font-size="14.00">0.3</text>
</g>
<!-- C&#45;&gt;C -->
<g id="edge9" class="edge">
<title>C&#45;&gt;C</title>
<path fill="none" stroke="black" d="M243.08,-38.01C241.05,-47.83 244.36,-56.98 253,-56.98 258.4,-56.98 261.72,-53.4 262.95,-48.33"/>
<polygon fill="black" stroke="black" points="266.45,-48 262.92,-38.01 259.45,-48.02 266.45,-48"/>
<text text-anchor="middle" x="253" y="-60.78" font-family="Times,serif" font-size="14.00">0.5</text>
</g>
</g>
</svg>