<?xml version="1.0" encoding="UTF-8" standalone="no"?>
<!DOCTYPE svg PUBLIC "-//W3C//DTD SVG 1.1//EN"
 "http://www.w3.org/Graphics/SVG/1.1/DTD/svg11.dtd">
<!-- Generated by graphviz version 2.42.4 (0)
 -->
<!-- Title: g Pages: 1 -->
<svg width="98pt" height="116pt"
 viewBox="0.00 0.00 98.00 116.00" xmlns="http://www.w3.org/2000/svg" xmlns:xlink="http://www.w3.org/1999/xlink">
<g id="graph0" class="graph" transform="scale(1 1) rotate(0) translate(4 112)">
<title>g</title>
<polygon fill="white" stroke="transparent" points="-4,4 -4,-112 94,-112 94,4 -4,4"/>
<!-- X -->
<g id="node1" class="node">
<title>X</title>
<polygon fill="none" stroke="black" points="36,-108 0,-108 0,-72 36,-72 36,-108"/>
<text text-anchor="start" x="13" y="-87.3" font-family="Times,serif" font-style="italic" font-size="14.00">X</text>
</g>
<!-- Y -->
<g id="node2" class="node">
<title>Y</title>
<polygon fill="none" stroke="black" points="63,-36 27,-36 27,0 63,0 63,-36"/>
<text text-anchor="start" x="40" y="-15.3" font-family="Times,serif" font-style="italic" font-size="14.00">Y</text>
</g>
<!-- X&#45;&gt;Y -->
<g id="edge1" class="edge">
<title>X&#45;&gt;Y</title>
<path fill="none" stroke="black" d="M24.67,-71.7C27.71,-63.81 31.38,-54.3 34.76,-45.55"/>
<polygon fill="black" stroke="black" points="38.07,-46.69 38.4,-36.1 31.54,-44.17 38.07,-46.69"/>
</g>
<!-- Z -->
<g id="node3" class="node">
<title>Z</title>
<polygon fill="none" stroke="black" points="90,-108 54,-108 54,-72 90,-72 90,-108"/>
<text text-anchor="start" x="67" y="-87.3" font-family="Times,serif" font-style="italic" font-size="14.00">Z</text>
</g>
<!-- Z&#45;&gt;Y -->
<g id="edge2" class="edge">
<title>Z&#45;&gt;Y</title>
<path fill="none" stroke="black" d="M65.33,-71.7C62.29,-63.81 58.62,-54.3 55.24,-45.55"/>
<polygon fill="black" stroke="black" points="58.46,-44.17 51.6,-36.1 51.93,-46.69 58.46,-44.17"/>
</g>
</g>
</svg>