<?xml version="1.0" encoding="UTF-8" standalone="no"?>
<!DOCTYPE svg PUBLIC "-//W3C//DTD SVG 1.1//EN"
 "http://www.w3.org/Graphics/SVG/1.1/DTD/svg11.dtd">
<!-- Generated by graphviz version 2.43.0 (0)
 -->
<!-- Title: step3 Pages: 1 -->
<svg width="418pt" height="158pt"
 viewBox="0.00 0.00 418.00 157.99" xmlns="http://www.w3.org/2000/svg" xmlns:xlink="http://www.w3.org/1999/xlink">
<g id="graph0" class="graph" transform="scale(1 1) rotate(0) translate(4 153.99)">
<title>step3</title>
<polygon fill="white" stroke="transparent" points="-4,4 -4,-153.99 414,-153.99 414,4 -4,4"/>
<text text-anchor="middle" x="205" y="-134.79" font-family="Times,serif" font-size="14.00">Step 4: 向き付け規則により部分的に方向が決定（CPDAG）</text>
<!-- X1 -->
<g id="node1" class="node">
<title>X1</title>
<ellipse fill="none" stroke="black" cx="173.5" cy="-104.24" rx="23" ry="23"/>
<text text-anchor="middle" x="173.5" y="-100.54" font-family="Times,serif" font-size="14.00">X1</text>
</g>
<!-- X2 -->
<g id="node2" class="node">
<title>X2</title>
<ellipse fill="none" stroke="black" cx="236.5" cy="-104.24" rx="23" ry="23"/>
<text text-anchor="middle" x="236.5" y="-100.54" font-family="Times,serif" font-size="14.00">X2</text>
</g>
<!-- X1&#45;&gt;X2 -->
<g id="edge1" class="edge">
<title>X1&#45;&gt;X2</title>
<path fill="none" stroke="black" d="M196.63,-104.24C198.82,-104.24 201.01,-104.24 203.2,-104.24"/>
<polygon fill="black" stroke="black" points="203.45,-107.74 213.45,-104.24 203.45,-100.74 203.45,-107.74"/>
</g>
<!-- X4 -->
<g id="node4" class="node">
<title>X4</title>
<ellipse fill="none" stroke="black" cx="236.5" cy="-22.75" rx="23" ry="23"/>
<text text-anchor="middle" x="236.5" y="-19.05" font-family="Times,serif" font-size="14.00">X4</text>
</g>
<!-- X1&#45;&gt;X4 -->
<g id="edge4" class="edge">
<title>X1&#45;&gt;X4</title>
<path fill="none" stroke="black" d="M187.17,-85.99C197.74,-72.66 212.3,-54.29 222.86,-40.96"/>
</g>
<!-- X2&#45;&gt;X4 -->
<g id="edge3" class="edge">
<title>X2&#45;&gt;X4</title>
<path fill="none" stroke="black" d="M236.5,-81.1C236.5,-73.2 236.5,-64.13 236.5,-55.57"/>
<polygon fill="black" stroke="black" points="240,-55.5 236.5,-45.5 233,-55.5 240,-55.5"/>
</g>
<!-- X3 -->
<g id="node3" class="node">
<title>X3</title>
<ellipse fill="none" stroke="black" cx="173.5" cy="-22.75" rx="23" ry="23"/>
<text text-anchor="middle" x="173.5" y="-19.05" font-family="Times,serif" font-size="14.00">X3</text>
</g>
<!-- X3&#45;&gt;X2 -->
<g id="edge2" class="edge">
<title>X3&#45;&gt;X2</title>
<path fill="none" stroke="black" d="M187.14,-40.96C195.72,-51.79 206.94,-65.95 216.52,-78.03"/>
<polygon fill="black" stroke="black" points="213.88,-80.33 222.83,-85.99 219.36,-75.98 213.88,-80.33"/>
</g>
<!-- X3&#45;&gt;X4 -->
<g id="edge5" class="edge">
<title>X3&#45;&gt;X4</title>
<path fill="none" stroke="black" d="M196.63,-22.75C202.24,-22.75 207.85,-22.75 213.45,-22.75"/>
</g>
</g>
</svg>