<?xml version="1.0" encoding="UTF-8" standalone="no"?>
<!DOCTYPE svg PUBLIC "-//W3C//DTD SVG 1.1//EN"
 "http://www.w3.org/Graphics/SVG/1.1/DTD/svg11.dtd">
<!-- Generated by graphviz version 2.43.0 (0)
 -->
<!-- Title: G Pages: 1 -->
<svg width="280pt" height="154pt"
 viewBox="0.00 0.00 280.30 154.49" xmlns="http://www.w3.org/2000/svg" xmlns:xlink="http://www.w3.org/1999/xlink">
<g id="graph0" class="graph" transform="scale(1 1) rotate(0) translate(4 150.49)">
<title>G</title>
<polygon fill="white" stroke="transparent" points="-4,4 -4,-150.49 276.3,-150.49 276.3,4 -4,4"/>
<!-- Xp1 -->
<g id="node1" class="node">
<title>Xp1</title>
<ellipse fill="none" stroke="black" cx="27.3" cy="-110.09" rx="27.1" ry="27.1"/>
<text text-anchor="middle" x="27.3" y="-106.39" font-family="Helvetica,sans-Serif" font-size="14.00">Xₚ,₁</text>
</g>
<!-- Xi -->
<g id="node5" class="node">
<title>Xi</title>
<ellipse fill="none" stroke="black" cx="141.3" cy="-18.85" rx="18.7" ry="18.7"/>
<text text-anchor="middle" x="141.3" y="-15.15" font-family="Helvetica,sans-Serif" font-size="14.00">Xᵢ</text>
</g>
<!-- Xp1&#45;&gt;Xi -->
<g id="edge1" class="edge">
<title>Xp1&#45;&gt;Xi</title>
<path fill="none" stroke="black" d="M45.99,-90.14C51.7,-84.65 58.11,-78.77 64.3,-73.7 81.28,-59.78 101.68,-45.61 117.22,-35.3"/>
<polygon fill="black" stroke="black" points="119.3,-38.12 125.75,-29.71 115.47,-32.27 119.3,-38.12"/>
</g>
<!-- Xp2 -->
<g id="node2" class="node">
<title>Xp2</title>
<ellipse fill="none" stroke="black" cx="100.3" cy="-110.09" rx="27.1" ry="27.1"/>
<text text-anchor="middle" x="100.3" y="-106.39" font-family="Helvetica,sans-Serif" font-size="14.00">Xₚ,₂</text>
</g>
<!-- Xp2&#45;&gt;Xi -->
<g id="edge2" class="edge">
<title>Xp2&#45;&gt;Xi</title>
<path fill="none" stroke="black" d="M111.5,-84.71C117.08,-72.57 123.82,-57.9 129.47,-45.59"/>
<polygon fill="black" stroke="black" points="132.74,-46.86 133.74,-36.31 126.38,-43.93 132.74,-46.86"/>
</g>
<!-- Xpn -->
<g id="node3" class="node">
<title>Xpn</title>
<ellipse fill="none" stroke="black" cx="182.3" cy="-110.09" rx="36.29" ry="36.29"/>
<text text-anchor="middle" x="182.3" y="-106.39" font-family="Helvetica,sans-Serif" font-size="14.00">…Xₚ,ₙ</text>
</g>
<!-- Xpn&#45;&gt;Xi -->
<g id="edge3" class="edge">
<title>Xpn&#45;&gt;Xi</title>
<path fill="none" stroke="black" d="M167.38,-76.62C162.64,-66.3 157.47,-55.05 152.99,-45.3"/>
<polygon fill="black" stroke="black" points="156.14,-43.77 148.79,-36.15 149.78,-46.7 156.14,-43.77"/>
</g>
<!-- Ei -->
<g id="node4" class="node">
<title>Ei</title>
<ellipse fill="none" stroke="black" cx="254.3" cy="-110.09" rx="18" ry="18"/>
<text text-anchor="middle" x="254.3" y="-106.39" font-family="Helvetica,sans-Serif" font-size="14.00">εᵢ</text>
</g>
<!-- Ei&#45;&gt;Xi -->
<g id="edge4" class="edge">
<title>Ei&#45;&gt;Xi</title>
<path fill="none" stroke="black" d="M244.85,-94.33C240.09,-87.57 233.92,-79.74 227.3,-73.7 209.18,-57.17 185.33,-42.7 167.35,-32.93"/>
<polygon fill="black" stroke="black" points="168.51,-29.58 158.03,-28 165.23,-35.77 168.51,-29.58"/>
</g>
</g>
</svg>