<?xml version="1.0" encoding="UTF-8" standalone="no"?>
<!DOCTYPE svg PUBLIC "-//W3C//DTD SVG 1.1//EN"
 "http://www.w3.org/Graphics/SVG/1.1/DTD/svg11.dtd">
<!-- Generated by graphviz version 2.43.0 (0)
 -->
<!-- Title: g Pages: 1 -->
<svg width="153pt" height="122pt"
 viewBox="0.00 0.00 153.00 122.00" xmlns="http://www.w3.org/2000/svg" xmlns:xlink="http://www.w3.org/1999/xlink">
<g id="graph0" class="graph" transform="scale(1 1) rotate(0) translate(4 118)">
<title>g</title>
<polygon fill="white" stroke="transparent" points="-4,4 -4,-118 149,-118 149,4 -4,4"/>
<!-- X1 -->
<g id="node1" class="node">
<title>X1</title>
<polygon fill="none" stroke="black" points="145,-108 91,-108 91,-72 145,-72 145,-108"/>
<text text-anchor="start" x="109" y="-87.3" font-family="Times,serif" font-style="italic" font-size="14.00">X</text>
<text text-anchor="start" x="119" y="-87.3" font-family="Times,serif" font-style="italic" baseline-shift="sub" font-size="14.00">1</text>
</g>
<!-- X2 -->
<g id="node2" class="node">
<title>X2</title>
<polygon fill="none" stroke="black" points="145,-36 91,-36 91,0 145,0 145,-36"/>
<text text-anchor="start" x="109" y="-15.3" font-family="Times,serif" font-style="italic" font-size="14.00">X</text>
<text text-anchor="start" x="119" y="-15.3" font-family="Times,serif" font-style="italic" baseline-shift="sub" font-size="14.00">2</text>
</g>
<!-- X1&#45;&gt;X2 -->
<g id="edge1" class="edge">
<title>X1&#45;&gt;X2</title>
<path fill="none" stroke="black" stroke-dasharray="5,2" d="M118,-61.31C118,-56.41 118,-51.32 118,-46.43"/>
<polygon fill="black" stroke="black" points="114.5,-61.59 118,-71.59 121.5,-61.59 114.5,-61.59"/>
<polygon fill="black" stroke="black" points="121.5,-46.17 118,-36.17 114.5,-46.17 121.5,-46.17"/>
<text text-anchor="middle" x="128.5" y="-50.3" font-family="Times,serif" font-size="14.00"> </text>
</g>
<!-- Y1 -->
<g id="node3" class="node">
<title>Y1</title>
<polygon fill="none" stroke="black" points="54,-42 0,-42 0,-6 54,-6 54,-42"/>
<text text-anchor="start" x="18" y="-21.3" font-family="Times,serif" font-style="italic" font-size="14.00">Y</text>
<text text-anchor="start" x="28" y="-21.3" font-family="Times,serif" font-style="italic" baseline-shift="sub" font-size="14.00">1</text>
</g>
<!-- X1&#45;&gt;Y1 -->
<g id="edge2" class="edge">
<title>X1&#45;&gt;Y1</title>
<path fill="none" stroke="black" d="M92.68,-71.97C82.77,-64.62 71.17,-56.01 60.55,-48.14"/>
<polygon fill="black" stroke="black" points="62.41,-45.16 52.29,-42.01 58.24,-50.78 62.41,-45.16"/>
</g>
<!-- Y2 -->
<g id="node4" class="node">
<title>Y2</title>
<polygon fill="none" stroke="black" points="54,-114 0,-114 0,-78 54,-78 54,-114"/>
<text text-anchor="start" x="18" y="-93.3" font-family="Times,serif" font-style="italic" font-size="14.00">Y</text>
<text text-anchor="start" x="28" y="-93.3" font-family="Times,serif" font-style="italic" baseline-shift="sub" font-size="14.00">2</text>
</g>
<!-- X2&#45;&gt;Y2 -->
<g id="edge4" class="edge">
<title>X2&#45;&gt;Y2</title>
<path fill="none" stroke="black" d="M96.36,-36.09C84.54,-46.45 69.52,-59.61 56.58,-70.95"/>
<polygon fill="black" stroke="black" points="54.05,-68.51 48.84,-77.74 58.67,-73.78 54.05,-68.51"/>
</g>
<!-- Y1&#45;&gt;Y2 -->
<g id="edge3" class="edge">
<title>Y1&#45;&gt;Y2</title>
<path fill="none" stroke="black" d="M11.66,-42.28C6.82,-51.01 5.56,-59.75 7.87,-68.48"/>
<polygon fill="black" stroke="black" points="4.73,-70.05 11.79,-77.95 11.2,-67.38 4.73,-70.05"/>
</g>
<!-- Y2&#45;&gt;Y1 -->
<g id="edge5" class="edge">
<title>Y2&#45;&gt;Y1</title>
<path fill="none" stroke="black" d="M42.21,-77.95C47.11,-69.22 48.44,-60.49 46.19,-51.76"/>
<polygon fill="black" stroke="black" points="49.35,-50.23 42.34,-42.28 42.86,-52.86 49.35,-50.23"/>
</g>
</g>
</svg>