<?xml version="1.0" encoding="UTF-8" standalone="no"?>
<!DOCTYPE svg PUBLIC "-//W3C//DTD SVG 1.1//EN"
 "http://www.w3.org/Graphics/SVG/1.1/DTD/svg11.dtd">
<!-- Generated by graphviz version 2.42.4 (0)
 -->
<!-- Title: g Pages: 1 -->
<svg width="152pt" height="116pt"
 viewBox="0.00 0.00 152.00 116.00" xmlns="http://www.w3.org/2000/svg" xmlns:xlink="http://www.w3.org/1999/xlink">
<g id="graph0" class="graph" transform="scale(1 1) rotate(0) translate(4 112)">
<title>g</title>
<polygon fill="white" stroke="transparent" points="-4,4 -4,-112 148,-112 148,4 -4,4"/>
<!-- theta -->
<g id="node1" class="node">
<title>theta</title>
<ellipse fill="none" stroke="black" cx="72" cy="-90" rx="18" ry="18"/>
<text text-anchor="start" x="67.5" y="-87.3" font-family="Times,serif" font-style="italic" font-size="14.00">θ</text>
</g>
<!-- u1 -->
<g id="node2" class="node">
<title>u1</title>
<polygon fill="none" stroke="black" points="36,-36 0,-36 0,0 36,0 36,-36"/>
<text text-anchor="start" x="9" y="-15.3" font-family="Times,serif" font-style="italic" font-size="14.00">u</text>
<text text-anchor="start" x="19" y="-15.3" font-family="Times,serif" font-style="italic" baseline-shift="sub" font-size="14.00">1</text>
</g>
<!-- theta&#45;&gt;u1 -->
<g id="edge1" class="edge">
<title>theta&#45;&gt;u1</title>
<path fill="none" stroke="black" d="M61.33,-75.17C54.49,-66.3 45.41,-54.54 37.33,-44.06"/>
<polygon fill="black" stroke="black" points="40.01,-41.8 31.13,-36.02 34.47,-46.07 40.01,-41.8"/>
</g>
<!-- u2 -->
<g id="node3" class="node">
<title>u2</title>
<polygon fill="none" stroke="black" points="90,-36 54,-36 54,0 90,0 90,-36"/>
<text text-anchor="start" x="63" y="-15.3" font-family="Times,serif" font-style="italic" font-size="14.00">u</text>
<text text-anchor="start" x="73" y="-15.3" font-family="Times,serif" font-style="italic" baseline-shift="sub" font-size="14.00">2</text>
</g>
<!-- theta&#45;&gt;u2 -->
<g id="edge2" class="edge">
<title>theta&#45;&gt;u2</title>
<path fill="none" stroke="black" d="M72,-71.7C72,-63.98 72,-54.71 72,-46.11"/>
<polygon fill="black" stroke="black" points="75.5,-46.1 72,-36.1 68.5,-46.1 75.5,-46.1"/>
</g>
<!-- u3 -->
<g id="node4" class="node">
<title>u3</title>
<polygon fill="none" stroke="black" points="144,-36 108,-36 108,0 144,0 144,-36"/>
<text text-anchor="start" x="117" y="-15.3" font-family="Times,serif" font-style="italic" font-size="14.00">u</text>
<text text-anchor="start" x="127" y="-15.3" font-family="Times,serif" font-style="italic" baseline-shift="sub" font-size="14.00">3</text>
</g>
<!-- theta&#45;&gt;u3 -->
<g id="edge3" class="edge">
<title>theta&#45;&gt;u3</title>
<path fill="none" stroke="black" d="M82.67,-75.17C89.51,-66.3 98.59,-54.54 106.67,-44.06"/>
<polygon fill="black" stroke="black" points="109.53,-46.07 112.87,-36.02 103.99,-41.8 109.53,-46.07"/>
</g>
</g>
</svg>