<?xml version="1.0" encoding="UTF-8" standalone="no"?>
<!DOCTYPE svg PUBLIC "-//W3C//DTD SVG 1.1//EN"
 "http://www.w3.org/Graphics/SVG/1.1/DTD/svg11.dtd">
<!-- Generated by graphviz version 2.43.0 (0)
 -->
<!-- Title: g Pages: 1 -->
<svg width="232pt" height="114pt"
 viewBox="0.00 0.00 232.20 114.20" xmlns="http://www.w3.org/2000/svg" xmlns:xlink="http://www.w3.org/1999/xlink">
<g id="graph0" class="graph" transform="scale(1 1) rotate(0) translate(4 110.2)">
<title>g</title>
<polygon fill="white" stroke="transparent" points="-4,4 -4,-110.2 228.2,-110.2 228.2,4 -4,4"/>
<!-- v1 -->
<g id="node1" class="node">
<title>v1</title>
<polygon fill="none" stroke="black" points="54,-44.1 0,-44.1 0,-8.1 54,-8.1 54,-44.1"/>
<text text-anchor="middle" x="27" y="-22.4" font-family="Times,serif" font-size="14.00">v1</text>
</g>
<!-- v2 -->
<g id="node2" class="node">
<title>v2</title>
<polygon fill="none" stroke="black" points="144,-44.1 90,-44.1 90,-8.1 144,-8.1 144,-44.1"/>
<text text-anchor="middle" x="117" y="-22.4" font-family="Times,serif" font-size="14.00">v2</text>
</g>
<!-- v1&#45;&gt;v2 -->
<g id="edge1" class="edge">
<title>v1&#45;&gt;v2</title>
<path fill="none" stroke="black" d="M54.4,-26.1C62.39,-26.1 71.31,-26.1 79.82,-26.1"/>
<polygon fill="black" stroke="black" points="79.92,-29.6 89.92,-26.1 79.92,-22.6 79.92,-29.6"/>
</g>
<!-- v3 -->
<g id="node3" class="node">
<title>v3</title>
<polygon fill="none" stroke="black" points="144,-98.1 90,-98.1 90,-62.1 144,-62.1 144,-98.1"/>
<text text-anchor="middle" x="117" y="-76.4" font-family="Times,serif" font-size="14.00">v3</text>
</g>
<!-- v2&#45;&gt;v3 -->
<g id="edge2" class="edge">
<title>v2&#45;&gt;v3</title>
<path fill="none" stroke="black" d="M135.07,-44.24C136.34,-46.81 137.05,-49.39 137.21,-51.96"/>
<polygon fill="black" stroke="black" points="133.76,-51.38 135.1,-61.89 140.61,-52.83 133.76,-51.38"/>
</g>
<!-- v3&#45;&gt;v2 -->
<g id="edge3" class="edge">
<title>v3&#45;&gt;v2</title>
<path fill="none" stroke="black" d="M98.9,-61.89C97.64,-59.31 96.93,-56.74 96.78,-54.17"/>
<polygon fill="black" stroke="black" points="100.24,-54.75 98.93,-44.24 93.39,-53.27 100.24,-54.75"/>
</g>
<!-- e2 -->
<g id="node4" class="node">
<title>e2</title>
<ellipse fill="none" stroke="black" cx="202.1" cy="-22.1" rx="22.2" ry="22.2"/>
<text text-anchor="middle" x="202.1" y="-18.4" font-family="Times,serif" font-size="14.00">e2</text>
</g>
<!-- e2&#45;&gt;v2 -->
<g id="edge4" class="edge">
<title>e2&#45;&gt;v2</title>
<path fill="none" stroke="black" d="M179.97,-23.12C172.17,-23.49 163.1,-23.93 154.34,-24.35"/>
<polygon fill="black" stroke="black" points="154.11,-20.86 144.29,-24.83 154.45,-27.85 154.11,-20.86"/>
</g>
<!-- e3 -->
<g id="node5" class="node">
<title>e3</title>
<ellipse fill="none" stroke="black" cx="202.1" cy="-84.1" rx="22.2" ry="22.2"/>
<text text-anchor="middle" x="202.1" y="-80.4" font-family="Times,serif" font-size="14.00">e3</text>
</g>
<!-- e3&#45;&gt;v3 -->
<g id="edge5" class="edge">
<title>e3&#45;&gt;v3</title>
<path fill="none" stroke="black" d="M179.97,-83.08C172.17,-82.71 163.1,-82.27 154.34,-81.85"/>
<polygon fill="black" stroke="black" points="154.45,-78.35 144.29,-81.36 154.11,-85.34 154.45,-78.35"/>
</g>
</g>
</svg>