<?xml version="1.0" encoding="UTF-8" standalone="no"?>
<!DOCTYPE svg PUBLIC "-//W3C//DTD SVG 1.1//EN"
 "http://www.w3.org/Graphics/SVG/1.1/DTD/svg11.dtd">
<!-- Generated by graphviz version 2.43.0 (0)
 -->
<!-- Title: g Pages: 1 -->
<svg width="484pt" height="158pt"
 viewBox="0.00 0.00 484.00 157.99" xmlns="http://www.w3.org/2000/svg" xmlns:xlink="http://www.w3.org/1999/xlink">
<g id="graph0" class="graph" transform="scale(1 1) rotate(0) translate(4 153.99)">
<title>g</title>
<polygon fill="white" stroke="transparent" points="-4,4 -4,-153.99 480,-153.99 480,4 -4,4"/>
<text text-anchor="middle" x="238" y="-7.8" font-family="Times,serif" font-size="14.00">GES Step 3: Forward Phase 終了後（過剰フィット気味の CPDAG）</text>
<!-- X1 -->
<g id="node1" class="node">
<title>X1</title>
<ellipse fill="none" stroke="black" cx="191" cy="-127.24" rx="23" ry="23"/>
<text text-anchor="middle" x="191" y="-123.54" font-family="Times,serif" font-size="14.00">X1</text>
</g>
<!-- X2 -->
<g id="node2" class="node">
<title>X2</title>
<ellipse fill="none" stroke="black" cx="254" cy="-127.24" rx="23" ry="23"/>
<text text-anchor="middle" x="254" y="-123.54" font-family="Times,serif" font-size="14.00">X2</text>
</g>
<!-- X1&#45;&gt;X2 -->
<g id="edge1" class="edge">
<title>X1&#45;&gt;X2</title>
<path fill="none" stroke="black" d="M214.13,-127.24C216.32,-127.24 218.51,-127.24 220.7,-127.24"/>
<polygon fill="black" stroke="black" points="220.95,-130.74 230.95,-127.24 220.95,-123.74 220.95,-130.74"/>
</g>
<!-- X3 -->
<g id="node3" class="node">
<title>X3</title>
<ellipse fill="none" stroke="black" cx="222" cy="-45.75" rx="23" ry="23"/>
<text text-anchor="middle" x="222" y="-42.05" font-family="Times,serif" font-size="14.00">X3</text>
</g>
<!-- X1&#45;&gt;X3 -->
<g id="edge2" class="edge">
<title>X1&#45;&gt;X3</title>
<path fill="none" stroke="black" d="M198.98,-105.77C202.45,-96.87 206.59,-86.27 210.39,-76.52"/>
<polygon fill="black" stroke="black" points="213.67,-77.74 214.04,-67.15 207.15,-75.2 213.67,-77.74"/>
</g>
<!-- X2&#45;&gt;X3 -->
<g id="edge3" class="edge">
<title>X2&#45;&gt;X3</title>
<path fill="none" stroke="black" d="M245.76,-105.77C242.18,-96.87 237.91,-86.27 233.98,-76.52"/>
<polygon fill="black" stroke="black" points="237.19,-75.12 230.21,-67.15 230.7,-77.73 237.19,-75.12"/>
</g>
<!-- X4 -->
<g id="node4" class="node">
<title>X4</title>
<ellipse fill="none" stroke="black" cx="285" cy="-45.75" rx="23" ry="23"/>
<text text-anchor="middle" x="285" y="-42.05" font-family="Times,serif" font-size="14.00">X4</text>
</g>
<!-- X3&#45;&gt;X4 -->
<g id="edge4" class="edge">
<title>X3&#45;&gt;X4</title>
<path fill="none" stroke="black" d="M245.13,-45.75C247.32,-45.75 249.51,-45.75 251.7,-45.75"/>
<polygon fill="black" stroke="black" points="251.95,-49.25 261.95,-45.75 251.95,-42.25 251.95,-49.25"/>
</g>
</g>
</svg>