<?xml version="1.0" encoding="UTF-8" standalone="no"?>
<!DOCTYPE svg PUBLIC "-//W3C//DTD SVG 1.1//EN"
 "http://www.w3.org/Graphics/SVG/1.1/DTD/svg11.dtd">
<!-- Generated by graphviz version 2.43.0 (0)
 -->
<!-- Title: G Pages: 1 -->
<svg width="237pt" height="189pt"
 viewBox="0.00 0.00 236.80 189.38" xmlns="http://www.w3.org/2000/svg" xmlns:xlink="http://www.w3.org/1999/xlink">
<g id="graph0" class="graph" transform="scale(1 1) rotate(0) translate(14.4 174.98)">
<title>G</title>
<polygon fill="white" stroke="transparent" points="-14.4,14.4 -14.4,-174.98 222.4,-174.98 222.4,14.4 -14.4,14.4"/>
<!-- y1 -->
<g id="node1" class="node">
<title>y1</title>
<polygon fill="none" stroke="black" points="54,-147.58 0,-147.58 0,-111.58 54,-111.58 54,-147.58"/>
<text text-anchor="middle" x="27" y="-125.88" font-family="Times,serif" font-size="14.00">y1</text>
</g>
<!-- y2 -->
<g id="node2" class="node">
<title>y2</title>
<polygon fill="none" stroke="black" points="54,-70.58 0,-70.58 0,-34.58 54,-34.58 54,-70.58"/>
<text text-anchor="middle" x="27" y="-48.88" font-family="Times,serif" font-size="14.00">y2</text>
</g>
<!-- x1 -->
<g id="node3" class="node">
<title>x1</title>
<polygon fill="none" stroke="black" points="208,-57.58 154,-57.58 154,-21.58 208,-21.58 208,-57.58"/>
<text text-anchor="middle" x="181" y="-35.88" font-family="Times,serif" font-size="14.00">x1</text>
</g>
<!-- x1&#45;&gt;y1 -->
<g id="edge1" class="edge">
<title>x1&#45;&gt;y1</title>
<path fill="none" stroke="black" d="M153.77,-36.47C130.4,-35.06 96.24,-36.5 72,-52.58 67.22,-55.75 53.07,-81.36 42.1,-102.19"/>
<polygon fill="black" stroke="black" points="38.85,-100.84 37.32,-111.33 45.05,-104.09 38.85,-100.84"/>
<text text-anchor="middle" x="104" y="-68.98" font-family="Times,serif" font-size="12.00">2.925</text>
<text text-anchor="middle" x="104" y="-55.98" font-family="Times,serif" font-size="12.00">p&#45;val: 0.00</text>
</g>
<!-- x1&#45;&gt;y2 -->
<g id="edge3" class="edge">
<title>x1&#45;&gt;y2</title>
<path fill="none" stroke="black" d="M160.47,-21.32C153.31,-15.8 144.8,-10.44 136,-7.58 108.95,1.22 98.22,3.46 72,-7.58 62.53,-11.56 54.09,-18.68 47.19,-26.11"/>
<polygon fill="black" stroke="black" points="44.16,-24.26 40.33,-34.14 49.48,-28.81 44.16,-24.26"/>
<text text-anchor="middle" x="104" y="-23.98" font-family="Times,serif" font-size="12.00">9.907</text>
<text text-anchor="middle" x="104" y="-10.98" font-family="Times,serif" font-size="12.00">p&#45;val: 0.00</text>
</g>
<!-- x2 -->
<g id="node4" class="node">
<title>x2</title>
<polygon fill="none" stroke="black" points="208,-137.58 154,-137.58 154,-101.58 208,-101.58 208,-137.58"/>
<text text-anchor="middle" x="181" y="-115.88" font-family="Times,serif" font-size="14.00">x2</text>
</g>
<!-- x2&#45;&gt;y1 -->
<g id="edge2" class="edge">
<title>x2&#45;&gt;y1</title>
<path fill="none" stroke="black" d="M153.71,-127.97C147.93,-129.47 141.81,-130.8 136,-131.58 112.31,-134.75 85.43,-134.27 64.42,-132.98"/>
<polygon fill="black" stroke="black" points="64.53,-129.48 54.32,-132.28 64.05,-136.46 64.53,-129.48"/>
<text text-anchor="middle" x="104" y="-150.98" font-family="Times,serif" font-size="12.00">4.870</text>
<text text-anchor="middle" x="104" y="-137.98" font-family="Times,serif" font-size="12.00">p&#45;val: 0.00</text>
</g>
<!-- x2&#45;&gt;y2 -->
<g id="edge4" class="edge">
<title>x2&#45;&gt;y2</title>
<path fill="none" stroke="black" d="M153.64,-108.29C147.87,-105.96 141.76,-103.6 136,-101.58 108.01,-91.72 98.8,-95.31 72,-82.58 68.15,-80.75 64.26,-78.6 60.46,-76.32"/>
<polygon fill="black" stroke="black" points="62.17,-73.25 51.86,-70.8 58.39,-79.15 62.17,-73.25"/>
<text text-anchor="middle" x="104" y="-117.98" font-family="Times,serif" font-size="12.00">15.086</text>
<text text-anchor="middle" x="104" y="-104.98" font-family="Times,serif" font-size="12.00">p&#45;val: 0.00</text>
</g>
<!-- x2&#45;&gt;x1 -->
<g id="edge5" class="edge">
<title>x2&#45;&gt;x1</title>
<path fill="none" stroke="black" stroke-dasharray="5,2" d="M181,-91.3C181,-83.71 181,-75.5 181,-67.91"/>
<polygon fill="black" stroke="black" points="177.5,-91.49 181,-101.49 184.5,-91.49 177.5,-91.49"/>
<polygon fill="black" stroke="black" points="184.5,-67.73 181,-57.73 177.5,-67.73 184.5,-67.73"/>
<text text-anchor="middle" x="197" y="-82.98" font-family="Times,serif" font-size="12.00">0.001</text>
<text text-anchor="middle" x="197" y="-69.98" font-family="Times,serif" font-size="12.00">p&#45;val: 0.85</text>
</g>
</g>
</svg>