<?xml version="1.0" encoding="UTF-8" standalone="no"?>
<!DOCTYPE svg PUBLIC "-//W3C//DTD SVG 1.1//EN"
 "http://www.w3.org/Graphics/SVG/1.1/DTD/svg11.dtd">
<!-- Generated by graphviz version 2.42.4 (0)
 -->
<!-- Title: G Pages: 1 -->
<svg width="398pt" height="243pt"
 viewBox="0.00 0.00 398.00 243.00" xmlns="http://www.w3.org/2000/svg" xmlns:xlink="http://www.w3.org/1999/xlink">
<g id="graph0" class="graph" transform="scale(1 1) rotate(0) translate(4 239)">
<title>G</title>
<polygon fill="white" stroke="transparent" points="-4,4 -4,-239 394,-239 394,4 -4,4"/>
<g id="clust1" class="cluster">
<title>cluster_chain</title>
<polygon fill="none" stroke="black" stroke-dasharray="5,2" points="8,-8 8,-227 82,-227 82,-8 8,-8"/>
<text text-anchor="middle" x="45" y="-211.8" font-family="Times,serif" font-size="14.00">連鎖経路</text>
</g>
<g id="clust2" class="cluster">
<title>cluster_fork</title>
<polygon fill="none" stroke="black" stroke-dasharray="5,2" points="90,-80 90,-227 232,-227 232,-80 90,-80"/>
<text text-anchor="middle" x="161" y="-211.8" font-family="Times,serif" font-size="14.00">分岐経路</text>
</g>
<g id="clust3" class="cluster">
<title>cluster_collider</title>
<polygon fill="none" stroke="black" stroke-dasharray="5,2" points="240,-80 240,-227 382,-227 382,-80 240,-80"/>
<text text-anchor="middle" x="311" y="-211.8" font-family="Times,serif" font-size="14.00">合流経路</text>
</g>
<!-- X1 -->
<g id="node1" class="node">
<title>X1</title>
<ellipse fill="none" stroke="black" cx="45" cy="-178" rx="27" ry="18"/>
<text text-anchor="middle" x="45" y="-174.3" font-family="Times,serif" font-size="14.00">X</text>
</g>
<!-- Z1 -->
<g id="node2" class="node">
<title>Z1</title>
<ellipse fill="none" stroke="black" cx="45" cy="-106" rx="27" ry="18"/>
<text text-anchor="middle" x="45" y="-102.3" font-family="Times,serif" font-size="14.00">Z</text>
</g>
<!-- X1&#45;&gt;Z1 -->
<g id="edge1" class="edge">
<title>X1&#45;&gt;Z1</title>
<path fill="none" stroke="black" d="M45,-159.7C45,-151.98 45,-142.71 45,-134.11"/>
<polygon fill="black" stroke="black" points="48.5,-134.1 45,-124.1 41.5,-134.1 48.5,-134.1"/>
</g>
<!-- Y1 -->
<g id="node3" class="node">
<title>Y1</title>
<ellipse fill="none" stroke="black" cx="45" cy="-34" rx="27" ry="18"/>
<text text-anchor="middle" x="45" y="-30.3" font-family="Times,serif" font-size="14.00">Y</text>
</g>
<!-- Z1&#45;&gt;Y1 -->
<g id="edge2" class="edge">
<title>Z1&#45;&gt;Y1</title>
<path fill="none" stroke="black" d="M45,-87.7C45,-79.98 45,-70.71 45,-62.11"/>
<polygon fill="black" stroke="black" points="48.5,-62.1 45,-52.1 41.5,-62.1 48.5,-62.1"/>
</g>
<!-- Z2 -->
<g id="node4" class="node">
<title>Z2</title>
<ellipse fill="none" stroke="black" cx="161" cy="-178" rx="27" ry="18"/>
<text text-anchor="middle" x="161" y="-174.3" font-family="Times,serif" font-size="14.00">Z</text>
</g>
<!-- X2 -->
<g id="node5" class="node">
<title>X2</title>
<ellipse fill="none" stroke="black" cx="125" cy="-106" rx="27" ry="18"/>
<text text-anchor="middle" x="125" y="-102.3" font-family="Times,serif" font-size="14.00">X</text>
</g>
<!-- Z2&#45;&gt;X2 -->
<g id="edge3" class="edge">
<title>Z2&#45;&gt;X2</title>
<path fill="none" stroke="black" d="M152.65,-160.76C148.29,-152.28 142.85,-141.71 137.96,-132.2"/>
<polygon fill="black" stroke="black" points="140.99,-130.44 133.3,-123.15 134.77,-133.64 140.99,-130.44"/>
</g>
<!-- Y2 -->
<g id="node6" class="node">
<title>Y2</title>
<ellipse fill="none" stroke="black" cx="197" cy="-106" rx="27" ry="18"/>
<text text-anchor="middle" x="197" y="-102.3" font-family="Times,serif" font-size="14.00">Y</text>
</g>
<!-- Z2&#45;&gt;Y2 -->
<g id="edge4" class="edge">
<title>Z2&#45;&gt;Y2</title>
<path fill="none" stroke="black" d="M169.35,-160.76C173.71,-152.28 179.15,-141.71 184.04,-132.2"/>
<polygon fill="black" stroke="black" points="187.23,-133.64 188.7,-123.15 181.01,-130.44 187.23,-133.64"/>
</g>
<!-- X3 -->
<g id="node7" class="node">
<title>X3</title>
<ellipse fill="none" stroke="black" cx="347" cy="-178" rx="27" ry="18"/>
<text text-anchor="middle" x="347" y="-174.3" font-family="Times,serif" font-size="14.00">X</text>
</g>
<!-- Z3 -->
<g id="node9" class="node">
<title>Z3</title>
<ellipse fill="none" stroke="black" cx="311" cy="-106" rx="27" ry="18"/>
<text text-anchor="middle" x="311" y="-102.3" font-family="Times,serif" font-size="14.00">Z</text>
</g>
<!-- X3&#45;&gt;Z3 -->
<g id="edge5" class="edge">
<title>X3&#45;&gt;Z3</title>
<path fill="none" stroke="black" d="M338.65,-160.76C334.29,-152.28 328.85,-141.71 323.96,-132.2"/>
<polygon fill="black" stroke="black" points="326.99,-130.44 319.3,-123.15 320.77,-133.64 326.99,-130.44"/>
</g>
<!-- Y3 -->
<g id="node8" class="node">
<title>Y3</title>
<ellipse fill="none" stroke="black" cx="275" cy="-178" rx="27" ry="18"/>
<text text-anchor="middle" x="275" y="-174.3" font-family="Times,serif" font-size="14.00">Y</text>
</g>
<!-- Y3&#45;&gt;Z3 -->
<g id="edge6" class="edge">
<title>Y3&#45;&gt;Z3</title>
<path fill="none" stroke="black" d="M283.35,-160.76C287.71,-152.28 293.15,-141.71 298.04,-132.2"/>
<polygon fill="black" stroke="black" points="301.23,-133.64 302.7,-123.15 295.01,-130.44 301.23,-133.64"/>
</g>
</g>
</svg>