<?xml version="1.0" encoding="UTF-8" standalone="no"?>
<!DOCTYPE svg PUBLIC "-//W3C//DTD SVG 1.1//EN"
 "http://www.w3.org/Graphics/SVG/1.1/DTD/svg11.dtd">
<!-- Generated by graphviz version 2.43.0 (0)
 -->
<!-- Title: g Pages: 1 -->
<svg width="214pt" height="119pt"
 viewBox="0.00 0.00 214.00 118.70" xmlns="http://www.w3.org/2000/svg" xmlns:xlink="http://www.w3.org/1999/xlink">
<g id="graph0" class="graph" transform="scale(1 1) rotate(0) translate(4 114.7)">
<title>g</title>
<polygon fill="white" stroke="transparent" points="-4,4 -4,-114.7 210,-114.7 210,4 -4,4"/>
<!-- X -->
<g id="node1" class="node">
<title>X</title>
<ellipse fill="none" stroke="black" cx="103" cy="-92.7" rx="18" ry="18"/>
<text text-anchor="start" x="98" y="-90" font-family="Times,serif" font-style="italic" font-size="14.00">X</text>
</g>
<!-- Y -->
<g id="node2" class="node">
<title>Y</title>
<ellipse fill="none" stroke="black" cx="188" cy="-92.7" rx="18" ry="18"/>
<text text-anchor="start" x="183" y="-90" font-family="Times,serif" font-style="italic" font-size="14.00">Y</text>
</g>
<!-- X&#45;&gt;Y -->
<g id="edge2" class="edge">
<title>X&#45;&gt;Y</title>
<path fill="none" stroke="black" d="M121.03,-92.7C132.3,-92.7 147.05,-92.7 159.84,-92.7"/>
<polygon fill="black" stroke="black" points="160,-96.2 170,-92.7 160,-89.2 160,-96.2"/>
<text text-anchor="start" x="130" y="-100.5" font-family="Times,serif" font-style="italic" font-size="14.00">β</text>
<text text-anchor="start" x="139" y="-100.5" font-family="Times,serif" font-size="14.00">=4</text>
</g>
<!-- Z -->
<g id="node3" class="node">
<title>Z</title>
<ellipse fill="none" stroke="black" cx="18" cy="-92.7" rx="18" ry="18"/>
<text text-anchor="start" x="13" y="-90" font-family="Times,serif" font-style="italic" font-size="14.00">Z</text>
</g>
<!-- Z&#45;&gt;X -->
<g id="edge1" class="edge">
<title>Z&#45;&gt;X</title>
<path fill="none" stroke="black" d="M36.03,-92.7C47.3,-92.7 62.05,-92.7 74.84,-92.7"/>
<polygon fill="black" stroke="black" points="75,-96.2 85,-92.7 75,-89.2 75,-96.2"/>
<text text-anchor="start" x="45" y="-100.5" font-family="Times,serif" font-style="italic" font-size="14.00">γ</text>
<text text-anchor="start" x="54" y="-100.5" font-family="Times,serif" font-size="14.00">=2</text>
</g>
<!-- U -->
<g id="node4" class="node">
<title>U</title>
<ellipse fill="none" stroke="black" cx="145" cy="-18.85" rx="18.7" ry="18.7"/>
<text text-anchor="start" x="138.5" y="-16.15" font-family="Times,serif" font-weight="bold" font-style="italic" font-size="14.00">U</text>
</g>
<!-- U&#45;&gt;X -->
<g id="edge3" class="edge">
<title>U&#45;&gt;X</title>
<path fill="none" stroke="black" d="M135.87,-35.46C130.32,-44.96 123.12,-57.27 116.88,-67.95"/>
<polygon fill="black" stroke="black" points="113.73,-66.41 111.7,-76.81 119.77,-69.94 113.73,-66.41"/>
</g>
<!-- U&#45;&gt;Y -->
<g id="edge4" class="edge">
<title>U&#45;&gt;Y</title>
<path fill="none" stroke="black" d="M154.34,-35.46C160.03,-44.96 167.4,-57.27 173.79,-67.95"/>
<polygon fill="black" stroke="black" points="170.95,-70.03 179.09,-76.81 176.96,-66.43 170.95,-70.03"/>
</g>
</g>
</svg>