<?xml version="1.0" encoding="UTF-8" standalone="no"?>
<!DOCTYPE svg PUBLIC "-//W3C//DTD SVG 1.1//EN"
 "http://www.w3.org/Graphics/SVG/1.1/DTD/svg11.dtd">
<!-- Generated by graphviz version 2.43.0 (0)
 -->
<!-- Title: g Pages: 1 -->
<svg width="206pt" height="116pt"
 viewBox="0.00 0.00 206.00 116.00" xmlns="http://www.w3.org/2000/svg" xmlns:xlink="http://www.w3.org/1999/xlink">
<g id="graph0" class="graph" transform="scale(1 1) rotate(0) translate(4 112)">
<title>g</title>
<polygon fill="white" stroke="transparent" points="-4,4 -4,-112 202,-112 202,4 -4,4"/>
<!-- Z1 -->
<g id="node1" class="node">
<title>Z1</title>
<polygon fill="none" stroke="black" points="54,-36 0,-36 0,0 54,0 54,-36"/>
<text text-anchor="start" x="18" y="-15.3" font-family="Times,serif" font-style="italic" font-size="14.00">Z</text>
<text text-anchor="start" x="28" y="-15.3" font-family="Times,serif" font-style="italic" baseline-shift="sub" font-size="14.00">1</text>
</g>
<!-- f1 -->
<g id="node4" class="node">
<title>f1</title>
<ellipse fill="none" stroke="black" cx="99" cy="-90" rx="27" ry="18"/>
<text text-anchor="start" x="92" y="-87.3" font-family="Times,serif" font-style="italic" font-size="14.00">f</text>
<text text-anchor="start" x="98" y="-87.3" font-family="Times,serif" font-style="italic" baseline-shift="sub" font-size="14.00">1</text>
</g>
<!-- Z1&#45;&gt;f1 -->
<g id="edge1" class="edge">
<title>Z1&#45;&gt;f1</title>
<path fill="none" stroke="black" d="M44.8,-36.3C54.49,-45.72 66.56,-57.47 76.86,-67.47"/>
<polygon fill="black" stroke="black" points="74.7,-70.26 84.31,-74.72 79.58,-65.24 74.7,-70.26"/>
</g>
<!-- Z2 -->
<g id="node2" class="node">
<title>Z2</title>
<polygon fill="none" stroke="black" points="126,-36 72,-36 72,0 126,0 126,-36"/>
<text text-anchor="start" x="90" y="-15.3" font-family="Times,serif" font-style="italic" font-size="14.00">Z</text>
<text text-anchor="start" x="100" y="-15.3" font-family="Times,serif" font-style="italic" baseline-shift="sub" font-size="14.00">2</text>
</g>
<!-- Z2&#45;&gt;f1 -->
<g id="edge2" class="edge">
<title>Z2&#45;&gt;f1</title>
<path fill="none" stroke="black" d="M99,-36.3C99,-44.02 99,-53.29 99,-61.89"/>
<polygon fill="black" stroke="black" points="95.5,-61.9 99,-71.9 102.5,-61.9 95.5,-61.9"/>
</g>
<!-- Z3 -->
<g id="node3" class="node">
<title>Z3</title>
<polygon fill="none" stroke="black" points="198,-36 144,-36 144,0 198,0 198,-36"/>
<text text-anchor="start" x="162" y="-15.3" font-family="Times,serif" font-style="italic" font-size="14.00">Z</text>
<text text-anchor="start" x="172" y="-15.3" font-family="Times,serif" font-style="italic" baseline-shift="sub" font-size="14.00">3</text>
</g>
<!-- Z3&#45;&gt;f1 -->
<g id="edge3" class="edge">
<title>Z3&#45;&gt;f1</title>
<path fill="none" stroke="black" d="M153.2,-36.3C143.51,-45.72 131.44,-57.47 121.14,-67.47"/>
<polygon fill="black" stroke="black" points="118.42,-65.24 113.69,-74.72 123.3,-70.26 118.42,-65.24"/>
</g>
</g>
</svg>