<?xml version="1.0" encoding="UTF-8" standalone="no"?>
<!DOCTYPE svg PUBLIC "-//W3C//DTD SVG 1.1//EN"
 "http://www.w3.org/Graphics/SVG/1.1/DTD/svg11.dtd">
<!-- Generated by graphviz version 2.43.0 (0)
 -->
<!-- Title: g Pages: 1 -->
<svg width="278pt" height="116pt"
 viewBox="0.00 0.00 278.00 116.00" xmlns="http://www.w3.org/2000/svg" xmlns:xlink="http://www.w3.org/1999/xlink">
<g id="graph0" class="graph" transform="scale(1 1) rotate(0) translate(4 112)">
<title>g</title>
<polygon fill="white" stroke="transparent" points="-4,4 -4,-112 274,-112 274,4 -4,4"/>
<!-- Z1 -->
<g id="node1" class="node">
<title>Z1</title>
<polygon fill="none" stroke="black" points="270,-36 216,-36 216,0 270,0 270,-36"/>
<text text-anchor="start" x="234" y="-15.3" font-family="Times,serif" font-style="italic" font-size="14.00">Z</text>
<text text-anchor="start" x="244" y="-15.3" font-family="Times,serif" font-style="italic" baseline-shift="sub" font-size="14.00">1</text>
</g>
<!-- f1 -->
<g id="node5" class="node">
<title>f1</title>
<ellipse fill="none" stroke="black" cx="171" cy="-90" rx="27" ry="18"/>
<text text-anchor="start" x="164" y="-87.3" font-family="Times,serif" font-style="italic" font-size="14.00">f</text>
<text text-anchor="start" x="170" y="-87.3" font-family="Times,serif" font-style="italic" baseline-shift="sub" font-size="14.00">1</text>
</g>
<!-- Z1&#45;&gt;f1 -->
<g id="edge1" class="edge">
<title>Z1&#45;&gt;f1</title>
<path fill="none" stroke="black" d="M225.2,-36.3C215.51,-45.72 203.44,-57.47 193.14,-67.47"/>
<polygon fill="black" stroke="black" points="190.42,-65.24 185.69,-74.72 195.3,-70.26 190.42,-65.24"/>
</g>
<!-- Z2 -->
<g id="node2" class="node">
<title>Z2</title>
<polygon fill="none" stroke="black" points="126,-36 72,-36 72,0 126,0 126,-36"/>
<text text-anchor="start" x="90" y="-15.3" font-family="Times,serif" font-style="italic" font-size="14.00">Z</text>
<text text-anchor="start" x="100" y="-15.3" font-family="Times,serif" font-style="italic" baseline-shift="sub" font-size="14.00">2</text>
</g>
<!-- Z2&#45;&gt;f1 -->
<g id="edge2" class="edge">
<title>Z2&#45;&gt;f1</title>
<path fill="none" stroke="black" d="M116.8,-36.3C126.49,-45.72 138.56,-57.47 148.86,-67.47"/>
<polygon fill="black" stroke="black" points="146.7,-70.26 156.31,-74.72 151.58,-65.24 146.7,-70.26"/>
</g>
<!-- f2 -->
<g id="node6" class="node">
<title>f2</title>
<ellipse fill="none" stroke="black" cx="99" cy="-90" rx="27" ry="18"/>
<text text-anchor="start" x="92" y="-87.3" font-family="Times,serif" font-style="italic" font-size="14.00">f</text>
<text text-anchor="start" x="98" y="-87.3" font-family="Times,serif" font-style="italic" baseline-shift="sub" font-size="14.00">2</text>
</g>
<!-- Z2&#45;&gt;f2 -->
<g id="edge4" class="edge">
<title>Z2&#45;&gt;f2</title>
<path fill="none" stroke="black" d="M99,-36.3C99,-44.02 99,-53.29 99,-61.89"/>
<polygon fill="black" stroke="black" points="95.5,-61.9 99,-71.9 102.5,-61.9 95.5,-61.9"/>
</g>
<!-- Z3 -->
<g id="node3" class="node">
<title>Z3</title>
<polygon fill="none" stroke="black" points="198,-36 144,-36 144,0 198,0 198,-36"/>
<text text-anchor="start" x="162" y="-15.3" font-family="Times,serif" font-style="italic" font-size="14.00">Z</text>
<text text-anchor="start" x="172" y="-15.3" font-family="Times,serif" font-style="italic" baseline-shift="sub" font-size="14.00">3</text>
</g>
<!-- Z3&#45;&gt;f1 -->
<g id="edge3" class="edge">
<title>Z3&#45;&gt;f1</title>
<path fill="none" stroke="black" d="M171,-36.3C171,-44.02 171,-53.29 171,-61.89"/>
<polygon fill="black" stroke="black" points="167.5,-61.9 171,-71.9 174.5,-61.9 167.5,-61.9"/>
</g>
<!-- Z3&#45;&gt;f2 -->
<g id="edge5" class="edge">
<title>Z3&#45;&gt;f2</title>
<path fill="none" stroke="black" d="M153.2,-36.3C143.51,-45.72 131.44,-57.47 121.14,-67.47"/>
<polygon fill="black" stroke="black" points="118.42,-65.24 113.69,-74.72 123.3,-70.26 118.42,-65.24"/>
</g>
<!-- Z4 -->
<g id="node4" class="node">
<title>Z4</title>
<polygon fill="none" stroke="black" points="54,-36 0,-36 0,0 54,0 54,-36"/>
<text text-anchor="start" x="18" y="-15.3" font-family="Times,serif" font-style="italic" font-size="14.00">Z</text>
<text text-anchor="start" x="28" y="-15.3" font-family="Times,serif" font-style="italic" baseline-shift="sub" font-size="14.00">4</text>
</g>
<!-- Z4&#45;&gt;f2 -->
<g id="edge6" class="edge">
<title>Z4&#45;&gt;f2</title>
<path fill="none" stroke="black" d="M44.8,-36.3C54.49,-45.72 66.56,-57.47 76.86,-67.47"/>
<polygon fill="black" stroke="black" points="74.7,-70.26 84.31,-74.72 79.58,-65.24 74.7,-70.26"/>
</g>
<!-- f2&#45;&gt;f1 -->
<g id="edge7" class="edge">
<title>f2&#45;&gt;f1</title>
<path fill="none" stroke="black" d="M126,-90C128.61,-90 131.23,-90 133.84,-90"/>
<polygon fill="black" stroke="black" points="133.93,-93.5 143.93,-90 133.93,-86.5 133.93,-93.5"/>
</g>
</g>
</svg>