<?xml version="1.0" encoding="UTF-8" standalone="no"?>
<!DOCTYPE svg PUBLIC "-//W3C//DTD SVG 1.1//EN"
 "http://www.w3.org/Graphics/SVG/1.1/DTD/svg11.dtd">
<!-- Generated by graphviz version 2.43.0 (0)
 -->
<!-- Title: step3 Pages: 1 -->
<svg width="353pt" height="158pt"
 viewBox="0.00 0.00 353.00 157.99" xmlns="http://www.w3.org/2000/svg" xmlns:xlink="http://www.w3.org/1999/xlink">
<g id="graph0" class="graph" transform="scale(1 1) rotate(0) translate(4 153.99)">
<title>step3</title>
<polygon fill="white" stroke="transparent" points="-4,4 -4,-153.99 349,-153.99 349,4 -4,4"/>
<text text-anchor="middle" x="172.5" y="-134.79" font-family="Times,serif" font-size="14.00">Step 3: V構造の同定（Collider: X1 → X2 ← X3）</text>
<!-- X1 -->
<g id="node1" class="node">
<title>X1</title>
<ellipse fill="none" stroke="black" cx="141" cy="-104.24" rx="23" ry="23"/>
<text text-anchor="middle" x="141" y="-100.54" font-family="Times,serif" font-size="14.00">X1</text>
</g>
<!-- X2 -->
<g id="node2" class="node">
<title>X2</title>
<ellipse fill="none" stroke="black" cx="204" cy="-104.24" rx="23" ry="23"/>
<text text-anchor="middle" x="204" y="-100.54" font-family="Times,serif" font-size="14.00">X2</text>
</g>
<!-- X1&#45;&gt;X2 -->
<g id="edge1" class="edge">
<title>X1&#45;&gt;X2</title>
<path fill="none" stroke="black" d="M164.13,-104.24C166.32,-104.24 168.51,-104.24 170.7,-104.24"/>
<polygon fill="black" stroke="black" points="170.95,-107.74 180.95,-104.24 170.95,-100.74 170.95,-107.74"/>
</g>
<!-- X4 -->
<g id="node4" class="node">
<title>X4</title>
<ellipse fill="none" stroke="black" cx="204" cy="-22.75" rx="23" ry="23"/>
<text text-anchor="middle" x="204" y="-19.05" font-family="Times,serif" font-size="14.00">X4</text>
</g>
<!-- X1&#45;&gt;X4 -->
<g id="edge3" class="edge">
<title>X1&#45;&gt;X4</title>
<path fill="none" stroke="black" d="M154.67,-85.99C165.24,-72.66 179.8,-54.29 190.36,-40.96"/>
</g>
<!-- X2&#45;&gt;X4 -->
<g id="edge4" class="edge">
<title>X2&#45;&gt;X4</title>
<path fill="none" stroke="black" d="M204,-81.1C204,-69.98 204,-56.56 204,-45.5"/>
</g>
<!-- X3 -->
<g id="node3" class="node">
<title>X3</title>
<ellipse fill="none" stroke="black" cx="141" cy="-22.75" rx="23" ry="23"/>
<text text-anchor="middle" x="141" y="-19.05" font-family="Times,serif" font-size="14.00">X3</text>
</g>
<!-- X3&#45;&gt;X2 -->
<g id="edge2" class="edge">
<title>X3&#45;&gt;X2</title>
<path fill="none" stroke="black" d="M154.64,-40.96C163.22,-51.79 174.44,-65.95 184.02,-78.03"/>
<polygon fill="black" stroke="black" points="181.38,-80.33 190.33,-85.99 186.86,-75.98 181.38,-80.33"/>
</g>
<!-- X3&#45;&gt;X4 -->
<g id="edge5" class="edge">
<title>X3&#45;&gt;X4</title>
<path fill="none" stroke="black" d="M164.13,-22.75C169.74,-22.75 175.35,-22.75 180.95,-22.75"/>
</g>
</g>
</svg>