<?xml version="1.0" encoding="UTF-8" standalone="no"?>
<!DOCTYPE svg PUBLIC "-//W3C//DTD SVG 1.1//EN"
 "http://www.w3.org/Graphics/SVG/1.1/DTD/svg11.dtd">
<!-- Generated by graphviz version 2.43.0 (0)
 -->
<!-- Title: G Pages: 1 -->
<svg width="487pt" height="146pt"
 viewBox="0.00 0.00 487.39 145.80" xmlns="http://www.w3.org/2000/svg" xmlns:xlink="http://www.w3.org/1999/xlink">
<g id="graph0" class="graph" transform="scale(1 1) rotate(0) translate(14.4 131.4)">
<title>G</title>
<polygon fill="white" stroke="transparent" points="-14.4,14.4 -14.4,-131.4 472.99,-131.4 472.99,14.4 -14.4,14.4"/>
<!-- f2 -->
<g id="node1" class="node">
<title>f2</title>
<ellipse fill="#cae6df" stroke="black" cx="284.44" cy="-58" rx="20.3" ry="20.3"/>
<text text-anchor="middle" x="284.44" y="-54.3" font-family="Times,serif" font-size="14.00">f2</text>
</g>
<!-- x3 -->
<g id="node3" class="node">
<title>x3</title>
<polygon fill="none" stroke="black" points="458.59,-36 404.59,-36 404.59,0 458.59,0 458.59,-36"/>
<text text-anchor="middle" x="431.59" y="-14.3" font-family="Times,serif" font-size="14.00">x3</text>
</g>
<!-- f2&#45;&gt;x3 -->
<g id="edge4" class="edge">
<title>f2&#45;&gt;x3</title>
<path fill="none" stroke="black" d="M304.12,-52.85C326.93,-46.57 366.01,-35.8 394.7,-27.89"/>
<polygon fill="black" stroke="black" points="395.67,-31.26 404.38,-25.22 393.81,-24.51 395.67,-31.26"/>
<text text-anchor="middle" x="354.59" y="-51.4" font-family="Times,serif" font-size="12.00">0.330</text>
</g>
<!-- x4 -->
<g id="node4" class="node">
<title>x4</title>
<polygon fill="none" stroke="black" points="458.59,-116 404.59,-116 404.59,-80 458.59,-80 458.59,-116"/>
<text text-anchor="middle" x="431.59" y="-94.3" font-family="Times,serif" font-size="14.00">x4</text>
</g>
<!-- f2&#45;&gt;x4 -->
<g id="edge5" class="edge">
<title>f2&#45;&gt;x4</title>
<path fill="none" stroke="black" d="M304.12,-63.15C326.93,-69.43 366.01,-80.2 394.7,-88.11"/>
<polygon fill="black" stroke="black" points="393.81,-91.49 404.38,-90.78 395.67,-84.74 393.81,-91.49"/>
<text text-anchor="middle" x="354.59" y="-102.4" font-family="Times,serif" font-size="12.00">&#45;0.437</text>
<text text-anchor="middle" x="354.59" y="-89.4" font-family="Times,serif" font-size="12.00">p&#45;val: 0.43</text>
</g>
<!-- f1 -->
<g id="node2" class="node">
<title>f1</title>
<ellipse fill="#cae6df" stroke="black" cx="174.15" cy="-58" rx="20.3" ry="20.3"/>
<text text-anchor="middle" x="174.15" y="-54.3" font-family="Times,serif" font-size="14.00">f1</text>
</g>
<!-- f1&#45;&gt;f2 -->
<g id="edge3" class="edge">
<title>f1&#45;&gt;f2</title>
<path fill="none" stroke="black" d="M194.51,-58C211.06,-58 235.14,-58 254.07,-58"/>
<polygon fill="black" stroke="black" points="254.25,-61.5 264.25,-58 254.25,-54.5 254.25,-61.5"/>
<text text-anchor="middle" x="229.3" y="-61.4" font-family="Times,serif" font-size="12.00">0.119</text>
</g>
<!-- x4&#45;&gt;x3 -->
<g id="edge7" class="edge">
<title>x4&#45;&gt;x3</title>
<path fill="none" stroke="black" stroke-dasharray="5,2" d="M431.59,-69.73C431.59,-62.13 431.59,-53.92 431.59,-46.33"/>
<polygon fill="black" stroke="black" points="428.09,-69.92 431.59,-79.92 435.09,-69.92 428.09,-69.92"/>
<polygon fill="black" stroke="black" points="435.09,-46.15 431.59,-36.15 428.09,-46.15 435.09,-46.15"/>
<text text-anchor="middle" x="415.59" y="-61.4" font-family="Times,serif" font-size="12.00">0.775</text>
<text text-anchor="middle" x="415.59" y="-48.4" font-family="Times,serif" font-size="12.00">p&#45;val: 1.00</text>
</g>
<!-- x1 -->
<g id="node5" class="node">
<title>x1</title>
<polygon fill="none" stroke="black" points="54,-37 0,-37 0,-1 54,-1 54,-37"/>
<text text-anchor="middle" x="27" y="-15.3" font-family="Times,serif" font-size="14.00">x1</text>
</g>
<!-- x1&#45;&gt;f1 -->
<g id="edge1" class="edge">
<title>x1&#45;&gt;f1</title>
<path fill="none" stroke="black" d="M54.06,-23.54C76.14,-27.68 108.49,-34.45 136,-43 139.19,-43.99 142.49,-45.14 145.74,-46.35"/>
<polygon fill="black" stroke="black" points="144.64,-49.67 155.23,-50.07 147.2,-43.16 144.64,-49.67"/>
<text text-anchor="middle" x="104" y="-59.4" font-family="Times,serif" font-size="12.00">&#45;0.712</text>
<text text-anchor="middle" x="104" y="-46.4" font-family="Times,serif" font-size="12.00">p&#45;val: 0.25</text>
</g>
<!-- x2 -->
<g id="node6" class="node">
<title>x2</title>
<polygon fill="none" stroke="black" points="54,-117 0,-117 0,-81 54,-81 54,-117"/>
<text text-anchor="middle" x="27" y="-95.3" font-family="Times,serif" font-size="14.00">x2</text>
</g>
<!-- x2&#45;&gt;f1 -->
<g id="edge2" class="edge">
<title>x2&#45;&gt;f1</title>
<path fill="none" stroke="black" d="M54.22,-91.85C76.12,-85.85 108.13,-77 136,-69 138.85,-68.18 141.82,-67.32 144.78,-66.45"/>
<polygon fill="black" stroke="black" points="146.05,-69.73 154.65,-63.55 144.07,-63.02 146.05,-69.73"/>
<text text-anchor="middle" x="104" y="-103.4" font-family="Times,serif" font-size="12.00">&#45;0.482</text>
<text text-anchor="middle" x="104" y="-90.4" font-family="Times,serif" font-size="12.00">p&#45;val: 0.32</text>
</g>
<!-- x2&#45;&gt;x1 -->
<g id="edge6" class="edge">
<title>x2&#45;&gt;x1</title>
<path fill="none" stroke="black" stroke-dasharray="5,2" d="M27,-70.73C27,-63.13 27,-54.92 27,-47.33"/>
<polygon fill="black" stroke="black" points="23.5,-70.92 27,-80.92 30.5,-70.92 23.5,-70.92"/>
<polygon fill="black" stroke="black" points="30.5,-47.15 27,-37.15 23.5,-47.15 30.5,-47.15"/>
<text text-anchor="middle" x="11" y="-62.4" font-family="Times,serif" font-size="12.00">0.380</text>
<text text-anchor="middle" x="11" y="-49.4" font-family="Times,serif" font-size="12.00">p&#45;val: 0.00</text>
</g>
</g>
</svg>