<?xml version="1.0" encoding="UTF-8" standalone="no"?>
<!DOCTYPE svg PUBLIC "-//W3C//DTD SVG 1.1//EN"
 "http://www.w3.org/Graphics/SVG/1.1/DTD/svg11.dtd">
<!-- Generated by graphviz version 2.43.0 (0)
 -->
<!-- Title: %3 Pages: 1 -->
<svg width="500pt" height="233pt"
 viewBox="0.00 0.00 499.99 232.91" xmlns="http://www.w3.org/2000/svg" xmlns:xlink="http://www.w3.org/1999/xlink">
<g id="graph0" class="graph" transform="scale(1 1) rotate(0) translate(4 228.91)">
<title>%3</title>
<polygon fill="white" stroke="transparent" points="-4,4 -4,-228.91 495.99,-228.91 495.99,4 -4,4"/>
<g id="clust1" class="cluster">
<title>cluster1000</title>
<path fill="none" stroke="black" d="M211.5,-8C211.5,-8 301.5,-8 301.5,-8 307.5,-8 313.5,-14 313.5,-20 313.5,-20 313.5,-109.95 313.5,-109.95 313.5,-115.95 307.5,-121.95 301.5,-121.95 301.5,-121.95 211.5,-121.95 211.5,-121.95 205.5,-121.95 199.5,-115.95 199.5,-109.95 199.5,-109.95 199.5,-20 199.5,-20 199.5,-14 205.5,-8 211.5,-8"/>
<text text-anchor="middle" x="287" y="-15.8" font-family="Times,serif" font-size="14.00">1000</text>
</g>
<!-- beta1 -->
<g id="node1" class="node">
<title>beta1</title>
<ellipse fill="none" stroke="black" cx="49.5" cy="-187.43" rx="49.49" ry="37.45"/>
<text text-anchor="middle" x="49.5" y="-198.73" font-family="Times,serif" font-size="14.00">beta1</text>
<text text-anchor="middle" x="49.5" y="-183.73" font-family="Times,serif" font-size="14.00">~</text>
<text text-anchor="middle" x="49.5" y="-168.73" font-family="Times,serif" font-size="14.00">Normal</text>
</g>
<!-- y_obs -->
<g id="node5" class="node">
<title>y_obs</title>
<ellipse fill="lightgrey" stroke="black" cx="256.5" cy="-76.48" rx="49.49" ry="37.45"/>
<text text-anchor="middle" x="256.5" y="-87.78" font-family="Times,serif" font-size="14.00">y_obs</text>
<text text-anchor="middle" x="256.5" y="-72.78" font-family="Times,serif" font-size="14.00">~</text>
<text text-anchor="middle" x="256.5" y="-57.78" font-family="Times,serif" font-size="14.00">Normal</text>
</g>
<!-- beta1&#45;&gt;y_obs -->
<g id="edge2" class="edge">
<title>beta1&#45;&gt;y_obs</title>
<path fill="none" stroke="black" d="M86.58,-162.28C93.46,-158.04 100.63,-153.77 107.5,-149.95 139.38,-132.24 176.22,-114.3 205.3,-100.7"/>
<polygon fill="black" stroke="black" points="206.86,-103.83 214.45,-96.44 203.91,-97.48 206.86,-103.83"/>
</g>
<!-- sigma -->
<g id="node2" class="node">
<title>sigma</title>
<ellipse fill="none" stroke="black" cx="187.5" cy="-187.43" rx="70.92" ry="37.45"/>
<text text-anchor="middle" x="187.5" y="-198.73" font-family="Times,serif" font-size="14.00">sigma</text>
<text text-anchor="middle" x="187.5" y="-183.73" font-family="Times,serif" font-size="14.00">~</text>
<text text-anchor="middle" x="187.5" y="-168.73" font-family="Times,serif" font-size="14.00">HalfNormal</text>
</g>
<!-- sigma&#45;&gt;y_obs -->
<g id="edge1" class="edge">
<title>sigma&#45;&gt;y_obs</title>
<path fill="none" stroke="black" d="M209.52,-151.66C215.99,-141.44 223.14,-130.15 229.86,-119.53"/>
<polygon fill="black" stroke="black" points="233,-121.13 235.39,-110.81 227.08,-117.38 233,-121.13"/>
</g>
<!-- beta2 -->
<g id="node3" class="node">
<title>beta2</title>
<ellipse fill="none" stroke="black" cx="325.5" cy="-187.43" rx="49.49" ry="37.45"/>
<text text-anchor="middle" x="325.5" y="-198.73" font-family="Times,serif" font-size="14.00">beta2</text>
<text text-anchor="middle" x="325.5" y="-183.73" font-family="Times,serif" font-size="14.00">~</text>
<text text-anchor="middle" x="325.5" y="-168.73" font-family="Times,serif" font-size="14.00">Normal</text>
</g>
<!-- beta2&#45;&gt;y_obs -->
<g id="edge3" class="edge">
<title>beta2&#45;&gt;y_obs</title>
<path fill="none" stroke="black" d="M304.61,-153.44C297.78,-142.66 290.11,-130.55 282.93,-119.21"/>
<polygon fill="black" stroke="black" points="285.86,-117.3 277.55,-110.73 279.95,-121.05 285.86,-117.3"/>
</g>
<!-- beta0 -->
<g id="node4" class="node">
<title>beta0</title>
<ellipse fill="none" stroke="black" cx="442.5" cy="-187.43" rx="49.49" ry="37.45"/>
<text text-anchor="middle" x="442.5" y="-198.73" font-family="Times,serif" font-size="14.00">beta0</text>
<text text-anchor="middle" x="442.5" y="-183.73" font-family="Times,serif" font-size="14.00">~</text>
<text text-anchor="middle" x="442.5" y="-168.73" font-family="Times,serif" font-size="14.00">Normal</text>
</g>
<!-- beta0&#45;&gt;y_obs -->
<g id="edge4" class="edge">
<title>beta0&#45;&gt;y_obs</title>
<path fill="none" stroke="black" d="M404.85,-162.88C397.78,-158.54 390.43,-154.08 383.5,-149.95 357.66,-134.6 328.56,-117.95 304.75,-104.48"/>
<polygon fill="black" stroke="black" points="306.32,-101.35 295.89,-99.49 302.88,-107.45 306.32,-101.35"/>
</g>
</g>
</svg>