<?xml version="1.0" encoding="UTF-8" standalone="no"?>
<!DOCTYPE svg PUBLIC "-//W3C//DTD SVG 1.1//EN"
 "http://www.w3.org/Graphics/SVG/1.1/DTD/svg11.dtd">
<!-- Generated by graphviz version 2.43.0 (0)
 -->
<!-- Title: %3 Pages: 1 -->
<svg width="598pt" height="344pt"
 viewBox="0.00 0.00 597.99 343.86" xmlns="http://www.w3.org/2000/svg" xmlns:xlink="http://www.w3.org/1999/xlink">
<g id="graph0" class="graph" transform="scale(1 1) rotate(0) translate(4 339.86)">
<title>%3</title>
<polygon fill="white" stroke="transparent" points="-4,4 -4,-339.86 593.99,-339.86 593.99,4 -4,4"/>
<g id="clust1" class="cluster">
<title>cluster1000</title>
<path fill="none" stroke="black" d="M98.5,-8C98.5,-8 234.5,-8 234.5,-8 240.5,-8 246.5,-14 246.5,-20 246.5,-20 246.5,-220.91 246.5,-220.91 246.5,-226.91 240.5,-232.91 234.5,-232.91 234.5,-232.91 98.5,-232.91 98.5,-232.91 92.5,-232.91 86.5,-226.91 86.5,-220.91 86.5,-220.91 86.5,-20 86.5,-20 86.5,-14 92.5,-8 98.5,-8"/>
<text text-anchor="middle" x="220" y="-15.8" font-family="Times,serif" font-size="14.00">1000</text>
</g>
<!-- w0 -->
<g id="node1" class="node">
<title>w0</title>
<ellipse fill="none" stroke="black" cx="49.5" cy="-298.38" rx="49.49" ry="37.45"/>
<text text-anchor="middle" x="49.5" y="-309.68" font-family="Times,serif" font-size="14.00">w0</text>
<text text-anchor="middle" x="49.5" y="-294.68" font-family="Times,serif" font-size="14.00">~</text>
<text text-anchor="middle" x="49.5" y="-279.68" font-family="Times,serif" font-size="14.00">Normal</text>
</g>
<!-- sigma -->
<g id="node7" class="node">
<title>sigma</title>
<ellipse fill="none" stroke="black" cx="166.5" cy="-187.43" rx="72.25" ry="37.45"/>
<text text-anchor="middle" x="166.5" y="-198.73" font-family="Times,serif" font-size="14.00">sigma</text>
<text text-anchor="middle" x="166.5" y="-183.73" font-family="Times,serif" font-size="14.00">~</text>
<text text-anchor="middle" x="166.5" y="-168.73" font-family="Times,serif" font-size="14.00">Exponential</text>
</g>
<!-- w0&#45;&gt;sigma -->
<g id="edge2" class="edge">
<title>w0&#45;&gt;sigma</title>
<path fill="none" stroke="black" d="M80.24,-268.76C93.73,-256.19 109.78,-241.24 124.37,-227.66"/>
<polygon fill="black" stroke="black" points="126.9,-230.09 131.83,-220.71 122.13,-224.96 126.9,-230.09"/>
</g>
<!-- w2 -->
<g id="node2" class="node">
<title>w2</title>
<ellipse fill="none" stroke="black" cx="166.5" cy="-298.38" rx="49.49" ry="37.45"/>
<text text-anchor="middle" x="166.5" y="-309.68" font-family="Times,serif" font-size="14.00">w2</text>
<text text-anchor="middle" x="166.5" y="-294.68" font-family="Times,serif" font-size="14.00">~</text>
<text text-anchor="middle" x="166.5" y="-279.68" font-family="Times,serif" font-size="14.00">Normal</text>
</g>
<!-- w2&#45;&gt;sigma -->
<g id="edge3" class="edge">
<title>w2&#45;&gt;sigma</title>
<path fill="none" stroke="black" d="M166.5,-260.8C166.5,-252.63 166.5,-243.85 166.5,-235.32"/>
<polygon fill="black" stroke="black" points="170,-235.1 166.5,-225.1 163,-235.1 170,-235.1"/>
</g>
<!-- w1 -->
<g id="node3" class="node">
<title>w1</title>
<ellipse fill="none" stroke="black" cx="283.5" cy="-298.38" rx="49.49" ry="37.45"/>
<text text-anchor="middle" x="283.5" y="-309.68" font-family="Times,serif" font-size="14.00">w1</text>
<text text-anchor="middle" x="283.5" y="-294.68" font-family="Times,serif" font-size="14.00">~</text>
<text text-anchor="middle" x="283.5" y="-279.68" font-family="Times,serif" font-size="14.00">Normal</text>
</g>
<!-- w1&#45;&gt;sigma -->
<g id="edge1" class="edge">
<title>w1&#45;&gt;sigma</title>
<path fill="none" stroke="black" d="M252.76,-268.76C239.27,-256.19 223.21,-241.24 208.63,-227.66"/>
<polygon fill="black" stroke="black" points="210.86,-224.96 201.16,-220.71 206.09,-230.09 210.86,-224.96"/>
</g>
<!-- beta1 -->
<g id="node4" class="node">
<title>beta1</title>
<ellipse fill="none" stroke="black" cx="306.5" cy="-187.43" rx="49.49" ry="37.45"/>
<text text-anchor="middle" x="306.5" y="-198.73" font-family="Times,serif" font-size="14.00">beta1</text>
<text text-anchor="middle" x="306.5" y="-183.73" font-family="Times,serif" font-size="14.00">~</text>
<text text-anchor="middle" x="306.5" y="-168.73" font-family="Times,serif" font-size="14.00">Normal</text>
</g>
<!-- y_obs -->
<g id="node8" class="node">
<title>y_obs</title>
<ellipse fill="lightgrey" stroke="black" cx="189.5" cy="-76.48" rx="49.49" ry="37.45"/>
<text text-anchor="middle" x="189.5" y="-87.78" font-family="Times,serif" font-size="14.00">y_obs</text>
<text text-anchor="middle" x="189.5" y="-72.78" font-family="Times,serif" font-size="14.00">~</text>
<text text-anchor="middle" x="189.5" y="-57.78" font-family="Times,serif" font-size="14.00">Normal</text>
</g>
<!-- beta1&#45;&gt;y_obs -->
<g id="edge6" class="edge">
<title>beta1&#45;&gt;y_obs</title>
<path fill="none" stroke="black" d="M275.76,-157.8C261.09,-144.15 243.4,-127.68 227.87,-113.21"/>
<polygon fill="black" stroke="black" points="230.14,-110.54 220.44,-106.29 225.37,-115.67 230.14,-110.54"/>
</g>
<!-- beta0 -->
<g id="node5" class="node">
<title>beta0</title>
<ellipse fill="none" stroke="black" cx="423.5" cy="-187.43" rx="49.49" ry="37.45"/>
<text text-anchor="middle" x="423.5" y="-198.73" font-family="Times,serif" font-size="14.00">beta0</text>
<text text-anchor="middle" x="423.5" y="-183.73" font-family="Times,serif" font-size="14.00">~</text>
<text text-anchor="middle" x="423.5" y="-168.73" font-family="Times,serif" font-size="14.00">Normal</text>
</g>
<!-- beta0&#45;&gt;y_obs -->
<g id="edge4" class="edge">
<title>beta0&#45;&gt;y_obs</title>
<path fill="none" stroke="black" d="M386.57,-162.35C379.37,-158.01 371.79,-153.69 364.5,-149.95 325.03,-129.75 278.6,-110.72 243.48,-97.24"/>
<polygon fill="black" stroke="black" points="244.48,-93.87 233.89,-93.59 241.99,-100.42 244.48,-93.87"/>
</g>
<!-- beta2 -->
<g id="node6" class="node">
<title>beta2</title>
<ellipse fill="none" stroke="black" cx="540.5" cy="-187.43" rx="49.49" ry="37.45"/>
<text text-anchor="middle" x="540.5" y="-198.73" font-family="Times,serif" font-size="14.00">beta2</text>
<text text-anchor="middle" x="540.5" y="-183.73" font-family="Times,serif" font-size="14.00">~</text>
<text text-anchor="middle" x="540.5" y="-168.73" font-family="Times,serif" font-size="14.00">Normal</text>
</g>
<!-- beta2&#45;&gt;y_obs -->
<g id="edge7" class="edge">
<title>beta2&#45;&gt;y_obs</title>
<path fill="none" stroke="black" d="M504.3,-161.64C496.97,-157.31 489.16,-153.18 481.5,-149.95 403.91,-117.29 308.27,-97.02 248.07,-86.5"/>
<polygon fill="black" stroke="black" points="248.44,-83.01 237.99,-84.77 247.25,-89.91 248.44,-83.01"/>
</g>
<!-- sigma&#45;&gt;y_obs -->
<g id="edge5" class="edge">
<title>sigma&#45;&gt;y_obs</title>
<path fill="none" stroke="black" d="M174.16,-150.15C175.96,-141.6 177.91,-132.38 179.79,-123.47"/>
<polygon fill="black" stroke="black" points="183.23,-124.11 181.87,-113.6 176.38,-122.66 183.23,-124.11"/>
</g>
</g>
</svg>