<?xml version="1.0" encoding="UTF-8" standalone="no"?>
<!DOCTYPE svg PUBLIC "-//W3C//DTD SVG 1.1//EN"
 "http://www.w3.org/Graphics/SVG/1.1/DTD/svg11.dtd">
<!-- Generated by graphviz version 2.42.4 (0)
 -->
<!-- Title: G Pages: 1 -->
<svg width="99pt" height="142pt"
 viewBox="0.00 0.00 99.00 142.00" xmlns="http://www.w3.org/2000/svg" xmlns:xlink="http://www.w3.org/1999/xlink">
<g id="graph0" class="graph" transform="scale(1 1) rotate(0) translate(4 138)">
<title>G</title>
<polygon fill="white" stroke="transparent" points="-4,4 -4,-138 95,-138 95,4 -4,4"/>
<!-- y -->
<g id="node1" class="node">
<title>y</title>
<polygon fill="none" stroke="black" points="54,-36 0,-36 0,0 54,0 54,-36"/>
<text text-anchor="middle" x="27" y="-14.3" font-family="Times,serif" font-size="14.00">y</text>
</g>
<!-- x -->
<g id="node2" class="node">
<title>x</title>
<polygon fill="none" stroke="black" points="54,-134 0,-134 0,-98 54,-98 54,-134"/>
<text text-anchor="middle" x="27" y="-112.3" font-family="Times,serif" font-size="14.00">x</text>
</g>
<!-- x&#45;&gt;y -->
<g id="edge1" class="edge">
<title>x&#45;&gt;y</title>
<path fill="none" stroke="black" d="M27,-97.84C27,-83.5 27,-62.81 27,-46.22"/>
<polygon fill="black" stroke="black" points="30.5,-46.01 27,-36.01 23.5,-46.01 30.5,-46.01"/>
<text text-anchor="middle" x="59" y="-70.4" font-family="Times,serif" font-size="12.00">2.903</text>
<text text-anchor="middle" x="59" y="-57.4" font-family="Times,serif" font-size="12.00">p&#45;val: 0.00</text>
</g>
</g>
</svg>