<?xml version="1.0" encoding="UTF-8" standalone="no"?>
<!DOCTYPE svg PUBLIC "-//W3C//DTD SVG 1.1//EN"
 "http://www.w3.org/Graphics/SVG/1.1/DTD/svg11.dtd">
<!-- Generated by graphviz version 2.43.0 (0)
 -->
<!-- Title: %3 Pages: 1 -->
<svg width="420pt" height="438pt"
 viewBox="0.00 0.00 420.00 437.91" xmlns="http://www.w3.org/2000/svg" xmlns:xlink="http://www.w3.org/1999/xlink">
<g id="graph0" class="graph" transform="scale(1 1) rotate(0) translate(4 433.91)">
<title>%3</title>
<polygon fill="white" stroke="transparent" points="-4,4 -4,-433.91 416,-433.91 416,4 -4,4"/>
<g id="clust1" class="cluster">
<title>cluster10000</title>
<path fill="none" stroke="black" d="M133,-8C133,-8 241,-8 241,-8 247,-8 253,-14 253,-20 253,-20 253,-287.95 253,-287.95 253,-293.95 247,-299.95 241,-299.95 241,-299.95 133,-299.95 133,-299.95 127,-299.95 121,-293.95 121,-287.95 121,-287.95 121,-20 121,-20 121,-14 127,-8 133,-8"/>
<text text-anchor="middle" x="222" y="-15.8" font-family="Times,serif" font-size="14.00">10000</text>
</g>
<g id="clust2" class="cluster">
<title>clusteruser (1000)</title>
<path fill="none" stroke="black" d="M20,-307.95C20,-307.95 110,-307.95 110,-307.95 116,-307.95 122,-313.95 122,-319.95 122,-319.95 122,-409.91 122,-409.91 122,-415.91 116,-421.91 110,-421.91 110,-421.91 20,-421.91 20,-421.91 14,-421.91 8,-415.91 8,-409.91 8,-409.91 8,-319.95 8,-319.95 8,-313.95 14,-307.95 20,-307.95"/>
<text text-anchor="middle" x="72.5" y="-315.75" font-family="Times,serif" font-size="14.00">user (1000)</text>
</g>
<g id="clust3" class="cluster">
<title>clusteritem (10)</title>
<path fill="none" stroke="black" d="M142,-307.95C142,-307.95 392,-307.95 392,-307.95 398,-307.95 404,-313.95 404,-319.95 404,-319.95 404,-409.91 404,-409.91 404,-415.91 398,-421.91 392,-421.91 392,-421.91 142,-421.91 142,-421.91 136,-421.91 130,-415.91 130,-409.91 130,-409.91 130,-319.95 130,-319.95 130,-313.95 136,-307.95 142,-307.95"/>
<text text-anchor="middle" x="363" y="-315.75" font-family="Times,serif" font-size="14.00">item (10)</text>
</g>
<!-- obs -->
<g id="node1" class="node">
<title>obs</title>
<ellipse fill="lightgrey" stroke="black" cx="187" cy="-165.48" rx="57.97" ry="37.45"/>
<text text-anchor="middle" x="187" y="-176.78" font-family="Times,serif" font-size="14.00">obs</text>
<text text-anchor="middle" x="187" y="-161.78" font-family="Times,serif" font-size="14.00">~</text>
<text text-anchor="middle" x="187" y="-146.78" font-family="Times,serif" font-size="14.00">Bernoulli</text>
</g>
<!-- responses -->
<g id="node2" class="node">
<title>responses</title>
<path fill="lightgrey" stroke="black" d="M219.5,-92C219.5,-92 154.5,-92 154.5,-92 148.5,-92 142.5,-86 142.5,-80 142.5,-80 142.5,-51 142.5,-51 142.5,-45 148.5,-39 154.5,-39 154.5,-39 219.5,-39 219.5,-39 225.5,-39 231.5,-45 231.5,-51 231.5,-51 231.5,-80 231.5,-80 231.5,-86 225.5,-92 219.5,-92"/>
<text text-anchor="middle" x="187" y="-76.8" font-family="Times,serif" font-size="14.00">responses</text>
<text text-anchor="middle" x="187" y="-61.8" font-family="Times,serif" font-size="14.00">~</text>
<text text-anchor="middle" x="187" y="-46.8" font-family="Times,serif" font-size="14.00">Data</text>
</g>
<!-- obs&#45;&gt;responses -->
<g id="edge1" class="edge">
<title>obs&#45;&gt;responses</title>
<path fill="none" stroke="black" d="M187,-127.99C187,-119.58 187,-110.63 187,-102.25"/>
<polygon fill="black" stroke="black" points="190.5,-102.01 187,-92.01 183.5,-102.01 190.5,-102.01"/>
</g>
<!-- logit_p -->
<g id="node3" class="node">
<title>logit_p</title>
<polygon fill="none" stroke="black" points="244,-291.95 130,-291.95 130,-238.95 244,-238.95 244,-291.95"/>
<text text-anchor="middle" x="187" y="-276.75" font-family="Times,serif" font-size="14.00">logit_p</text>
<text text-anchor="middle" x="187" y="-261.75" font-family="Times,serif" font-size="14.00">~</text>
<text text-anchor="middle" x="187" y="-246.75" font-family="Times,serif" font-size="14.00">Deterministic</text>
</g>
<!-- logit_p&#45;&gt;obs -->
<g id="edge5" class="edge">
<title>logit_p&#45;&gt;obs</title>
<path fill="none" stroke="black" d="M187,-238.71C187,-230.89 187,-222.03 187,-213.27"/>
<polygon fill="black" stroke="black" points="190.5,-213.1 187,-203.1 183.5,-213.1 190.5,-213.1"/>
</g>
<!-- theta -->
<g id="node4" class="node">
<title>theta</title>
<ellipse fill="none" stroke="black" cx="65" cy="-376.43" rx="49.49" ry="37.45"/>
<text text-anchor="middle" x="65" y="-387.73" font-family="Times,serif" font-size="14.00">theta</text>
<text text-anchor="middle" x="65" y="-372.73" font-family="Times,serif" font-size="14.00">~</text>
<text text-anchor="middle" x="65" y="-357.73" font-family="Times,serif" font-size="14.00">Normal</text>
</g>
<!-- theta&#45;&gt;logit_p -->
<g id="edge3" class="edge">
<title>theta&#45;&gt;logit_p</title>
<path fill="none" stroke="black" d="M90.58,-344.06C100.99,-332.15 113.5,-318.84 126,-307.95 129.83,-304.62 133.93,-301.33 138.13,-298.14"/>
<polygon fill="black" stroke="black" points="140.29,-300.89 146.28,-292.15 136.15,-295.25 140.29,-300.89"/>
</g>
<!-- a -->
<g id="node5" class="node">
<title>a</title>
<ellipse fill="none" stroke="black" cx="325" cy="-376.43" rx="70.92" ry="37.45"/>
<text text-anchor="middle" x="325" y="-387.73" font-family="Times,serif" font-size="14.00">a</text>
<text text-anchor="middle" x="325" y="-372.73" font-family="Times,serif" font-size="14.00">~</text>
<text text-anchor="middle" x="325" y="-357.73" font-family="Times,serif" font-size="14.00">HalfNormal</text>
</g>
<!-- a&#45;&gt;logit_p -->
<g id="edge2" class="edge">
<title>a&#45;&gt;logit_p</title>
<path fill="none" stroke="black" d="M288.86,-343.9C275.3,-332.35 259.63,-319.33 245,-307.95 240.89,-304.76 236.57,-301.49 232.21,-298.27"/>
<polygon fill="black" stroke="black" points="233.97,-295.22 223.83,-292.14 229.84,-300.87 233.97,-295.22"/>
</g>
<!-- beta -->
<g id="node6" class="node">
<title>beta</title>
<ellipse fill="none" stroke="black" cx="187" cy="-376.43" rx="49.49" ry="37.45"/>
<text text-anchor="middle" x="187" y="-387.73" font-family="Times,serif" font-size="14.00">beta</text>
<text text-anchor="middle" x="187" y="-372.73" font-family="Times,serif" font-size="14.00">~</text>
<text text-anchor="middle" x="187" y="-357.73" font-family="Times,serif" font-size="14.00">Normal</text>
</g>
<!-- beta&#45;&gt;logit_p -->
<g id="edge4" class="edge">
<title>beta&#45;&gt;logit_p</title>
<path fill="none" stroke="black" d="M187,-338.84C187,-327.1 187,-314.11 187,-302.42"/>
<polygon fill="black" stroke="black" points="190.5,-302.11 187,-292.11 183.5,-302.11 190.5,-302.11"/>
</g>
</g>
</svg>