<?xml version="1.0" encoding="UTF-8" standalone="no"?>
<!DOCTYPE svg PUBLIC "-//W3C//DTD SVG 1.1//EN"
 "http://www.w3.org/Graphics/SVG/1.1/DTD/svg11.dtd">
<!-- Generated by graphviz version 2.43.0 (0)
 -->
<!-- Title: %3 Pages: 1 -->
<svg width="504pt" height="344pt"
 viewBox="0.00 0.00 503.99 343.86" xmlns="http://www.w3.org/2000/svg" xmlns:xlink="http://www.w3.org/1999/xlink">
<g id="graph0" class="graph" transform="scale(1 1) rotate(0) translate(4 339.86)">
<title>%3</title>
<polygon fill="white" stroke="transparent" points="-4,4 -4,-339.86 499.99,-339.86 499.99,4 -4,4"/>
<g id="clust1" class="cluster">
<title>cluster1000</title>
<path fill="none" stroke="black" d="M121.5,-8C121.5,-8 257.5,-8 257.5,-8 263.5,-8 269.5,-14 269.5,-20 269.5,-20 269.5,-220.91 269.5,-220.91 269.5,-226.91 263.5,-232.91 257.5,-232.91 257.5,-232.91 121.5,-232.91 121.5,-232.91 115.5,-232.91 109.5,-226.91 109.5,-220.91 109.5,-220.91 109.5,-20 109.5,-20 109.5,-14 115.5,-8 121.5,-8"/>
<text text-anchor="middle" x="243" y="-15.8" font-family="Times,serif" font-size="14.00">1000</text>
</g>
<!-- beta2 -->
<g id="node1" class="node">
<title>beta2</title>
<ellipse fill="none" stroke="black" cx="49.5" cy="-187.43" rx="49.49" ry="37.45"/>
<text text-anchor="middle" x="49.5" y="-198.73" font-family="Times,serif" font-size="14.00">beta2</text>
<text text-anchor="middle" x="49.5" y="-183.73" font-family="Times,serif" font-size="14.00">~</text>
<text text-anchor="middle" x="49.5" y="-168.73" font-family="Times,serif" font-size="14.00">Normal</text>
</g>
<!-- y_obs -->
<g id="node7" class="node">
<title>y_obs</title>
<ellipse fill="lightgrey" stroke="black" cx="200.5" cy="-76.48" rx="49.49" ry="37.45"/>
<text text-anchor="middle" x="200.5" y="-87.78" font-family="Times,serif" font-size="14.00">y_obs</text>
<text text-anchor="middle" x="200.5" y="-72.78" font-family="Times,serif" font-size="14.00">~</text>
<text text-anchor="middle" x="200.5" y="-57.78" font-family="Times,serif" font-size="14.00">Normal</text>
</g>
<!-- beta2&#45;&gt;y_obs -->
<g id="edge4" class="edge">
<title>beta2&#45;&gt;y_obs</title>
<path fill="none" stroke="black" d="M84.9,-160.89C106.48,-145.31 134.22,-125.3 157.12,-108.78"/>
<polygon fill="black" stroke="black" points="159.26,-111.55 165.32,-102.86 155.16,-105.87 159.26,-111.55"/>
</g>
<!-- w1 -->
<g id="node2" class="node">
<title>w1</title>
<ellipse fill="none" stroke="black" cx="72.5" cy="-298.38" rx="49.49" ry="37.45"/>
<text text-anchor="middle" x="72.5" y="-309.68" font-family="Times,serif" font-size="14.00">w1</text>
<text text-anchor="middle" x="72.5" y="-294.68" font-family="Times,serif" font-size="14.00">~</text>
<text text-anchor="middle" x="72.5" y="-279.68" font-family="Times,serif" font-size="14.00">Normal</text>
</g>
<!-- sigma -->
<g id="node8" class="node">
<title>sigma</title>
<ellipse fill="none" stroke="black" cx="189.5" cy="-187.43" rx="72.25" ry="37.45"/>
<text text-anchor="middle" x="189.5" y="-198.73" font-family="Times,serif" font-size="14.00">sigma</text>
<text text-anchor="middle" x="189.5" y="-183.73" font-family="Times,serif" font-size="14.00">~</text>
<text text-anchor="middle" x="189.5" y="-168.73" font-family="Times,serif" font-size="14.00">Exponential</text>
</g>
<!-- w1&#45;&gt;sigma -->
<g id="edge1" class="edge">
<title>w1&#45;&gt;sigma</title>
<path fill="none" stroke="black" d="M103.24,-268.76C116.73,-256.19 132.78,-241.24 147.37,-227.66"/>
<polygon fill="black" stroke="black" points="149.9,-230.09 154.83,-220.71 145.13,-224.96 149.9,-230.09"/>
</g>
<!-- w2 -->
<g id="node3" class="node">
<title>w2</title>
<ellipse fill="none" stroke="black" cx="189.5" cy="-298.38" rx="49.49" ry="37.45"/>
<text text-anchor="middle" x="189.5" y="-309.68" font-family="Times,serif" font-size="14.00">w2</text>
<text text-anchor="middle" x="189.5" y="-294.68" font-family="Times,serif" font-size="14.00">~</text>
<text text-anchor="middle" x="189.5" y="-279.68" font-family="Times,serif" font-size="14.00">Normal</text>
</g>
<!-- w2&#45;&gt;sigma -->
<g id="edge2" class="edge">
<title>w2&#45;&gt;sigma</title>
<path fill="none" stroke="black" d="M189.5,-260.8C189.5,-252.63 189.5,-243.85 189.5,-235.32"/>
<polygon fill="black" stroke="black" points="193,-235.1 189.5,-225.1 186,-235.1 193,-235.1"/>
</g>
<!-- w0 -->
<g id="node4" class="node">
<title>w0</title>
<ellipse fill="none" stroke="black" cx="306.5" cy="-298.38" rx="49.49" ry="37.45"/>
<text text-anchor="middle" x="306.5" y="-309.68" font-family="Times,serif" font-size="14.00">w0</text>
<text text-anchor="middle" x="306.5" y="-294.68" font-family="Times,serif" font-size="14.00">~</text>
<text text-anchor="middle" x="306.5" y="-279.68" font-family="Times,serif" font-size="14.00">Normal</text>
</g>
<!-- w0&#45;&gt;sigma -->
<g id="edge3" class="edge">
<title>w0&#45;&gt;sigma</title>
<path fill="none" stroke="black" d="M275.76,-268.76C262.27,-256.19 246.21,-241.24 231.63,-227.66"/>
<polygon fill="black" stroke="black" points="233.86,-224.96 224.16,-220.71 229.09,-230.09 233.86,-224.96"/>
</g>
<!-- beta0 -->
<g id="node5" class="node">
<title>beta0</title>
<ellipse fill="none" stroke="black" cx="329.5" cy="-187.43" rx="49.49" ry="37.45"/>
<text text-anchor="middle" x="329.5" y="-198.73" font-family="Times,serif" font-size="14.00">beta0</text>
<text text-anchor="middle" x="329.5" y="-183.73" font-family="Times,serif" font-size="14.00">~</text>
<text text-anchor="middle" x="329.5" y="-168.73" font-family="Times,serif" font-size="14.00">Normal</text>
</g>
<!-- beta0&#45;&gt;y_obs -->
<g id="edge5" class="edge">
<title>beta0&#45;&gt;y_obs</title>
<path fill="none" stroke="black" d="M296.95,-158.94C279.99,-144.61 259.09,-126.96 241.08,-111.76"/>
<polygon fill="black" stroke="black" points="242.94,-108.74 233.04,-104.96 238.42,-114.09 242.94,-108.74"/>
</g>
<!-- beta1 -->
<g id="node6" class="node">
<title>beta1</title>
<ellipse fill="none" stroke="black" cx="446.5" cy="-187.43" rx="49.49" ry="37.45"/>
<text text-anchor="middle" x="446.5" y="-198.73" font-family="Times,serif" font-size="14.00">beta1</text>
<text text-anchor="middle" x="446.5" y="-183.73" font-family="Times,serif" font-size="14.00">~</text>
<text text-anchor="middle" x="446.5" y="-168.73" font-family="Times,serif" font-size="14.00">Normal</text>
</g>
<!-- beta1&#45;&gt;y_obs -->
<g id="edge7" class="edge">
<title>beta1&#45;&gt;y_obs</title>
<path fill="none" stroke="black" d="M409.64,-162.21C402.43,-157.89 394.83,-153.6 387.5,-149.95 344.43,-128.52 293.39,-109.12 255.52,-95.79"/>
<polygon fill="black" stroke="black" points="256.29,-92.35 245.7,-92.36 253.99,-98.96 256.29,-92.35"/>
</g>
<!-- sigma&#45;&gt;y_obs -->
<g id="edge6" class="edge">
<title>sigma&#45;&gt;y_obs</title>
<path fill="none" stroke="black" d="M193.19,-149.85C194.02,-141.67 194.9,-132.89 195.76,-124.37"/>
<polygon fill="black" stroke="black" points="199.27,-124.45 196.8,-114.15 192.31,-123.75 199.27,-124.45"/>
</g>
</g>
</svg>