<?xml version="1.0" encoding="UTF-8" standalone="no"?>
<!DOCTYPE svg PUBLIC "-//W3C//DTD SVG 1.1//EN"
 "http://www.w3.org/Graphics/SVG/1.1/DTD/svg11.dtd">
<!-- Generated by graphviz version 2.42.4 (0)
 -->
<!-- Title: g Pages: 1 -->
<svg width="98pt" height="118pt"
 viewBox="0.00 0.00 98.00 117.70" xmlns="http://www.w3.org/2000/svg" xmlns:xlink="http://www.w3.org/1999/xlink">
<g id="graph0" class="graph" transform="scale(1 1) rotate(0) translate(4 113.7)">
<title>g</title>
<polygon fill="white" stroke="transparent" points="-4,4 -4,-113.7 94,-113.7 94,4 -4,4"/>
<!-- X -->
<g id="node1" class="node">
<title>X</title>
<ellipse fill="none" stroke="black" cx="18" cy="-91.7" rx="18" ry="18"/>
<text text-anchor="start" x="13" y="-89" font-family="Times,serif" font-style="italic" font-size="14.00">X</text>
</g>
<!-- Y -->
<g id="node2" class="node">
<title>Y</title>
<ellipse fill="none" stroke="black" cx="72" cy="-91.7" rx="18" ry="18"/>
<text text-anchor="start" x="67" y="-89" font-family="Times,serif" font-style="italic" font-size="14.00">Y</text>
</g>
<!-- X&#45;&gt;Y -->
<g id="edge1" class="edge">
<title>X&#45;&gt;Y</title>
<path fill="none" stroke="black" d="M36.14,-91.7C38.62,-91.7 41.1,-91.7 43.59,-91.7"/>
<polygon fill="black" stroke="black" points="43.79,-95.2 53.79,-91.7 43.79,-88.2 43.79,-95.2"/>
</g>
<!-- U -->
<g id="node3" class="node">
<title>U</title>
<ellipse fill="none" stroke="black" cx="45" cy="-18.85" rx="18.7" ry="18.7"/>
<text text-anchor="start" x="38.5" y="-16.15" font-family="Times,serif" font-weight="bold" font-style="italic" font-size="14.00">U</text>
</g>
<!-- U&#45;&gt;X -->
<g id="edge2" class="edge">
<title>U&#45;&gt;X</title>
<path fill="none" stroke="black" d="M38.52,-36.85C35.31,-45.27 31.37,-55.62 27.8,-64.98"/>
<polygon fill="black" stroke="black" points="24.42,-64.03 24.13,-74.62 30.96,-66.52 24.42,-64.03"/>
</g>
<!-- U&#45;&gt;Y -->
<g id="edge3" class="edge">
<title>U&#45;&gt;Y</title>
<path fill="none" stroke="black" d="M51.48,-36.85C54.69,-45.27 58.63,-55.62 62.2,-64.98"/>
<polygon fill="black" stroke="black" points="59.04,-66.52 65.87,-74.62 65.58,-64.03 59.04,-66.52"/>
</g>
</g>
</svg>