<?xml version="1.0" encoding="UTF-8" standalone="no"?>
<!DOCTYPE svg PUBLIC "-//W3C//DTD SVG 1.1//EN"
 "http://www.w3.org/Graphics/SVG/1.1/DTD/svg11.dtd">
<!-- Generated by graphviz version 2.43.0 (0)
 -->
<!-- Title: %3 Pages: 1 -->
<svg width="201pt" height="260pt"
 viewBox="0.00 0.00 200.69 260.00" xmlns="http://www.w3.org/2000/svg" xmlns:xlink="http://www.w3.org/1999/xlink">
<g id="graph0" class="graph" transform="scale(1 1) rotate(0) translate(4 256)">
<title>%3</title>
<polygon fill="white" stroke="transparent" points="-4,4 -4,-256 196.69,-256 196.69,4 -4,4"/>
<!-- ロイヤルティ -->
<g id="node1" class="node">
<title>ロイヤルティ</title>
<ellipse fill="none" stroke="black" cx="126.39" cy="-234" rx="66.09" ry="18"/>
<text text-anchor="middle" x="126.39" y="-230.3" font-family="Times,serif" font-size="14.00">ロイヤルティ</text>
</g>
<!-- 先月の購入履歴 -->
<g id="node2" class="node">
<title>先月の購入履歴</title>
<ellipse fill="none" stroke="black" cx="75.39" cy="-162" rx="75.29" ry="18"/>
<text text-anchor="middle" x="75.39" y="-158.3" font-family="Times,serif" font-size="14.00">先月の購入履歴</text>
</g>
<!-- ロイヤルティ&#45;&gt;先月の購入履歴 -->
<g id="edge1" class="edge">
<title>ロイヤルティ&#45;&gt;先月の購入履歴</title>
<path fill="none" stroke="black" d="M114.05,-216.05C107.91,-207.63 100.37,-197.28 93.58,-187.97"/>
<polygon fill="black" stroke="black" points="96.34,-185.81 87.63,-179.79 90.69,-189.93 96.34,-185.81"/>
</g>
<!-- 購入 -->
<g id="node4" class="node">
<title>購入</title>
<ellipse fill="none" stroke="black" cx="133.39" cy="-18" rx="29.5" ry="18"/>
<text text-anchor="middle" x="133.39" y="-14.3" font-family="Times,serif" font-size="14.00">購入</text>
</g>
<!-- ロイヤルティ&#45;&gt;購入 -->
<g id="edge4" class="edge">
<title>ロイヤルティ&#45;&gt;購入</title>
<path fill="none" stroke="black" d="M140.38,-216.04C147.59,-206.18 155.64,-193.13 159.39,-180 172.67,-133.57 156.72,-77.55 144.59,-45.32"/>
<polygon fill="black" stroke="black" points="147.74,-43.77 140.83,-35.74 141.22,-46.33 147.74,-43.77"/>
</g>
<!-- クーポン -->
<g id="node3" class="node">
<title>クーポン</title>
<ellipse fill="none" stroke="black" cx="88.39" cy="-90" rx="48.19" ry="18"/>
<text text-anchor="middle" x="88.39" y="-86.3" font-family="Times,serif" font-size="14.00">クーポン</text>
</g>
<!-- 先月の購入履歴&#45;&gt;クーポン -->
<g id="edge2" class="edge">
<title>先月の購入履歴&#45;&gt;クーポン</title>
<path fill="none" stroke="black" d="M78.61,-143.7C80.04,-135.98 81.76,-126.71 83.36,-118.11"/>
<polygon fill="black" stroke="black" points="86.83,-118.58 85.22,-108.1 79.95,-117.3 86.83,-118.58"/>
</g>
<!-- クーポン&#45;&gt;購入 -->
<g id="edge3" class="edge">
<title>クーポン&#45;&gt;購入</title>
<path fill="none" stroke="black" d="M99.06,-72.41C104.57,-63.83 111.41,-53.19 117.53,-43.67"/>
<polygon fill="black" stroke="black" points="120.65,-45.29 123.12,-34.99 114.76,-41.51 120.65,-45.29"/>
</g>
</g>
</svg>