<?xml version="1.0" encoding="UTF-8" standalone="no"?>
<!DOCTYPE svg PUBLIC "-//W3C//DTD SVG 1.1//EN"
 "http://www.w3.org/Graphics/SVG/1.1/DTD/svg11.dtd">
<!-- Generated by graphviz version 2.43.0 (0)
 -->
<!-- Title: g Pages: 1 -->
<svg width="116pt" height="152pt"
 viewBox="0.00 0.00 116.00 152.00" xmlns="http://www.w3.org/2000/svg" xmlns:xlink="http://www.w3.org/1999/xlink">
<g id="graph0" class="graph" transform="scale(1 1) rotate(0) translate(4 148)">
<title>g</title>
<polygon fill="white" stroke="transparent" points="-4,4 -4,-148 112,-148 112,4 -4,4"/>
<!-- u1 -->
<g id="node1" class="node">
<title>u1</title>
<polygon fill="none" stroke="black" points="108,-144 72,-144 72,-108 108,-108 108,-144"/>
<text text-anchor="middle" x="90" y="-122.3" font-family="Times,serif" font-size="14.00">u1</text>
</g>
<!-- u2 -->
<g id="node2" class="node">
<title>u2</title>
<polygon fill="none" stroke="black" points="108,-90 72,-90 72,-54 108,-54 108,-90"/>
<text text-anchor="middle" x="90" y="-68.3" font-family="Times,serif" font-size="14.00">u2</text>
</g>
<!-- u3 -->
<g id="node3" class="node">
<title>u3</title>
<polygon fill="none" stroke="black" points="108,-36 72,-36 72,0 108,0 108,-36"/>
<text text-anchor="middle" x="90" y="-14.3" font-family="Times,serif" font-size="14.00">u3</text>
</g>
<!-- theta -->
<g id="node4" class="node">
<title>theta</title>
<ellipse fill="none" stroke="black" cx="18" cy="-72" rx="18" ry="18"/>
<text text-anchor="middle" x="18" y="-68.3" font-family="Times,serif" font-size="14.00">θ</text>
</g>
<!-- theta&#45;&gt;u1 -->
<g id="edge1" class="edge">
<title>theta&#45;&gt;u1</title>
<path fill="none" stroke="black" d="M32.83,-82.67C41.7,-89.51 53.46,-98.59 63.94,-106.67"/>
<polygon fill="black" stroke="black" points="61.93,-109.53 71.98,-112.87 66.2,-103.99 61.93,-109.53"/>
</g>
<!-- theta&#45;&gt;u2 -->
<g id="edge2" class="edge">
<title>theta&#45;&gt;u2</title>
<path fill="none" stroke="black" d="M36.3,-72C44.02,-72 53.29,-72 61.89,-72"/>
<polygon fill="black" stroke="black" points="61.9,-75.5 71.9,-72 61.9,-68.5 61.9,-75.5"/>
</g>
<!-- theta&#45;&gt;u3 -->
<g id="edge3" class="edge">
<title>theta&#45;&gt;u3</title>
<path fill="none" stroke="black" d="M32.83,-61.33C41.7,-54.49 53.46,-45.41 63.94,-37.33"/>
<polygon fill="black" stroke="black" points="66.2,-40.01 71.98,-31.13 61.93,-34.47 66.2,-40.01"/>
</g>
</g>
</svg>