<?xml version="1.0" encoding="UTF-8" standalone="no"?>
<!DOCTYPE svg PUBLIC "-//W3C//DTD SVG 1.1//EN"
 "http://www.w3.org/Graphics/SVG/1.1/DTD/svg11.dtd">
<!-- Generated by graphviz version 2.43.0 (0)
 -->
<!-- Title: %3 Pages: 1 -->
<svg width="496pt" height="233pt"
 viewBox="0.00 0.00 495.99 232.91" xmlns="http://www.w3.org/2000/svg" xmlns:xlink="http://www.w3.org/1999/xlink">
<g id="graph0" class="graph" transform="scale(1 1) rotate(0) translate(4 228.91)">
<title>%3</title>
<polygon fill="white" stroke="transparent" points="-4,4 -4,-228.91 491.99,-228.91 491.99,4 -4,4"/>
<g id="clust1" class="cluster">
<title>cluster1000</title>
<path fill="none" stroke="black" d="M189.5,-8C189.5,-8 279.5,-8 279.5,-8 285.5,-8 291.5,-14 291.5,-20 291.5,-20 291.5,-109.95 291.5,-109.95 291.5,-115.95 285.5,-121.95 279.5,-121.95 279.5,-121.95 189.5,-121.95 189.5,-121.95 183.5,-121.95 177.5,-115.95 177.5,-109.95 177.5,-109.95 177.5,-20 177.5,-20 177.5,-14 183.5,-8 189.5,-8"/>
<text text-anchor="middle" x="265" y="-15.8" font-family="Times,serif" font-size="14.00">1000</text>
</g>
<!-- beta2 -->
<g id="node1" class="node">
<title>beta2</title>
<ellipse fill="none" stroke="black" cx="49.5" cy="-187.43" rx="49.49" ry="37.45"/>
<text text-anchor="middle" x="49.5" y="-198.73" font-family="Times,serif" font-size="14.00">beta2</text>
<text text-anchor="middle" x="49.5" y="-183.73" font-family="Times,serif" font-size="14.00">~</text>
<text text-anchor="middle" x="49.5" y="-168.73" font-family="Times,serif" font-size="14.00">Normal</text>
</g>
<!-- y_obs -->
<g id="node5" class="node">
<title>y_obs</title>
<ellipse fill="lightgrey" stroke="black" cx="234.5" cy="-76.48" rx="49.49" ry="37.45"/>
<text text-anchor="middle" x="234.5" y="-87.78" font-family="Times,serif" font-size="14.00">y_obs</text>
<text text-anchor="middle" x="234.5" y="-72.78" font-family="Times,serif" font-size="14.00">~</text>
<text text-anchor="middle" x="234.5" y="-57.78" font-family="Times,serif" font-size="14.00">Normal</text>
</g>
<!-- beta2&#45;&gt;y_obs -->
<g id="edge1" class="edge">
<title>beta2&#45;&gt;y_obs</title>
<path fill="none" stroke="black" d="M87.16,-162.9C94.22,-158.56 101.57,-154.09 108.5,-149.95 134.15,-134.65 163.02,-118 186.65,-104.53"/>
<polygon fill="black" stroke="black" points="188.47,-107.51 195.43,-99.52 185.01,-101.43 188.47,-107.51"/>
</g>
<!-- beta0 -->
<g id="node2" class="node">
<title>beta0</title>
<ellipse fill="none" stroke="black" cx="166.5" cy="-187.43" rx="49.49" ry="37.45"/>
<text text-anchor="middle" x="166.5" y="-198.73" font-family="Times,serif" font-size="14.00">beta0</text>
<text text-anchor="middle" x="166.5" y="-183.73" font-family="Times,serif" font-size="14.00">~</text>
<text text-anchor="middle" x="166.5" y="-168.73" font-family="Times,serif" font-size="14.00">Normal</text>
</g>
<!-- beta0&#45;&gt;y_obs -->
<g id="edge2" class="edge">
<title>beta0&#45;&gt;y_obs</title>
<path fill="none" stroke="black" d="M187.27,-153.15C193.93,-142.48 201.38,-130.53 208.37,-119.33"/>
<polygon fill="black" stroke="black" points="211.53,-120.89 213.85,-110.55 205.59,-117.18 211.53,-120.89"/>
</g>
<!-- sigma -->
<g id="node3" class="node">
<title>sigma</title>
<ellipse fill="none" stroke="black" cx="302.5" cy="-187.43" rx="68.68" ry="37.45"/>
<text text-anchor="middle" x="302.5" y="-198.73" font-family="Times,serif" font-size="14.00">sigma</text>
<text text-anchor="middle" x="302.5" y="-183.73" font-family="Times,serif" font-size="14.00">~</text>
<text text-anchor="middle" x="302.5" y="-168.73" font-family="Times,serif" font-size="14.00">Halfnormal</text>
</g>
<!-- sigma&#45;&gt;y_obs -->
<g id="edge3" class="edge">
<title>sigma&#45;&gt;y_obs</title>
<path fill="none" stroke="black" d="M280.79,-151.66C274.42,-141.44 267.37,-130.15 260.75,-119.53"/>
<polygon fill="black" stroke="black" points="263.56,-117.44 255.3,-110.81 257.62,-121.14 263.56,-117.44"/>
</g>
<!-- beta1 -->
<g id="node4" class="node">
<title>beta1</title>
<ellipse fill="none" stroke="black" cx="438.5" cy="-187.43" rx="49.49" ry="37.45"/>
<text text-anchor="middle" x="438.5" y="-198.73" font-family="Times,serif" font-size="14.00">beta1</text>
<text text-anchor="middle" x="438.5" y="-183.73" font-family="Times,serif" font-size="14.00">~</text>
<text text-anchor="middle" x="438.5" y="-168.73" font-family="Times,serif" font-size="14.00">Normal</text>
</g>
<!-- beta1&#45;&gt;y_obs -->
<g id="edge4" class="edge">
<title>beta1&#45;&gt;y_obs</title>
<path fill="none" stroke="black" d="M401.39,-162.32C394.52,-158.08 387.35,-153.79 380.5,-149.95 349.56,-132.61 313.92,-114.87 285.6,-101.29"/>
<polygon fill="black" stroke="black" points="286.83,-98 276.29,-96.85 283.81,-104.31 286.83,-98"/>
</g>
</g>
</svg>