<?xml version="1.0" encoding="UTF-8" standalone="no"?>
<!DOCTYPE svg PUBLIC "-//W3C//DTD SVG 1.1//EN"
 "http://www.w3.org/Graphics/SVG/1.1/DTD/svg11.dtd">
<!-- Generated by graphviz version 2.42.4 (0)
 -->
<!-- Title: g Pages: 1 -->
<svg width="125pt" height="116pt"
 viewBox="0.00 0.00 125.50 116.50" xmlns="http://www.w3.org/2000/svg" xmlns:xlink="http://www.w3.org/1999/xlink">
<g id="graph0" class="graph" transform="scale(1 1) rotate(0) translate(4 112.5)">
<title>g</title>
<polygon fill="white" stroke="transparent" points="-4,4 -4,-112.5 121.5,-112.5 121.5,4 -4,4"/>
<!-- X1 -->
<g id="node1" class="node">
<title>X1</title>
<ellipse fill="none" stroke="black" cx="22.75" cy="-85.75" rx="23" ry="23"/>
<text text-anchor="start" x="13.25" y="-83.05" font-family="Times,serif" font-style="italic" font-size="14.00">X1</text>
</g>
<!-- Y -->
<g id="node3" class="node">
<title>Y</title>
<ellipse fill="none" stroke="black" cx="99.5" cy="-53.75" rx="18" ry="18"/>
<text text-anchor="start" x="94.5" y="-51.05" font-family="Times,serif" font-style="italic" font-size="14.00">Y</text>
</g>
<!-- X1&#45;&gt;Y -->
<g id="edge1" class="edge">
<title>X1&#45;&gt;Y</title>
<path fill="none" stroke="black" d="M44.17,-77C53.16,-73.16 63.8,-68.6 73.27,-64.55"/>
<polygon fill="black" stroke="black" points="74.78,-67.71 82.6,-60.55 72.03,-61.27 74.78,-67.71"/>
</g>
<!-- X2 -->
<g id="node2" class="node">
<title>X2</title>
<ellipse fill="none" stroke="black" cx="22.75" cy="-22.75" rx="23" ry="23"/>
<text text-anchor="start" x="13.25" y="-20.05" font-family="Times,serif" font-style="italic" font-size="14.00">X2</text>
</g>
<!-- X2&#45;&gt;Y -->
<g id="edge2" class="edge">
<title>X2&#45;&gt;Y</title>
<path fill="none" stroke="black" d="M44.17,-31.22C53.16,-34.94 63.8,-39.36 73.27,-43.29"/>
<polygon fill="black" stroke="black" points="72.02,-46.56 82.6,-47.15 74.7,-40.09 72.02,-46.56"/>
</g>
</g>
</svg>