<?xml version="1.0" encoding="UTF-8" standalone="no"?>
<!DOCTYPE svg PUBLIC "-//W3C//DTD SVG 1.1//EN"
 "http://www.w3.org/Graphics/SVG/1.1/DTD/svg11.dtd">
<!-- Generated by graphviz version 2.43.0 (0)
 -->
<!-- Title: G Pages: 1 -->
<svg width="174pt" height="142pt"
 viewBox="0.00 0.00 174.00 142.00" xmlns="http://www.w3.org/2000/svg" xmlns:xlink="http://www.w3.org/1999/xlink">
<g id="graph0" class="graph" transform="scale(1 1) rotate(0) translate(4 138)">
<title>G</title>
<polygon fill="white" stroke="transparent" points="-4,4 -4,-138 170,-138 170,4 -4,4"/>
<!-- y -->
<g id="node1" class="node">
<title>y</title>
<polygon fill="none" stroke="black" points="97,-36 43,-36 43,0 97,0 97,-36"/>
<text text-anchor="middle" x="70" y="-14.3" font-family="Times,serif" font-size="14.00">y</text>
</g>
<!-- x1 -->
<g id="node2" class="node">
<title>x1</title>
<polygon fill="none" stroke="black" points="54,-134 0,-134 0,-98 54,-98 54,-134"/>
<text text-anchor="middle" x="27" y="-112.3" font-family="Times,serif" font-size="14.00">x1</text>
</g>
<!-- x1&#45;&gt;y -->
<g id="edge1" class="edge">
<title>x1&#45;&gt;y</title>
<path fill="none" stroke="black" d="M23.59,-97.82C21.92,-85.1 21.46,-67.66 28,-54 29.89,-50.05 32.46,-46.39 35.41,-43.04"/>
<polygon fill="black" stroke="black" points="38.11,-45.29 42.82,-35.8 33.22,-40.28 38.11,-45.29"/>
<text text-anchor="middle" x="60" y="-70.4" font-family="Times,serif" font-size="12.00">2.925</text>
<text text-anchor="middle" x="60" y="-57.4" font-family="Times,serif" font-size="12.00">p&#45;val: 0.00</text>
</g>
<!-- x2 -->
<g id="node3" class="node">
<title>x2</title>
<polygon fill="none" stroke="black" points="141,-134 87,-134 87,-98 141,-98 141,-134"/>
<text text-anchor="middle" x="114" y="-112.3" font-family="Times,serif" font-size="14.00">x2</text>
</g>
<!-- x2&#45;&gt;y -->
<g id="edge2" class="edge">
<title>x2&#45;&gt;y</title>
<path fill="none" stroke="black" d="M108.88,-97.77C104.92,-85.32 98.96,-68.27 92,-54 90.52,-50.97 88.84,-47.87 87.09,-44.83"/>
<polygon fill="black" stroke="black" points="89.92,-42.74 81.73,-36.02 83.94,-46.38 89.92,-42.74"/>
<text text-anchor="middle" x="134" y="-70.4" font-family="Times,serif" font-size="12.00">4.871</text>
<text text-anchor="middle" x="134" y="-57.4" font-family="Times,serif" font-size="12.00">p&#45;val: 0.00</text>
</g>
</g>
</svg>
